%TF.GenerationSoftware,KiCad,Pcbnew,7.0.7*%
%TF.CreationDate,2023-12-14T17:45:08-06:00*%
%TF.ProjectId,test,74657374-2e6b-4696-9361-645f70636258,rev?*%
%TF.SameCoordinates,Original*%
%TF.FileFunction,Soldermask,Bot*%
%TF.FilePolarity,Negative*%
%FSLAX46Y46*%
G04 Gerber Fmt 4.6, Leading zero omitted, Abs format (unit mm)*
G04 Created by KiCad (PCBNEW 7.0.7) date 2023-12-14 17:45:08*
%MOMM*%
%LPD*%
G01*
G04 APERTURE LIST*
G04 Aperture macros list*
%AMRoundRect*
0 Rectangle with rounded corners*
0 $1 Rounding radius*
0 $2 $3 $4 $5 $6 $7 $8 $9 X,Y pos of 4 corners*
0 Add a 4 corners polygon primitive as box body*
4,1,4,$2,$3,$4,$5,$6,$7,$8,$9,$2,$3,0*
0 Add four circle primitives for the rounded corners*
1,1,$1+$1,$2,$3*
1,1,$1+$1,$4,$5*
1,1,$1+$1,$6,$7*
1,1,$1+$1,$8,$9*
0 Add four rect primitives between the rounded corners*
20,1,$1+$1,$2,$3,$4,$5,0*
20,1,$1+$1,$4,$5,$6,$7,0*
20,1,$1+$1,$6,$7,$8,$9,0*
20,1,$1+$1,$8,$9,$2,$3,0*%
G04 Aperture macros list end*
%ADD10C,2.500000*%
%ADD11C,2.600000*%
%ADD12R,1.600000X1.600000*%
%ADD13O,1.600000X1.600000*%
%ADD14C,5.700000*%
%ADD15C,2.000000*%
%ADD16RoundRect,0.250000X0.600000X0.725000X-0.600000X0.725000X-0.600000X-0.725000X0.600000X-0.725000X0*%
%ADD17O,1.700000X1.950000*%
G04 APERTURE END LIST*
D10*
%TO.C,C4*%
X167132000Y-100584000D03*
D11*
X167132000Y-96584000D03*
%TD*%
D12*
%TO.C,A1*%
X121920000Y-84878000D03*
D13*
X121920000Y-87418000D03*
X121920000Y-89958000D03*
X121920000Y-92498000D03*
X121920000Y-95038000D03*
X121920000Y-97578000D03*
X121920000Y-100118000D03*
X121920000Y-102658000D03*
X121920000Y-105198000D03*
X121920000Y-107738000D03*
X121920000Y-110278000D03*
X121920000Y-112818000D03*
X121920000Y-115358000D03*
X121920000Y-117898000D03*
X121920000Y-120438000D03*
X137160000Y-120438000D03*
X137160000Y-117898000D03*
X137160000Y-115358000D03*
X137160000Y-112818000D03*
X137160000Y-110278000D03*
X137160000Y-107738000D03*
X137160000Y-105198000D03*
X137160000Y-102658000D03*
X137160000Y-100118000D03*
X137160000Y-97578000D03*
X137160000Y-95038000D03*
X137160000Y-92498000D03*
X137160000Y-89958000D03*
X137160000Y-87418000D03*
X137160000Y-84878000D03*
%TD*%
D14*
%TO.C,J3*%
X102220000Y-92200000D03*
X102220000Y-80230000D03*
%TD*%
D15*
%TO.C,R6*%
X143774396Y-106807000D03*
X155974396Y-106807000D03*
%TD*%
D16*
%TO.C,J1*%
X161738000Y-97836000D03*
D17*
X159238000Y-97836000D03*
X156738000Y-97836000D03*
X154238000Y-97836000D03*
%TD*%
D10*
%TO.C,C1*%
X158394396Y-85947000D03*
D11*
X158394396Y-81947000D03*
%TD*%
D15*
%TO.C,R5*%
X145694396Y-89647000D03*
X145694396Y-101847000D03*
%TD*%
%TO.C,R2*%
X107213000Y-103755000D03*
X107213000Y-115955000D03*
%TD*%
D10*
%TO.C,C5*%
X109195000Y-119733000D03*
D11*
X109195000Y-123733000D03*
%TD*%
D14*
%TO.C,J4*%
X114220000Y-92200000D03*
X114220000Y-80230000D03*
%TD*%
D10*
%TO.C,C3*%
X155314396Y-76327000D03*
D11*
X151314396Y-76327000D03*
%TD*%
D15*
%TO.C,R1*%
X165100000Y-115839000D03*
X165100000Y-103639000D03*
%TD*%
D16*
%TO.C,J2*%
X134580000Y-76200000D03*
D17*
X132080000Y-76200000D03*
X129580000Y-76200000D03*
X127080000Y-76200000D03*
X124580000Y-76200000D03*
X122080000Y-76200000D03*
%TD*%
D15*
%TO.C,R4*%
X164084000Y-80884000D03*
X164084000Y-93084000D03*
%TD*%
D10*
%TO.C,C6*%
X150774396Y-86487000D03*
D11*
X150774396Y-90487000D03*
%TD*%
D15*
%TO.C,R3*%
X111227000Y-116082000D03*
X111227000Y-103882000D03*
%TD*%
M02*
