%TF.GenerationSoftware,KiCad,Pcbnew,7.0.7*%
%TF.CreationDate,2023-12-14T17:45:07-06:00*%
%TF.ProjectId,test,74657374-2e6b-4696-9361-645f70636258,rev?*%
%TF.SameCoordinates,Original*%
%TF.FileFunction,Copper,L1,Top*%
%TF.FilePolarity,Positive*%
%FSLAX46Y46*%
G04 Gerber Fmt 4.6, Leading zero omitted, Abs format (unit mm)*
G04 Created by KiCad (PCBNEW 7.0.7) date 2023-12-14 17:45:07*
%MOMM*%
%LPD*%
G01*
G04 APERTURE LIST*
G04 Aperture macros list*
%AMRoundRect*
0 Rectangle with rounded corners*
0 $1 Rounding radius*
0 $2 $3 $4 $5 $6 $7 $8 $9 X,Y pos of 4 corners*
0 Add a 4 corners polygon primitive as box body*
4,1,4,$2,$3,$4,$5,$6,$7,$8,$9,$2,$3,0*
0 Add four circle primitives for the rounded corners*
1,1,$1+$1,$2,$3*
1,1,$1+$1,$4,$5*
1,1,$1+$1,$6,$7*
1,1,$1+$1,$8,$9*
0 Add four rect primitives between the rounded corners*
20,1,$1+$1,$2,$3,$4,$5,0*
20,1,$1+$1,$4,$5,$6,$7,0*
20,1,$1+$1,$6,$7,$8,$9,0*
20,1,$1+$1,$8,$9,$2,$3,0*%
%AMFreePoly0*
4,1,5,5.500000,-4.500000,-5.500000,-4.500000,-5.500000,4.500000,5.500000,4.500000,5.500000,-4.500000,5.500000,-4.500000,$1*%
G04 Aperture macros list end*
%TA.AperFunction,ComponentPad*%
%ADD10C,2.500000*%
%TD*%
%TA.AperFunction,ComponentPad*%
%ADD11C,2.600000*%
%TD*%
%TA.AperFunction,ComponentPad*%
%ADD12R,1.600000X1.600000*%
%TD*%
%TA.AperFunction,ComponentPad*%
%ADD13O,1.600000X1.600000*%
%TD*%
%TA.AperFunction,SMDPad,CuDef*%
%ADD14R,0.600000X2.000000*%
%TD*%
%TA.AperFunction,ComponentPad*%
%ADD15C,5.700000*%
%TD*%
%TA.AperFunction,SMDPad,CuDef*%
%ADD16FreePoly0,0.000000*%
%TD*%
%TA.AperFunction,ComponentPad*%
%ADD17C,2.000000*%
%TD*%
%TA.AperFunction,SMDPad,CuDef*%
%ADD18R,1.520000X2.540000*%
%TD*%
%TA.AperFunction,ComponentPad*%
%ADD19RoundRect,0.250000X0.600000X0.725000X-0.600000X0.725000X-0.600000X-0.725000X0.600000X-0.725000X0*%
%TD*%
%TA.AperFunction,ComponentPad*%
%ADD20O,1.700000X1.950000*%
%TD*%
%TA.AperFunction,SMDPad,CuDef*%
%ADD21RoundRect,0.187500X-0.187500X-0.612500X0.187500X-0.612500X0.187500X0.612500X-0.187500X0.612500X0*%
%TD*%
%TA.AperFunction,SMDPad,CuDef*%
%ADD22RoundRect,0.187500X-0.512500X-0.187500X0.512500X-0.187500X0.512500X0.187500X-0.512500X0.187500X0*%
%TD*%
%TA.AperFunction,SMDPad,CuDef*%
%ADD23RoundRect,0.425000X-0.475000X-0.425000X0.475000X-0.425000X0.475000X0.425000X-0.475000X0.425000X0*%
%TD*%
%TA.AperFunction,SMDPad,CuDef*%
%ADD24RoundRect,0.150000X-0.587500X-0.150000X0.587500X-0.150000X0.587500X0.150000X-0.587500X0.150000X0*%
%TD*%
%TA.AperFunction,SMDPad,CuDef*%
%ADD25RoundRect,0.150000X0.850000X0.150000X-0.850000X0.150000X-0.850000X-0.150000X0.850000X-0.150000X0*%
%TD*%
%TA.AperFunction,ViaPad*%
%ADD26C,4.200000*%
%TD*%
%TA.AperFunction,ViaPad*%
%ADD27C,1.000000*%
%TD*%
%TA.AperFunction,ViaPad*%
%ADD28C,0.600000*%
%TD*%
%TA.AperFunction,Conductor*%
%ADD29C,0.200000*%
%TD*%
G04 APERTURE END LIST*
D10*
%TO.P,C4,1*%
%TO.N,Net-(U3-INA-)*%
X167132000Y-100584000D03*
D11*
%TO.P,C4,2*%
%TO.N,Net-(U3-INA+)*%
X167132000Y-96584000D03*
%TD*%
D12*
%TO.P,A1,1,D1/TX*%
%TO.N,unconnected-(A1-D1{slash}TX-Pad1)*%
X121920000Y-84878000D03*
D13*
%TO.P,A1,2,D0/RX*%
%TO.N,unconnected-(A1-D0{slash}RX-Pad2)*%
X121920000Y-87418000D03*
%TO.P,A1,3,~{RESET}*%
%TO.N,unconnected-(A1-~{RESET}-Pad3)*%
X121920000Y-89958000D03*
%TO.P,A1,4,GND*%
%TO.N,GND*%
X121920000Y-92498000D03*
%TO.P,A1,5,D2*%
%TO.N,unconnected-(A1-D2-Pad5)*%
X121920000Y-95038000D03*
%TO.P,A1,6,D3*%
%TO.N,unconnected-(A1-D3-Pad6)*%
X121920000Y-97578000D03*
%TO.P,A1,7,D4*%
%TO.N,Net-(A1-D4)*%
X121920000Y-100118000D03*
%TO.P,A1,8,D5*%
%TO.N,unconnected-(A1-D5-Pad8)*%
X121920000Y-102658000D03*
%TO.P,A1,9,D6*%
%TO.N,unconnected-(A1-D6-Pad9)*%
X121920000Y-105198000D03*
%TO.P,A1,10,D7*%
%TO.N,unconnected-(A1-D7-Pad10)*%
X121920000Y-107738000D03*
%TO.P,A1,11,D8*%
%TO.N,Net-(A1-D8)*%
X121920000Y-110278000D03*
%TO.P,A1,12,D9*%
%TO.N,Net-(A1-D9)*%
X121920000Y-112818000D03*
%TO.P,A1,13,D10*%
%TO.N,Net-(A1-D10)*%
X121920000Y-115358000D03*
%TO.P,A1,14,D11*%
%TO.N,unconnected-(A1-D11-Pad14)*%
X121920000Y-117898000D03*
%TO.P,A1,15,D12*%
%TO.N,unconnected-(A1-D12-Pad15)*%
X121920000Y-120438000D03*
%TO.P,A1,16,D13*%
%TO.N,unconnected-(A1-D13-Pad16)*%
X137160000Y-120438000D03*
%TO.P,A1,17,3V3*%
%TO.N,Net-(A1-3V3)*%
X137160000Y-117898000D03*
%TO.P,A1,18,AREF*%
%TO.N,unconnected-(A1-AREF-Pad18)*%
X137160000Y-115358000D03*
%TO.P,A1,19,A0*%
%TO.N,Net-(A1-A0)*%
X137160000Y-112818000D03*
%TO.P,A1,20,A1*%
%TO.N,Net-(A1-A1)*%
X137160000Y-110278000D03*
%TO.P,A1,21,A2*%
%TO.N,Net-(A1-A2)*%
X137160000Y-107738000D03*
%TO.P,A1,22,A3*%
%TO.N,unconnected-(A1-A3-Pad22)*%
X137160000Y-105198000D03*
%TO.P,A1,23,A4*%
%TO.N,unconnected-(A1-A4-Pad23)*%
X137160000Y-102658000D03*
%TO.P,A1,24,A5*%
%TO.N,unconnected-(A1-A5-Pad24)*%
X137160000Y-100118000D03*
%TO.P,A1,25,A6*%
%TO.N,Net-(A1-A6)*%
X137160000Y-97578000D03*
%TO.P,A1,26,A7*%
%TO.N,Net-(A1-A7)*%
X137160000Y-95038000D03*
%TO.P,A1,27,+5V*%
%TO.N,Net-(A1-+5V)*%
X137160000Y-92498000D03*
%TO.P,A1,28,~{RESET}*%
%TO.N,unconnected-(A1-~{RESET}-Pad28)*%
X137160000Y-89958000D03*
%TO.P,A1,29,GND*%
%TO.N,GND*%
X137160000Y-87418000D03*
%TO.P,A1,30,VIN*%
%TO.N,unconnected-(A1-VIN-Pad30)*%
X137160000Y-84878000D03*
%TD*%
D14*
%TO.P,U1,1,NULL*%
%TO.N,unconnected-(U1-NULL-Pad1)*%
X118745000Y-115448000D03*
%TO.P,U1,2,-*%
%TO.N,Net-(A1-A6)*%
X117475000Y-115448000D03*
%TO.P,U1,3,+*%
%TO.N,Net-(U1-+)*%
X116205000Y-115448000D03*
%TO.P,U1,4,V-*%
%TO.N,unconnected-(U1-V--Pad4)*%
X114935000Y-115448000D03*
%TO.P,U1,5,NULL*%
%TO.N,unconnected-(U1-NULL-Pad5)*%
X114935000Y-120348000D03*
%TO.P,U1,6*%
%TO.N,Net-(A1-A6)*%
X116205000Y-120348000D03*
%TO.P,U1,7,V+*%
%TO.N,unconnected-(U1-V+-Pad7)*%
X117475000Y-120348000D03*
%TO.P,U1,8,NC*%
%TO.N,unconnected-(U1-NC-Pad8)*%
X118745000Y-120348000D03*
%TD*%
D15*
%TO.P,J3,1,Pos*%
%TO.N,Net-(J3-Pos)*%
X102220000Y-92200000D03*
D16*
X102220000Y-92200000D03*
D15*
%TO.P,J3,2,Neg*%
%TO.N,GND*%
X102220000Y-80230000D03*
%TD*%
D17*
%TO.P,R6,1*%
%TO.N,Net-(U3-VFB)*%
X143774396Y-106807000D03*
%TO.P,R6,2*%
%TO.N,GND*%
X155974396Y-106807000D03*
%TD*%
D18*
%TO.P,U4,1*%
%TO.N,N/C*%
X154432000Y-111252000D03*
%TO.P,U4,2,VS*%
%TO.N,Net-(A1-+5V)*%
X151892000Y-111252000D03*
%TO.P,U4,3,GND*%
%TO.N,GND*%
X149352000Y-111252000D03*
%TO.P,U4,4,VOUT*%
%TO.N,Net-(A1-A2)*%
X146812000Y-111252000D03*
%TO.P,U4,5*%
%TO.N,N/C*%
X146812000Y-128012000D03*
%TO.P,U4,6*%
X149352000Y-128012000D03*
%TO.P,U4,7*%
X151892000Y-128012000D03*
%TO.P,U4,8*%
X154432000Y-128012000D03*
%TD*%
D19*
%TO.P,J1,1,Pin_1*%
%TO.N,Net-(J1-Pin_1)*%
X161738000Y-97836000D03*
D20*
%TO.P,J1,2,Pin_2*%
%TO.N,Net-(J1-Pin_2)*%
X159238000Y-97836000D03*
%TO.P,J1,3,Pin_3*%
%TO.N,GND*%
X156738000Y-97836000D03*
%TO.P,J1,4,Pin_4*%
%TO.N,Net-(J1-Pin_4)*%
X154238000Y-97836000D03*
%TD*%
D10*
%TO.P,C1,1*%
%TO.N,Net-(J1-Pin_4)*%
X158394396Y-85947000D03*
D11*
%TO.P,C1,2*%
%TO.N,GND*%
X158394396Y-81947000D03*
%TD*%
D21*
%TO.P,U2,1,vcc*%
%TO.N,Net-(A1-3V3)*%
X106704000Y-100190000D03*
%TO.P,U2,2,ground*%
%TO.N,GND*%
X108304000Y-100190000D03*
%TO.P,U2,3,vout*%
%TO.N,Net-(A1-A7)*%
X109904000Y-100190000D03*
D22*
%TO.P,U2,4,NC*%
%TO.N,GND*%
X111004000Y-97890000D03*
D23*
%TO.P,U2,5,IP+*%
%TO.N,Net-(J4-Pos)*%
X109704000Y-95440000D03*
%TO.P,U2,6,IP-*%
%TO.N,Net-(J3-Pos)*%
X106704000Y-95440000D03*
D22*
%TO.P,U2,7,NC*%
%TO.N,GND*%
X105404000Y-97890000D03*
%TD*%
D17*
%TO.P,R5,1*%
%TO.N,Net-(J1-Pin_4)*%
X145694396Y-89647000D03*
%TO.P,R5,2*%
%TO.N,Net-(U3-VFB)*%
X145694396Y-101847000D03*
%TD*%
D24*
%TO.P,Q1,1,C*%
%TO.N,Net-(J1-Pin_4)*%
X150774396Y-80457000D03*
%TO.P,Q1,2,B*%
%TO.N,Net-(Q1-B)*%
X150774396Y-82357000D03*
%TO.P,Q1,3,E*%
%TO.N,Net-(A1-+5V)*%
X152649396Y-81407000D03*
%TD*%
D17*
%TO.P,R2,1*%
%TO.N,Net-(J4-Pos)*%
X107213000Y-103755000D03*
%TO.P,R2,2*%
%TO.N,Net-(U1-+)*%
X107213000Y-115955000D03*
%TD*%
D10*
%TO.P,C5,1*%
%TO.N,Net-(U1-+)*%
X109195000Y-119733000D03*
D11*
%TO.P,C5,2*%
%TO.N,GND*%
X109195000Y-123733000D03*
%TD*%
D25*
%TO.P,U3,1,VSUP*%
%TO.N,Net-(A1-+5V)*%
X145654396Y-85852000D03*
%TO.P,U3,2,BASE*%
%TO.N,Net-(Q1-B)*%
X145654396Y-84582000D03*
%TO.P,U3,3,AVDD*%
%TO.N,Net-(J1-Pin_4)*%
X145654396Y-83312000D03*
%TO.P,U3,4,VFB*%
%TO.N,Net-(U3-VFB)*%
X145654396Y-82042000D03*
%TO.P,U3,5,AGND*%
%TO.N,GND*%
X145654396Y-80772000D03*
%TO.P,U3,6,VBG*%
%TO.N,Net-(U3-VBG)*%
X145654396Y-79502000D03*
%TO.P,U3,7,INA-*%
%TO.N,Net-(U3-INA-)*%
X145654396Y-78232000D03*
%TO.P,U3,8,INA+*%
%TO.N,Net-(U3-INA+)*%
X145654396Y-76962000D03*
%TO.P,U3,9,INB-*%
%TO.N,GND*%
X140654396Y-76962000D03*
%TO.P,U3,10,INB+*%
X140654396Y-78232000D03*
%TO.P,U3,11,PD_SCK*%
%TO.N,Net-(A1-A1)*%
X140654396Y-79502000D03*
%TO.P,U3,12,DOUT*%
%TO.N,Net-(A1-A0)*%
X140654396Y-80772000D03*
%TO.P,U3,13,XO*%
%TO.N,unconnected-(U3-XO-Pad13)*%
X140654396Y-82042000D03*
%TO.P,U3,14,XI*%
%TO.N,GND*%
X140654396Y-83312000D03*
%TO.P,U3,15,RATE*%
X140654396Y-84582000D03*
%TO.P,U3,16,DVDD*%
%TO.N,Net-(A1-+5V)*%
X140654396Y-85852000D03*
%TD*%
D15*
%TO.P,J4,1,Pos*%
%TO.N,Net-(J4-Pos)*%
X114220000Y-92200000D03*
D16*
X114220000Y-92200000D03*
D15*
%TO.P,J4,2,Neg*%
%TO.N,GND*%
X114220000Y-80230000D03*
%TD*%
D10*
%TO.P,C3,1*%
%TO.N,GND*%
X155314396Y-76327000D03*
D11*
%TO.P,C3,2*%
%TO.N,Net-(U3-VBG)*%
X151314396Y-76327000D03*
%TD*%
D17*
%TO.P,R1,1*%
%TO.N,Net-(J1-Pin_2)*%
X165100000Y-115839000D03*
%TO.P,R1,2*%
%TO.N,Net-(U3-INA-)*%
X165100000Y-103639000D03*
%TD*%
D19*
%TO.P,J2,1,Pin_1*%
%TO.N,Net-(A1-3V3)*%
X134580000Y-76200000D03*
D20*
%TO.P,J2,2,Pin_2*%
%TO.N,Net-(A1-D4)*%
X132080000Y-76200000D03*
%TO.P,J2,3,Pin_3*%
%TO.N,Net-(A1-D8)*%
X129580000Y-76200000D03*
%TO.P,J2,4,Pin_4*%
%TO.N,Net-(A1-D10)*%
X127080000Y-76200000D03*
%TO.P,J2,5,Pin_5*%
%TO.N,Net-(A1-D9)*%
X124580000Y-76200000D03*
%TO.P,J2,6,Pin_6*%
%TO.N,GND*%
X122080000Y-76200000D03*
%TD*%
D17*
%TO.P,R4,1*%
%TO.N,Net-(J1-Pin_1)*%
X164084000Y-80884000D03*
%TO.P,R4,2*%
%TO.N,Net-(U3-INA+)*%
X164084000Y-93084000D03*
%TD*%
D10*
%TO.P,C6,1*%
%TO.N,Net-(A1-+5V)*%
X150774396Y-86487000D03*
D11*
%TO.P,C6,2*%
%TO.N,GND*%
X150774396Y-90487000D03*
%TD*%
D17*
%TO.P,R3,1*%
%TO.N,Net-(U1-+)*%
X111227000Y-116082000D03*
%TO.P,R3,2*%
%TO.N,GND*%
X111227000Y-103882000D03*
%TD*%
D26*
%TO.N,*%
X167420942Y-75619358D03*
X167386000Y-128778000D03*
X99568000Y-128524000D03*
X98425000Y-74422000D03*
D27*
%TO.N,Net-(A1-+5V)*%
X140106396Y-87503000D03*
X152400000Y-114300000D03*
X145694396Y-87503000D03*
D28*
%TO.N,GND*%
X112395000Y-97917000D03*
%TO.N,Net-(A1-D8)*%
X126111000Y-96901000D03*
%TO.N,Net-(A1-D9)*%
X124587000Y-105410000D03*
%TO.N,Net-(A1-D4)*%
X123698000Y-98298000D03*
%TD*%
D29*
%TO.N,Net-(A1-+5V)*%
X146289396Y-86487000D02*
X150774396Y-86487000D01*
X140106396Y-87503000D02*
X140106396Y-89551604D01*
X145654396Y-85852000D02*
X146289396Y-86487000D01*
X146289396Y-86908000D02*
X146289396Y-86487000D01*
X140106396Y-86400000D02*
X140654396Y-85852000D01*
X152649396Y-81407000D02*
X152649396Y-84612000D01*
X150774396Y-86487000D02*
X152649396Y-84612000D01*
X140106396Y-89551604D02*
X137160000Y-92498000D01*
X151892000Y-113792000D02*
X152400000Y-114300000D01*
X151892000Y-111252000D02*
X151892000Y-113792000D01*
X140106396Y-87503000D02*
X140106396Y-86400000D01*
X145694396Y-87503000D02*
X146289396Y-86908000D01*
%TO.N,Net-(J1-Pin_4)*%
X149824396Y-80457000D02*
X146969396Y-83312000D01*
X158394396Y-85947000D02*
X154238000Y-90103396D01*
X145694396Y-89647000D02*
X144354396Y-88307000D01*
X145288000Y-83312000D02*
X145654396Y-83312000D01*
X150774396Y-80457000D02*
X153888396Y-80457000D01*
X153888396Y-80457000D02*
X154838396Y-81407000D01*
X154238000Y-90103396D02*
X154238000Y-97836000D01*
X144354396Y-88307000D02*
X144354396Y-84245604D01*
X154838396Y-81407000D02*
X154838396Y-82391000D01*
X146969396Y-83312000D02*
X145654396Y-83312000D01*
X154838396Y-82391000D02*
X158394396Y-85947000D01*
X144354396Y-84245604D02*
X145288000Y-83312000D01*
X150774396Y-80457000D02*
X149824396Y-80457000D01*
%TO.N,Net-(U3-VFB)*%
X145694396Y-101847000D02*
X143954396Y-100107000D01*
X145288000Y-82042000D02*
X145654396Y-82042000D01*
X143774396Y-103767000D02*
X145694396Y-101847000D01*
X143954396Y-100107000D02*
X143954396Y-83375604D01*
X143954396Y-83375604D02*
X145288000Y-82042000D01*
X143774396Y-106807000D02*
X143774396Y-103767000D01*
%TO.N,GND*%
X140654396Y-84582000D02*
X139996000Y-84582000D01*
X111227000Y-103882000D02*
X108304000Y-100959000D01*
X140654396Y-76962000D02*
X140654396Y-78232000D01*
X149352000Y-111252000D02*
X153797000Y-106807000D01*
X108304000Y-100190000D02*
X110604000Y-97890000D01*
X140654396Y-83312000D02*
X140288000Y-83312000D01*
X140654396Y-83312000D02*
X140654396Y-84582000D01*
X112241000Y-97890000D02*
X112395000Y-97917000D01*
X145288000Y-80772000D02*
X145654396Y-80772000D01*
X140288000Y-78232000D02*
X140654396Y-78232000D01*
X139354396Y-82378396D02*
X139354396Y-79165604D01*
X139996000Y-84582000D02*
X137160000Y-87418000D01*
X106004000Y-97890000D02*
X105404000Y-97890000D01*
X112395000Y-97917000D02*
X112268000Y-97917000D01*
X153797000Y-106807000D02*
X155974396Y-106807000D01*
X111004000Y-97890000D02*
X112241000Y-97890000D01*
X140288000Y-83312000D02*
X139354396Y-82378396D01*
X142748000Y-78232000D02*
X145288000Y-80772000D01*
X110604000Y-97890000D02*
X111004000Y-97890000D01*
X140654396Y-78232000D02*
X142748000Y-78232000D01*
X108304000Y-100959000D02*
X108304000Y-100190000D01*
X108304000Y-100190000D02*
X106004000Y-97890000D01*
X139354396Y-79165604D02*
X140288000Y-78232000D01*
%TO.N,Net-(U3-VBG)*%
X151314396Y-76327000D02*
X148139396Y-79502000D01*
X148139396Y-79502000D02*
X145654396Y-79502000D01*
%TO.N,Net-(U3-INA-)*%
X158991164Y-73387000D02*
X146094396Y-73387000D01*
X165100000Y-103639000D02*
X167132000Y-101607000D01*
X145288000Y-78232000D02*
X145654396Y-78232000D01*
X167132000Y-100584000D02*
X169545000Y-98171000D01*
X144618000Y-77562000D02*
X145288000Y-78232000D01*
X144354396Y-75127000D02*
X144354396Y-77302552D01*
X169545000Y-98171000D02*
X169545000Y-83940836D01*
X146094396Y-73387000D02*
X144354396Y-75127000D01*
X144354396Y-77302552D02*
X144613844Y-77562000D01*
X167132000Y-101607000D02*
X167132000Y-100584000D01*
X169545000Y-83940836D02*
X158991164Y-73387000D01*
X144613844Y-77562000D02*
X144618000Y-77562000D01*
%TO.N,Net-(U3-INA+)*%
X148829396Y-73787000D02*
X145654396Y-76962000D01*
X165384000Y-80345522D02*
X160730478Y-75692000D01*
X164084000Y-93536000D02*
X164084000Y-93084000D01*
X158394396Y-73787000D02*
X148829396Y-73787000D01*
X164084000Y-93084000D02*
X165384000Y-91784000D01*
X160730478Y-75692000D02*
X160299396Y-75692000D01*
X167132000Y-96584000D02*
X164084000Y-93536000D01*
X160299396Y-75692000D02*
X158394396Y-73787000D01*
X165384000Y-91784000D02*
X165384000Y-80345522D01*
%TO.N,Net-(A1-A1)*%
X138684000Y-101778365D02*
X138684000Y-105569635D01*
X140654396Y-79502000D02*
X141020792Y-79502000D01*
X142354396Y-80835604D02*
X142354396Y-98107969D01*
X136060000Y-109178000D02*
X137160000Y-110278000D01*
X142354396Y-98107969D02*
X138684000Y-101778365D01*
X136704365Y-106638000D02*
X136060000Y-107282365D01*
X136060000Y-107282365D02*
X136060000Y-109178000D01*
X138684000Y-105569635D02*
X137615635Y-106638000D01*
X141020792Y-79502000D02*
X142354396Y-80835604D01*
X137615635Y-106638000D02*
X136704365Y-106638000D01*
%TO.N,Net-(A1-A0)*%
X141020792Y-80772000D02*
X141954396Y-81705604D01*
X141954396Y-94339239D02*
X137615635Y-98678000D01*
X141954396Y-81705604D02*
X141954396Y-94339239D01*
X137044365Y-98678000D02*
X135636000Y-100086365D01*
X135636000Y-111294000D02*
X137160000Y-112818000D01*
X137615635Y-98678000D02*
X137044365Y-98678000D01*
X140654396Y-80772000D02*
X141020792Y-80772000D01*
X135636000Y-100086365D02*
X135636000Y-111294000D01*
%TO.N,Net-(A1-A6)*%
X117475000Y-116148000D02*
X116205000Y-117418000D01*
X133180000Y-101558000D02*
X137160000Y-97578000D01*
X119803000Y-101558000D02*
X133180000Y-101558000D01*
X117475000Y-115448000D02*
X117475000Y-103886000D01*
X117475000Y-103886000D02*
X119803000Y-101558000D01*
X117475000Y-115448000D02*
X117475000Y-116148000D01*
X116205000Y-117418000D02*
X116205000Y-120348000D01*
%TO.N,Net-(A1-A7)*%
X131064000Y-99018000D02*
X135044000Y-95038000D01*
X109904000Y-100190000D02*
X117752365Y-100190000D01*
X117752365Y-100190000D02*
X118924365Y-99018000D01*
X118924365Y-99018000D02*
X131064000Y-99018000D01*
X135044000Y-95038000D02*
X137160000Y-95038000D01*
%TO.N,Net-(J4-Pos)*%
X107929000Y-97215000D02*
X109704000Y-95440000D01*
X107213000Y-103755000D02*
X104404000Y-100946000D01*
X104689571Y-97215000D02*
X107929000Y-97215000D01*
X104404000Y-97500571D02*
X104689571Y-97215000D01*
X104404000Y-100946000D02*
X104404000Y-97500571D01*
%TO.N,Net-(U1-+)*%
X109372000Y-117937000D02*
X111227000Y-116082000D01*
X116205000Y-115448000D02*
X116205000Y-116148000D01*
X114935000Y-113284000D02*
X116205000Y-114554000D01*
X116205000Y-114554000D02*
X116205000Y-115448000D01*
X109195000Y-117937000D02*
X109195000Y-119733000D01*
X111227000Y-116082000D02*
X114025000Y-113284000D01*
X109195000Y-117937000D02*
X109372000Y-117937000D01*
X107213000Y-115955000D02*
X109195000Y-117937000D01*
X114025000Y-113284000D02*
X114935000Y-113284000D01*
%TO.N,Net-(A1-3V3)*%
X129325000Y-125733000D02*
X137160000Y-117898000D01*
X108513000Y-101999000D02*
X108513000Y-111197000D01*
X108513000Y-111197000D02*
X105410000Y-114300000D01*
X105410000Y-123190000D02*
X107953000Y-125733000D01*
X106704000Y-100190000D02*
X108513000Y-101999000D01*
X105410000Y-114300000D02*
X105410000Y-123190000D01*
X107953000Y-125733000D02*
X129325000Y-125733000D01*
%TO.N,Net-(A1-A2)*%
X146812000Y-111252000D02*
X140674000Y-111252000D01*
X140674000Y-111252000D02*
X137160000Y-107738000D01*
%TO.N,Net-(J1-Pin_2)*%
X163068000Y-111887000D02*
X159238000Y-108057000D01*
X163068000Y-113807000D02*
X163068000Y-111887000D01*
X165100000Y-115839000D02*
X163068000Y-113807000D01*
X159238000Y-108057000D02*
X159238000Y-97836000D01*
%TO.N,Net-(J1-Pin_1)*%
X161738000Y-97836000D02*
X161738000Y-83230000D01*
X161738000Y-83230000D02*
X164084000Y-80884000D01*
%TO.N,Net-(Q1-B)*%
X150774396Y-82357000D02*
X149824396Y-82357000D01*
X147599396Y-84582000D02*
X145654396Y-84582000D01*
X149824396Y-82357000D02*
X147599396Y-84582000D01*
%TO.N,Net-(A1-D8)*%
X129580000Y-93305000D02*
X126111000Y-96901000D01*
X129580000Y-76200000D02*
X129580000Y-93305000D01*
X126111000Y-96901000D02*
X126111000Y-96774000D01*
%TO.N,Net-(A1-D9)*%
X124587000Y-105410000D02*
X124587000Y-110151000D01*
X124587000Y-110151000D02*
X121920000Y-112818000D01*
%TO.N,Net-(A1-D4)*%
X125857000Y-98298000D02*
X132080000Y-92075000D01*
X123698000Y-98298000D02*
X125857000Y-98298000D01*
X132080000Y-92075000D02*
X132080000Y-76200000D01*
%TD*%
%TA.AperFunction,Conductor*%
%TO.N,Net-(A1-A2)*%
G36*
X146059711Y-110499701D02*
G01*
X146804710Y-111243721D01*
X146808142Y-111251992D01*
X146804721Y-111260268D01*
X146804710Y-111260279D01*
X146059711Y-112004298D01*
X146051435Y-112007719D01*
X146043771Y-112004853D01*
X145296028Y-111355498D01*
X145292029Y-111347486D01*
X145292000Y-111346664D01*
X145292000Y-111157336D01*
X145295427Y-111149063D01*
X145296028Y-111148502D01*
X146043771Y-110499146D01*
X146052265Y-110496309D01*
X146059711Y-110499701D01*
G37*
%TD.AperFunction*%
%TD*%
%TA.AperFunction,Conductor*%
%TO.N,Net-(A1-A6)*%
G36*
X117577011Y-114151427D02*
G01*
X117578473Y-114153210D01*
X117771948Y-114443422D01*
X117773686Y-114452207D01*
X117773420Y-114453271D01*
X117486207Y-115411605D01*
X117480550Y-115418546D01*
X117471641Y-115419453D01*
X117464700Y-115413796D01*
X117463793Y-115411605D01*
X117380801Y-115134689D01*
X117176579Y-114453269D01*
X117177486Y-114444362D01*
X117178041Y-114443437D01*
X117371526Y-114153210D01*
X117378967Y-114148227D01*
X117381262Y-114148000D01*
X117568738Y-114148000D01*
X117577011Y-114151427D01*
G37*
%TD.AperFunction*%
%TD*%
%TA.AperFunction,Conductor*%
%TO.N,Net-(A1-A6)*%
G36*
X116307011Y-119051427D02*
G01*
X116308473Y-119053210D01*
X116501948Y-119343422D01*
X116503686Y-119352207D01*
X116503420Y-119353271D01*
X116216207Y-120311605D01*
X116210550Y-120318546D01*
X116201641Y-120319453D01*
X116194700Y-120313796D01*
X116193793Y-120311605D01*
X116110801Y-120034689D01*
X115906579Y-119353269D01*
X115907486Y-119344362D01*
X115908041Y-119343437D01*
X116101526Y-119053210D01*
X116108967Y-119048227D01*
X116111262Y-119048000D01*
X116298738Y-119048000D01*
X116307011Y-119051427D01*
G37*
%TD.AperFunction*%
%TD*%
%TA.AperFunction,Conductor*%
%TO.N,Net-(U1-+)*%
G36*
X108965720Y-117567629D02*
G01*
X108966334Y-117568292D01*
X110072470Y-118859975D01*
X110075248Y-118868488D01*
X110071768Y-118875945D01*
X109201766Y-119727773D01*
X109193458Y-119731112D01*
X109188182Y-119729793D01*
X108111783Y-119169956D01*
X108106025Y-119163098D01*
X108106668Y-119154443D01*
X108815835Y-117701865D01*
X108818071Y-117698732D01*
X108949175Y-117567628D01*
X108957447Y-117564202D01*
X108965720Y-117567629D01*
G37*
%TD.AperFunction*%
%TD*%
%TA.AperFunction,Conductor*%
%TO.N,Net-(A1-A1)*%
G36*
X136161695Y-109134161D02*
G01*
X137453901Y-109535096D01*
X137460787Y-109540820D01*
X137461608Y-109549737D01*
X137461246Y-109550742D01*
X137161856Y-110274510D01*
X137155527Y-110280845D01*
X137155509Y-110280853D01*
X136432658Y-110579290D01*
X136423703Y-110579279D01*
X136417378Y-110572940D01*
X136417042Y-110572018D01*
X136322510Y-110274510D01*
X135964843Y-109148876D01*
X135965604Y-109139956D01*
X135972451Y-109134184D01*
X135975994Y-109133635D01*
X136158228Y-109133635D01*
X136161695Y-109134161D01*
G37*
%TD.AperFunction*%
%TD*%
%TA.AperFunction,Conductor*%
%TO.N,GND*%
G36*
X138222709Y-86218843D02*
G01*
X138225800Y-86221060D01*
X138356939Y-86352199D01*
X138360366Y-86360472D01*
X138359748Y-86364226D01*
X137903109Y-87712321D01*
X137897209Y-87719057D01*
X137888273Y-87719649D01*
X137887568Y-87719384D01*
X137606586Y-87603377D01*
X137163787Y-87420562D01*
X137157448Y-87414237D01*
X137157437Y-87414212D01*
X136858617Y-86690434D01*
X136858628Y-86681482D01*
X136864967Y-86675157D01*
X136865663Y-86674895D01*
X138213774Y-86218251D01*
X138222709Y-86218843D01*
G37*
%TD.AperFunction*%
%TD*%
%TA.AperFunction,Conductor*%
%TO.N,GND*%
G36*
X140756407Y-83985427D02*
G01*
X140757869Y-83987210D01*
X140949084Y-84274032D01*
X140950822Y-84282817D01*
X140947636Y-84288781D01*
X140662683Y-84574685D01*
X140654415Y-84578126D01*
X140646137Y-84574713D01*
X140646109Y-84574685D01*
X140361155Y-84288781D01*
X140357742Y-84280503D01*
X140359706Y-84274034D01*
X140550922Y-83987210D01*
X140558363Y-83982227D01*
X140560658Y-83982000D01*
X140748134Y-83982000D01*
X140756407Y-83985427D01*
G37*
%TD.AperFunction*%
%TD*%
%TA.AperFunction,Conductor*%
%TO.N,Net-(A1-+5V)*%
G36*
X146382732Y-86752884D02*
G01*
X146386159Y-86761157D01*
X146385819Y-86763959D01*
X146159590Y-87681149D01*
X146154281Y-87688361D01*
X146145428Y-87689707D01*
X146143773Y-87689165D01*
X145698893Y-87505853D01*
X145692549Y-87499532D01*
X145507478Y-87051766D01*
X145507486Y-87042811D01*
X145513715Y-87036530D01*
X146187202Y-86750388D01*
X146191777Y-86749457D01*
X146374459Y-86749457D01*
X146382732Y-86752884D01*
G37*
%TD.AperFunction*%
%TD*%
%TA.AperFunction,Conductor*%
%TO.N,Net-(U3-INA+)*%
G36*
X165593252Y-94898994D02*
G01*
X167256020Y-95301344D01*
X167263254Y-95306620D01*
X167264904Y-95313926D01*
X167133685Y-96575302D01*
X167129421Y-96583176D01*
X167123305Y-96585723D01*
X165866641Y-96721561D01*
X165858048Y-96719043D01*
X165854019Y-96712705D01*
X165447011Y-95045263D01*
X165448378Y-95036416D01*
X165450100Y-95034222D01*
X165582229Y-94902093D01*
X165590501Y-94898667D01*
X165593252Y-94898994D01*
G37*
%TD.AperFunction*%
%TD*%
%TA.AperFunction,Conductor*%
%TO.N,GND*%
G36*
X112278935Y-97643821D02*
G01*
X112284306Y-97649676D01*
X112394115Y-97912489D01*
X112394142Y-97921444D01*
X112394115Y-97921511D01*
X112284735Y-98183297D01*
X112278383Y-98189609D01*
X112269428Y-98189582D01*
X112269358Y-98189552D01*
X111807490Y-97993029D01*
X111801219Y-97986637D01*
X111800371Y-97982263D01*
X111800371Y-97798597D01*
X111803798Y-97790324D01*
X111808573Y-97787432D01*
X112270017Y-97643021D01*
X112278935Y-97643821D01*
G37*
%TD.AperFunction*%
%TD*%
%TA.AperFunction,Conductor*%
%TO.N,Net-(J1-Pin_1)*%
G36*
X163171795Y-80506140D02*
G01*
X164080215Y-80881437D01*
X164086553Y-80887764D01*
X164086562Y-80887784D01*
X164461855Y-81796194D01*
X164461846Y-81805148D01*
X164455508Y-81811475D01*
X164454658Y-81811788D01*
X162747316Y-82366707D01*
X162738388Y-82366005D01*
X162735426Y-82363853D01*
X162604146Y-82232573D01*
X162600719Y-82224300D01*
X162601291Y-82220686D01*
X163156212Y-80513339D01*
X163162027Y-80506533D01*
X163170955Y-80505831D01*
X163171795Y-80506140D01*
G37*
%TD.AperFunction*%
%TD*%
%TA.AperFunction,Conductor*%
%TO.N,Net-(A1-D9)*%
G36*
X124853851Y-105520496D02*
G01*
X124860163Y-105526848D01*
X124860330Y-105535305D01*
X124689807Y-106002313D01*
X124683751Y-106008909D01*
X124678817Y-106010000D01*
X124495183Y-106010000D01*
X124486910Y-106006573D01*
X124484193Y-106002313D01*
X124313669Y-105535302D01*
X124314050Y-105526358D01*
X124320147Y-105520496D01*
X124582490Y-105410883D01*
X124591444Y-105410857D01*
X124853851Y-105520496D01*
G37*
%TD.AperFunction*%
%TD*%
%TA.AperFunction,Conductor*%
%TO.N,GND*%
G36*
X111594173Y-97532418D02*
G01*
X112072789Y-97786700D01*
X112078488Y-97793608D01*
X112079000Y-97797032D01*
X112079000Y-97982967D01*
X112075573Y-97991240D01*
X112072789Y-97993299D01*
X111594173Y-98247581D01*
X111585260Y-98248437D01*
X111582545Y-98247209D01*
X111167254Y-97991240D01*
X111019158Y-97899959D01*
X111013914Y-97892702D01*
X111015338Y-97883861D01*
X111019159Y-97880040D01*
X111582547Y-97532789D01*
X111591386Y-97531366D01*
X111594173Y-97532418D01*
G37*
%TD.AperFunction*%
%TD*%
%TA.AperFunction,Conductor*%
%TO.N,Net-(J1-Pin_4)*%
G36*
X156890629Y-84296994D02*
G01*
X158218230Y-84626732D01*
X158567287Y-84713429D01*
X158574490Y-84718749D01*
X158576041Y-84726499D01*
X158396355Y-85939253D01*
X158391752Y-85946934D01*
X158386668Y-85949085D01*
X157190120Y-86144639D01*
X157181403Y-86142591D01*
X157176897Y-86135988D01*
X157129147Y-85949085D01*
X156744447Y-84443278D01*
X156745719Y-84434415D01*
X156747506Y-84432114D01*
X156879544Y-84300076D01*
X156887816Y-84296650D01*
X156890629Y-84296994D01*
G37*
%TD.AperFunction*%
%TD*%
%TA.AperFunction,Conductor*%
%TO.N,Net-(A1-A7)*%
G36*
X136858330Y-94309733D02*
G01*
X136858644Y-94310425D01*
X137159134Y-95033510D01*
X137159144Y-95042463D01*
X137159135Y-95042485D01*
X137159134Y-95042490D01*
X136858644Y-95765574D01*
X136852305Y-95771899D01*
X136843350Y-95771888D01*
X136842658Y-95771574D01*
X135566518Y-95141219D01*
X135560618Y-95134483D01*
X135560000Y-95130729D01*
X135560000Y-94945270D01*
X135563427Y-94936997D01*
X135566516Y-94934781D01*
X136842659Y-94304424D01*
X136851594Y-94303833D01*
X136858330Y-94309733D01*
G37*
%TD.AperFunction*%
%TD*%
%TA.AperFunction,Conductor*%
%TO.N,Net-(U3-VFB)*%
G36*
X144782191Y-101469140D02*
G01*
X145690611Y-101844437D01*
X145696949Y-101850764D01*
X145696958Y-101850784D01*
X146072251Y-102759194D01*
X146072242Y-102768148D01*
X146065904Y-102774475D01*
X146065054Y-102774788D01*
X144357712Y-103329707D01*
X144348784Y-103329005D01*
X144345822Y-103326853D01*
X144214542Y-103195573D01*
X144211115Y-103187300D01*
X144211687Y-103183686D01*
X144766608Y-101476339D01*
X144772423Y-101469533D01*
X144781351Y-101468831D01*
X144782191Y-101469140D01*
G37*
%TD.AperFunction*%
%TD*%
%TA.AperFunction,Conductor*%
%TO.N,GND*%
G36*
X108870254Y-99478353D02*
G01*
X108875782Y-99481453D01*
X109009096Y-99614767D01*
X109012523Y-99623040D01*
X109011439Y-99627959D01*
X108683710Y-100335165D01*
X108677122Y-100341231D01*
X108668641Y-100341066D01*
X108313368Y-100194853D01*
X108307022Y-100188535D01*
X108306712Y-100180363D01*
X108559872Y-99414498D01*
X108565721Y-99407721D01*
X108573722Y-99406799D01*
X108870254Y-99478353D01*
G37*
%TD.AperFunction*%
%TD*%
%TA.AperFunction,Conductor*%
%TO.N,Net-(A1-3V3)*%
G36*
X136432414Y-117596608D02*
G01*
X137156212Y-117895437D01*
X137162551Y-117901762D01*
X137162562Y-117901787D01*
X137461382Y-118625562D01*
X137461371Y-118634517D01*
X137455032Y-118640842D01*
X137454321Y-118641109D01*
X136106226Y-119097748D01*
X136097290Y-119097156D01*
X136094199Y-119094939D01*
X135963060Y-118963800D01*
X135959633Y-118955527D01*
X135960251Y-118951773D01*
X136065482Y-118641109D01*
X136416890Y-117603677D01*
X136422790Y-117596942D01*
X136431726Y-117596350D01*
X136432414Y-117596608D01*
G37*
%TD.AperFunction*%
%TD*%
%TA.AperFunction,Conductor*%
%TO.N,Net-(A1-+5V)*%
G36*
X152287010Y-84838327D02*
G01*
X152289248Y-84840077D01*
X152421281Y-84972110D01*
X152424708Y-84980383D01*
X152424344Y-84983279D01*
X151991893Y-86675989D01*
X151986525Y-86683157D01*
X151978670Y-86684640D01*
X150782123Y-86489085D01*
X150774511Y-86484368D01*
X150772436Y-86479253D01*
X150592750Y-85266499D01*
X150594928Y-85257813D01*
X150601504Y-85253429D01*
X152278157Y-84836995D01*
X152287010Y-84838327D01*
G37*
%TD.AperFunction*%
%TD*%
%TA.AperFunction,Conductor*%
%TO.N,Net-(J1-Pin_2)*%
G36*
X163763314Y-114356291D02*
G01*
X165470659Y-114911212D01*
X165477466Y-114917027D01*
X165478168Y-114925955D01*
X165477855Y-114926805D01*
X165102562Y-115835215D01*
X165096235Y-115841553D01*
X165096215Y-115841562D01*
X164187805Y-116216855D01*
X164178851Y-116216846D01*
X164172524Y-116210508D01*
X164172216Y-116209672D01*
X163617292Y-114502315D01*
X163617994Y-114493388D01*
X163620143Y-114490429D01*
X163751427Y-114359145D01*
X163759699Y-114355719D01*
X163763314Y-114356291D01*
G37*
%TD.AperFunction*%
%TD*%
%TA.AperFunction,Conductor*%
%TO.N,Net-(J1-Pin_2)*%
G36*
X159243830Y-97838350D02*
G01*
X160013736Y-98280786D01*
X160019201Y-98287879D01*
X160018377Y-98296150D01*
X159341230Y-99654520D01*
X159334472Y-99660395D01*
X159330759Y-99661000D01*
X159145241Y-99661000D01*
X159136968Y-99657573D01*
X159134770Y-99654520D01*
X158457622Y-98296150D01*
X158456998Y-98287217D01*
X158462261Y-98280787D01*
X159232170Y-97838349D01*
X159241051Y-97837199D01*
X159243830Y-97838350D01*
G37*
%TD.AperFunction*%
%TD*%
%TA.AperFunction,Conductor*%
%TO.N,Net-(U1-+)*%
G36*
X108134148Y-115577153D02*
G01*
X108140475Y-115583491D01*
X108140788Y-115584341D01*
X108695707Y-117291683D01*
X108695005Y-117300611D01*
X108692853Y-117303573D01*
X108561573Y-117434853D01*
X108553300Y-117438280D01*
X108549683Y-117437707D01*
X106842341Y-116882788D01*
X106835533Y-116876972D01*
X106834831Y-116868044D01*
X106835136Y-116867213D01*
X107210438Y-115958782D01*
X107216764Y-115952446D01*
X107216767Y-115952444D01*
X108125196Y-115577144D01*
X108134148Y-115577153D01*
G37*
%TD.AperFunction*%
%TD*%
%TA.AperFunction,Conductor*%
%TO.N,Net-(A1-+5V)*%
G36*
X151898003Y-111263755D02*
G01*
X151902041Y-111267793D01*
X152647649Y-112514724D01*
X152648953Y-112523583D01*
X152646441Y-112528400D01*
X151995498Y-113277972D01*
X151987486Y-113281971D01*
X151986664Y-113282000D01*
X151797336Y-113282000D01*
X151789063Y-113278573D01*
X151788502Y-113277972D01*
X151137558Y-112528400D01*
X151134721Y-112519906D01*
X151136349Y-112514726D01*
X151881959Y-111267790D01*
X151889144Y-111262451D01*
X151898003Y-111263755D01*
G37*
%TD.AperFunction*%
%TD*%
%TA.AperFunction,Conductor*%
%TO.N,Net-(J1-Pin_4)*%
G36*
X154339032Y-96014427D02*
G01*
X154341230Y-96017480D01*
X155018377Y-97375849D01*
X155019001Y-97384782D01*
X155013736Y-97391213D01*
X154243830Y-97833649D01*
X154234949Y-97834800D01*
X154232170Y-97833649D01*
X153462263Y-97391213D01*
X153456798Y-97384120D01*
X153457622Y-97375849D01*
X154134770Y-96017480D01*
X154141528Y-96011605D01*
X154145241Y-96011000D01*
X154330759Y-96011000D01*
X154339032Y-96014427D01*
G37*
%TD.AperFunction*%
%TD*%
%TA.AperFunction,Conductor*%
%TO.N,Net-(U3-INA-)*%
G36*
X166445611Y-102156994D02*
G01*
X166448573Y-102159146D01*
X166579853Y-102290426D01*
X166583280Y-102298699D01*
X166582707Y-102302316D01*
X166027788Y-104009658D01*
X166021972Y-104016466D01*
X166013044Y-104017168D01*
X166012194Y-104016855D01*
X165103784Y-103641562D01*
X165097446Y-103635235D01*
X165097437Y-103635215D01*
X164722144Y-102726805D01*
X164722153Y-102717851D01*
X164728491Y-102711524D01*
X164729318Y-102711219D01*
X166436684Y-102156292D01*
X166445611Y-102156994D01*
G37*
%TD.AperFunction*%
%TD*%
%TA.AperFunction,Conductor*%
%TO.N,Net-(A1-A7)*%
G36*
X110287081Y-99820926D02*
G01*
X110649220Y-100086494D01*
X110653864Y-100094149D01*
X110654000Y-100095928D01*
X110654000Y-100284071D01*
X110650573Y-100292344D01*
X110649219Y-100293506D01*
X110287083Y-100559072D01*
X110278385Y-100561201D01*
X110271902Y-100557921D01*
X109911306Y-100198284D01*
X109907868Y-100190016D01*
X109911284Y-100181738D01*
X109911306Y-100181716D01*
X109997323Y-100095928D01*
X110271903Y-99822077D01*
X110280180Y-99818662D01*
X110287081Y-99820926D01*
G37*
%TD.AperFunction*%
%TD*%
%TA.AperFunction,Conductor*%
%TO.N,GND*%
G36*
X141565983Y-77945428D02*
G01*
X141947762Y-78128813D01*
X141953736Y-78135484D01*
X141954396Y-78139359D01*
X141954396Y-78324640D01*
X141950969Y-78332913D01*
X141947762Y-78335186D01*
X141565983Y-78518571D01*
X141557375Y-78519176D01*
X140688497Y-78243151D01*
X140681649Y-78237380D01*
X140680888Y-78228458D01*
X140686659Y-78221610D01*
X140688497Y-78220849D01*
X141557376Y-77944823D01*
X141565983Y-77945428D01*
G37*
%TD.AperFunction*%
%TD*%
%TA.AperFunction,Conductor*%
%TO.N,Net-(A1-A6)*%
G36*
X117299653Y-115412663D02*
G01*
X117465291Y-115445244D01*
X117472747Y-115450203D01*
X117474678Y-115457858D01*
X117378754Y-116443168D01*
X117374542Y-116451070D01*
X117374531Y-116451079D01*
X117041776Y-116724116D01*
X117033206Y-116726715D01*
X117026081Y-116723344D01*
X116896767Y-116594030D01*
X116893340Y-116585757D01*
X116893650Y-116583083D01*
X117172416Y-115399118D01*
X117177647Y-115391852D01*
X117186062Y-115390321D01*
X117299653Y-115412663D01*
G37*
%TD.AperFunction*%
%TD*%
%TA.AperFunction,Conductor*%
%TO.N,Net-(J1-Pin_4)*%
G36*
X144456140Y-88202605D02*
G01*
X146064990Y-88719238D01*
X146071819Y-88725030D01*
X146072553Y-88733955D01*
X146072224Y-88734851D01*
X145696252Y-89643512D01*
X145689923Y-89649847D01*
X145689908Y-89649853D01*
X144782669Y-90024662D01*
X144773715Y-90024653D01*
X144767388Y-90018315D01*
X144766942Y-90017028D01*
X144402085Y-88725030D01*
X144258598Y-88216924D01*
X144259648Y-88208032D01*
X144266678Y-88202485D01*
X144269858Y-88202045D01*
X144452563Y-88202045D01*
X144456140Y-88202605D01*
G37*
%TD.AperFunction*%
%TD*%
%TA.AperFunction,Conductor*%
%TO.N,Net-(U3-INA+)*%
G36*
X165477168Y-91625904D02*
G01*
X165480595Y-91634177D01*
X165480224Y-91637102D01*
X165011242Y-93453657D01*
X165005855Y-93460811D01*
X164996988Y-93462061D01*
X164995446Y-93461546D01*
X164088487Y-93086853D01*
X164082149Y-93080526D01*
X164082143Y-93080512D01*
X163706089Y-92171653D01*
X163706092Y-92162700D01*
X163712427Y-92156371D01*
X163713117Y-92156111D01*
X165282168Y-91623099D01*
X165285932Y-91622477D01*
X165468895Y-91622477D01*
X165477168Y-91625904D01*
G37*
%TD.AperFunction*%
%TD*%
%TA.AperFunction,Conductor*%
%TO.N,Net-(J4-Pos)*%
G36*
X105876314Y-102272291D02*
G01*
X107583659Y-102827212D01*
X107590466Y-102833027D01*
X107591168Y-102841955D01*
X107590855Y-102842805D01*
X107215562Y-103751215D01*
X107209235Y-103757553D01*
X107209215Y-103757562D01*
X106300805Y-104132855D01*
X106291851Y-104132846D01*
X106285524Y-104126508D01*
X106285216Y-104125672D01*
X105730292Y-102418315D01*
X105730994Y-102409388D01*
X105733143Y-102406429D01*
X105864427Y-102275145D01*
X105872699Y-102271719D01*
X105876314Y-102272291D01*
G37*
%TD.AperFunction*%
%TD*%
%TA.AperFunction,Conductor*%
%TO.N,Net-(A1-D4)*%
G36*
X124290313Y-98195193D02*
G01*
X124296909Y-98201249D01*
X124298000Y-98206183D01*
X124298000Y-98389816D01*
X124294573Y-98398089D01*
X124290313Y-98400806D01*
X123823305Y-98571330D01*
X123814358Y-98570949D01*
X123808496Y-98564851D01*
X123698883Y-98302509D01*
X123698857Y-98293556D01*
X123698862Y-98293542D01*
X123808496Y-98031147D01*
X123814848Y-98024836D01*
X123823302Y-98024669D01*
X124290313Y-98195193D01*
G37*
%TD.AperFunction*%
%TD*%
%TA.AperFunction,Conductor*%
%TO.N,Net-(A1-A0)*%
G36*
X141622190Y-80992583D02*
G01*
X141629492Y-80997767D01*
X141631183Y-81005526D01*
X141604154Y-81209490D01*
X141600828Y-81216226D01*
X141467249Y-81349805D01*
X141458976Y-81353232D01*
X141455427Y-81352681D01*
X140584423Y-81075381D01*
X140577579Y-81069605D01*
X140576664Y-81061229D01*
X140650788Y-80782209D01*
X140656224Y-80775095D01*
X140664701Y-80773809D01*
X141622190Y-80992583D01*
G37*
%TD.AperFunction*%
%TD*%
%TA.AperFunction,Conductor*%
%TO.N,Net-(A1-+5V)*%
G36*
X150057283Y-85495621D02*
G01*
X150770424Y-86480136D01*
X150772502Y-86488847D01*
X150770424Y-86493864D01*
X150057283Y-87478378D01*
X150049655Y-87483067D01*
X150041866Y-87481593D01*
X150036412Y-87478378D01*
X149677572Y-87266831D01*
X148530154Y-86590394D01*
X148524768Y-86583240D01*
X148524396Y-86580315D01*
X148524396Y-86393684D01*
X148527823Y-86385411D01*
X148530151Y-86383607D01*
X150041868Y-85492405D01*
X150050733Y-85491157D01*
X150057283Y-85495621D01*
G37*
%TD.AperFunction*%
%TD*%
%TA.AperFunction,Conductor*%
%TO.N,GND*%
G36*
X155596182Y-105893973D02*
G01*
X155596562Y-105894797D01*
X155973532Y-106802513D01*
X155973541Y-106811467D01*
X155973532Y-106811487D01*
X155596562Y-107719202D01*
X155590224Y-107725529D01*
X155581270Y-107725520D01*
X155580446Y-107725140D01*
X153980785Y-106910254D01*
X153974969Y-106903446D01*
X153974396Y-106899829D01*
X153974396Y-106714170D01*
X153977823Y-106705897D01*
X153980783Y-106703746D01*
X155580447Y-105888858D01*
X155589374Y-105888157D01*
X155596182Y-105893973D01*
G37*
%TD.AperFunction*%
%TD*%
%TA.AperFunction,Conductor*%
%TO.N,Net-(U1-+)*%
G36*
X112572611Y-114599994D02*
G01*
X112575573Y-114602146D01*
X112706853Y-114733426D01*
X112710280Y-114741699D01*
X112709707Y-114745316D01*
X112154788Y-116452658D01*
X112148972Y-116459466D01*
X112140044Y-116460168D01*
X112139194Y-116459855D01*
X111230784Y-116084562D01*
X111224446Y-116078235D01*
X111224437Y-116078215D01*
X110849144Y-115169805D01*
X110849153Y-115160851D01*
X110855491Y-115154524D01*
X110856318Y-115154219D01*
X112563684Y-114599292D01*
X112572611Y-114599994D01*
G37*
%TD.AperFunction*%
%TD*%
%TA.AperFunction,Conductor*%
%TO.N,GND*%
G36*
X140756407Y-77635427D02*
G01*
X140757869Y-77637210D01*
X140949084Y-77924032D01*
X140950822Y-77932817D01*
X140947636Y-77938781D01*
X140662683Y-78224685D01*
X140654415Y-78228126D01*
X140646137Y-78224713D01*
X140646109Y-78224685D01*
X140361155Y-77938781D01*
X140357742Y-77930503D01*
X140359706Y-77924034D01*
X140550922Y-77637210D01*
X140558363Y-77632227D01*
X140560658Y-77632000D01*
X140748134Y-77632000D01*
X140756407Y-77635427D01*
G37*
%TD.AperFunction*%
%TD*%
%TA.AperFunction,Conductor*%
%TO.N,Net-(A1-3V3)*%
G36*
X107077596Y-100038954D02*
G01*
X107083710Y-100044834D01*
X107411439Y-100752040D01*
X107411808Y-100760987D01*
X107409096Y-100765232D01*
X107275782Y-100898546D01*
X107270253Y-100901647D01*
X106973724Y-100973200D01*
X106964878Y-100971809D01*
X106959872Y-100965499D01*
X106706712Y-100199636D01*
X106707369Y-100190707D01*
X106713366Y-100185147D01*
X107068641Y-100038933D01*
X107077596Y-100038954D01*
G37*
%TD.AperFunction*%
%TD*%
%TA.AperFunction,Conductor*%
%TO.N,GND*%
G36*
X108043121Y-99408190D02*
G01*
X108048128Y-99414501D01*
X108301287Y-100180361D01*
X108300630Y-100189292D01*
X108294631Y-100194853D01*
X107939358Y-100341066D01*
X107930403Y-100341045D01*
X107924289Y-100335165D01*
X107859266Y-100194853D01*
X107596559Y-99627958D01*
X107596191Y-99619012D01*
X107598901Y-99614769D01*
X107732219Y-99481451D01*
X107737743Y-99478353D01*
X108034277Y-99406799D01*
X108043121Y-99408190D01*
G37*
%TD.AperFunction*%
%TD*%
%TA.AperFunction,Conductor*%
%TO.N,Net-(J1-Pin_4)*%
G36*
X151424168Y-80170756D02*
G01*
X151805262Y-80353813D01*
X151811236Y-80360484D01*
X151811896Y-80364359D01*
X151811896Y-80549640D01*
X151808469Y-80557913D01*
X151805262Y-80560186D01*
X151424187Y-80743234D01*
X151415246Y-80743728D01*
X151414348Y-80743370D01*
X150999259Y-80557913D01*
X150797303Y-80467681D01*
X150791149Y-80461179D01*
X150791395Y-80452227D01*
X150797304Y-80446318D01*
X151414350Y-80170628D01*
X151423300Y-80170383D01*
X151424168Y-80170756D01*
G37*
%TD.AperFunction*%
%TD*%
%TA.AperFunction,Conductor*%
%TO.N,Net-(A1-+5V)*%
G36*
X152657654Y-81414285D02*
G01*
X152811245Y-81568389D01*
X152942636Y-81700218D01*
X152946049Y-81708496D01*
X152944084Y-81714967D01*
X152752869Y-82001790D01*
X152745429Y-82006773D01*
X152743134Y-82007000D01*
X152555658Y-82007000D01*
X152547385Y-82003573D01*
X152545923Y-82001790D01*
X152354707Y-81714967D01*
X152352969Y-81706182D01*
X152356155Y-81700218D01*
X152641110Y-81414313D01*
X152649377Y-81410873D01*
X152657654Y-81414285D01*
G37*
%TD.AperFunction*%
%TD*%
%TA.AperFunction,Conductor*%
%TO.N,Net-(U1-+)*%
G36*
X110314795Y-115704140D02*
G01*
X111223215Y-116079437D01*
X111229553Y-116085764D01*
X111229562Y-116085784D01*
X111604855Y-116994194D01*
X111604846Y-117003148D01*
X111598508Y-117009475D01*
X111597658Y-117009788D01*
X109890316Y-117564707D01*
X109881388Y-117564005D01*
X109878426Y-117561853D01*
X109747146Y-117430573D01*
X109743719Y-117422300D01*
X109744291Y-117418686D01*
X110299212Y-115711339D01*
X110305027Y-115704533D01*
X110313955Y-115703831D01*
X110314795Y-115704140D01*
G37*
%TD.AperFunction*%
%TD*%
%TA.AperFunction,Conductor*%
%TO.N,Net-(A1-D4)*%
G36*
X132085829Y-76202350D02*
G01*
X132855736Y-76644786D01*
X132861201Y-76651879D01*
X132860377Y-76660150D01*
X132183230Y-78018520D01*
X132176472Y-78024395D01*
X132172759Y-78025000D01*
X131987241Y-78025000D01*
X131978968Y-78021573D01*
X131976770Y-78018520D01*
X131299622Y-76660150D01*
X131298998Y-76651217D01*
X131304261Y-76644787D01*
X132074170Y-76202349D01*
X132083050Y-76201199D01*
X132085829Y-76202350D01*
G37*
%TD.AperFunction*%
%TD*%
%TA.AperFunction,Conductor*%
%TO.N,Net-(J1-Pin_4)*%
G36*
X158386668Y-85944914D02*
G01*
X158394280Y-85949631D01*
X158396355Y-85954746D01*
X158576042Y-87167500D01*
X158573864Y-87176186D01*
X158567288Y-87180570D01*
X156890636Y-87597004D01*
X156881781Y-87595672D01*
X156879543Y-87593922D01*
X156747510Y-87461889D01*
X156744083Y-87453616D01*
X156744446Y-87450724D01*
X157176897Y-85758009D01*
X157182265Y-85750843D01*
X157190118Y-85749360D01*
X158386668Y-85944914D01*
G37*
%TD.AperFunction*%
%TD*%
%TA.AperFunction,Conductor*%
%TO.N,Net-(U3-INA+)*%
G36*
X165073835Y-93083992D02*
G01*
X165082105Y-93087425D01*
X165085412Y-93094066D01*
X165297159Y-94602773D01*
X165294916Y-94611442D01*
X165293846Y-94612672D01*
X165162561Y-94743957D01*
X165154288Y-94747384D01*
X165148974Y-94746107D01*
X163710940Y-94012787D01*
X163705126Y-94005976D01*
X163705441Y-93997897D01*
X164078842Y-93094066D01*
X164080303Y-93090529D01*
X164086629Y-93084193D01*
X164091121Y-93083298D01*
X165073835Y-93083992D01*
G37*
%TD.AperFunction*%
%TD*%
%TA.AperFunction,Conductor*%
%TO.N,Net-(J1-Pin_1)*%
G36*
X161840343Y-96014427D02*
G01*
X161841506Y-96015783D01*
X162509279Y-96926723D01*
X162511407Y-96935421D01*
X162508712Y-96941271D01*
X161746869Y-97826692D01*
X161738875Y-97830728D01*
X161730369Y-97827930D01*
X161729131Y-97826692D01*
X160967287Y-96941271D01*
X160964489Y-96932765D01*
X160966719Y-96926725D01*
X161634493Y-96015783D01*
X161642149Y-96011136D01*
X161643930Y-96011000D01*
X161832070Y-96011000D01*
X161840343Y-96014427D01*
G37*
%TD.AperFunction*%
%TD*%
%TA.AperFunction,Conductor*%
%TO.N,Net-(A1-A2)*%
G36*
X137896517Y-107436628D02*
G01*
X137902842Y-107442967D01*
X137903109Y-107443678D01*
X138359748Y-108791773D01*
X138359156Y-108800709D01*
X138356939Y-108803800D01*
X138225800Y-108934939D01*
X138217527Y-108938366D01*
X138213773Y-108937748D01*
X136865678Y-108481109D01*
X136858942Y-108475209D01*
X136858350Y-108466273D01*
X136858604Y-108465595D01*
X137157438Y-107741785D01*
X137163762Y-107735448D01*
X137163764Y-107735446D01*
X137887565Y-107436617D01*
X137896517Y-107436628D01*
G37*
%TD.AperFunction*%
%TD*%
%TA.AperFunction,Conductor*%
%TO.N,GND*%
G36*
X140662654Y-83319285D02*
G01*
X140816245Y-83473389D01*
X140947636Y-83605218D01*
X140951049Y-83613496D01*
X140949084Y-83619967D01*
X140757869Y-83906790D01*
X140750429Y-83911773D01*
X140748134Y-83912000D01*
X140560658Y-83912000D01*
X140552385Y-83908573D01*
X140550923Y-83906790D01*
X140359707Y-83619967D01*
X140357969Y-83611182D01*
X140361155Y-83605218D01*
X140646110Y-83319313D01*
X140654377Y-83315873D01*
X140662654Y-83319285D01*
G37*
%TD.AperFunction*%
%TD*%
%TA.AperFunction,Conductor*%
%TO.N,Net-(A1-+5V)*%
G36*
X140557246Y-87689724D02*
G01*
X140563567Y-87696068D01*
X140563550Y-87705022D01*
X140563428Y-87705305D01*
X140209493Y-88496080D01*
X140202985Y-88502231D01*
X140198814Y-88503000D01*
X140013978Y-88503000D01*
X140005705Y-88499573D01*
X140003299Y-88496080D01*
X139649363Y-87705305D01*
X139649111Y-87696354D01*
X139655262Y-87689846D01*
X139655492Y-87689746D01*
X140101900Y-87503871D01*
X140110851Y-87503855D01*
X140557246Y-87689724D01*
G37*
%TD.AperFunction*%
%TD*%
%TA.AperFunction,Conductor*%
%TO.N,Net-(A1-A0)*%
G36*
X136106225Y-111618250D02*
G01*
X137454321Y-112074890D01*
X137461057Y-112080790D01*
X137461649Y-112089726D01*
X137461382Y-112090437D01*
X137162562Y-112814212D01*
X137156237Y-112820551D01*
X137156212Y-112820562D01*
X136432437Y-113119382D01*
X136423482Y-113119371D01*
X136417157Y-113113032D01*
X136416890Y-113112321D01*
X136317434Y-112818707D01*
X135960251Y-111764225D01*
X135960843Y-111755290D01*
X135963057Y-111752202D01*
X136094200Y-111621059D01*
X136102472Y-111617633D01*
X136106225Y-111618250D01*
G37*
%TD.AperFunction*%
%TD*%
%TA.AperFunction,Conductor*%
%TO.N,Net-(U3-VFB)*%
G36*
X144357710Y-100364291D02*
G01*
X146065055Y-100919212D01*
X146071862Y-100925027D01*
X146072564Y-100933955D01*
X146072251Y-100934805D01*
X145696958Y-101843215D01*
X145690631Y-101849553D01*
X145690611Y-101849562D01*
X144782201Y-102224855D01*
X144773247Y-102224846D01*
X144766920Y-102218508D01*
X144766612Y-102217672D01*
X144211688Y-100510315D01*
X144212390Y-100501388D01*
X144214539Y-100498429D01*
X144345823Y-100367145D01*
X144354095Y-100363719D01*
X144357710Y-100364291D01*
G37*
%TD.AperFunction*%
%TD*%
%TA.AperFunction,Conductor*%
%TO.N,Net-(U3-INA-)*%
G36*
X167133067Y-100586711D02*
G01*
X167136742Y-100590817D01*
X167715613Y-101670163D01*
X167716503Y-101679074D01*
X167711589Y-101685560D01*
X166295513Y-102587780D01*
X166286694Y-102589336D01*
X166280953Y-102586186D01*
X166148958Y-102454191D01*
X166145639Y-102447503D01*
X165922770Y-100817704D01*
X165925044Y-100809043D01*
X165932238Y-100804614D01*
X167124310Y-100584841D01*
X167133067Y-100586711D01*
G37*
%TD.AperFunction*%
%TD*%
%TA.AperFunction,Conductor*%
%TO.N,GND*%
G36*
X140662654Y-76969285D02*
G01*
X140816245Y-77123389D01*
X140947636Y-77255218D01*
X140951049Y-77263496D01*
X140949084Y-77269967D01*
X140757869Y-77556790D01*
X140750429Y-77561773D01*
X140748134Y-77562000D01*
X140560658Y-77562000D01*
X140552385Y-77558573D01*
X140550923Y-77556790D01*
X140359707Y-77269967D01*
X140357969Y-77261182D01*
X140361155Y-77255218D01*
X140646110Y-76969313D01*
X140654377Y-76965873D01*
X140662654Y-76969285D01*
G37*
%TD.AperFunction*%
%TD*%
%TA.AperFunction,Conductor*%
%TO.N,Net-(U3-VBG)*%
G36*
X151305702Y-76325276D02*
G01*
X151313558Y-76329572D01*
X151316081Y-76335697D01*
X151447301Y-77597073D01*
X151444749Y-77605657D01*
X151438416Y-77609656D01*
X149775649Y-78012004D01*
X149766802Y-78010619D01*
X149764624Y-78008905D01*
X149632500Y-77876781D01*
X149629073Y-77868508D01*
X149629406Y-77865739D01*
X150036415Y-76198292D01*
X150041705Y-76191070D01*
X150049035Y-76189437D01*
X151305702Y-76325276D01*
G37*
%TD.AperFunction*%
%TD*%
%TA.AperFunction,Conductor*%
%TO.N,Net-(A1-+5V)*%
G36*
X151994623Y-113511855D02*
G01*
X152582131Y-113833025D01*
X152587747Y-113840000D01*
X152587332Y-113847760D01*
X152402995Y-114293753D01*
X152396668Y-114300090D01*
X152392159Y-114300984D01*
X151910188Y-114300020D01*
X151901921Y-114296577D01*
X151898619Y-114289906D01*
X151793817Y-113523707D01*
X151796091Y-113515045D01*
X151803823Y-113510529D01*
X151805409Y-113510421D01*
X151989011Y-113510421D01*
X151994623Y-113511855D01*
G37*
%TD.AperFunction*%
%TD*%
%TA.AperFunction,Conductor*%
%TO.N,Net-(J1-Pin_4)*%
G36*
X150090090Y-80200430D02*
G01*
X150748392Y-80446316D01*
X150754942Y-80452420D01*
X150755257Y-80461369D01*
X150749152Y-80467920D01*
X150749081Y-80467952D01*
X150134689Y-80743253D01*
X150125738Y-80743509D01*
X150124454Y-80742928D01*
X149834803Y-80590408D01*
X149831981Y-80588329D01*
X149702131Y-80458479D01*
X149698704Y-80450206D01*
X149702131Y-80441933D01*
X149704122Y-80440335D01*
X150079718Y-80201516D01*
X150088537Y-80199970D01*
X150090090Y-80200430D01*
G37*
%TD.AperFunction*%
%TD*%
%TA.AperFunction,Conductor*%
%TO.N,GND*%
G36*
X139853363Y-82731317D02*
G01*
X140724369Y-83008618D01*
X140731212Y-83014394D01*
X140732127Y-83022771D01*
X140658003Y-83301788D01*
X140652567Y-83308904D01*
X140644089Y-83310190D01*
X139686600Y-83091415D01*
X139679298Y-83086231D01*
X139677607Y-83078473D01*
X139704637Y-82874508D01*
X139707962Y-82867774D01*
X139841543Y-82734193D01*
X139849815Y-82730767D01*
X139853363Y-82731317D01*
G37*
%TD.AperFunction*%
%TD*%
%TA.AperFunction,Conductor*%
%TO.N,GND*%
G36*
X109890314Y-102399291D02*
G01*
X111597659Y-102954212D01*
X111604466Y-102960027D01*
X111605168Y-102968955D01*
X111604855Y-102969805D01*
X111229562Y-103878215D01*
X111223235Y-103884553D01*
X111223215Y-103884562D01*
X110314805Y-104259855D01*
X110305851Y-104259846D01*
X110299524Y-104253508D01*
X110299216Y-104252672D01*
X109744292Y-102545315D01*
X109744994Y-102536388D01*
X109747143Y-102533429D01*
X109878427Y-102402145D01*
X109886699Y-102398719D01*
X109890314Y-102399291D01*
G37*
%TD.AperFunction*%
%TD*%
%TA.AperFunction,Conductor*%
%TO.N,Net-(A1-+5V)*%
G36*
X140659549Y-85862114D02*
G01*
X140659564Y-85862150D01*
X140774529Y-86141948D01*
X140774504Y-86150903D01*
X140768939Y-86156860D01*
X140220517Y-86431071D01*
X140211585Y-86431706D01*
X140207012Y-86428879D01*
X139942507Y-86164374D01*
X139939080Y-86156101D01*
X139942507Y-86147828D01*
X139946291Y-86145297D01*
X140644261Y-85855789D01*
X140653214Y-85855785D01*
X140659549Y-85862114D01*
G37*
%TD.AperFunction*%
%TD*%
%TA.AperFunction,Conductor*%
%TO.N,Net-(U3-INA-)*%
G36*
X168644614Y-98935327D02*
G01*
X168646852Y-98937077D01*
X168778885Y-99069110D01*
X168782312Y-99077383D01*
X168781948Y-99080279D01*
X168349497Y-100772989D01*
X168344129Y-100780157D01*
X168336274Y-100781640D01*
X167139727Y-100586085D01*
X167132115Y-100581368D01*
X167130040Y-100576253D01*
X166950354Y-99363499D01*
X166952532Y-99354813D01*
X166959108Y-99350429D01*
X168635761Y-98933995D01*
X168644614Y-98935327D01*
G37*
%TD.AperFunction*%
%TD*%
%TA.AperFunction,Conductor*%
%TO.N,Net-(A1-+5V)*%
G36*
X138222709Y-91298843D02*
G01*
X138225800Y-91301060D01*
X138356939Y-91432199D01*
X138360366Y-91440472D01*
X138359748Y-91444226D01*
X137903109Y-92792321D01*
X137897209Y-92799057D01*
X137888273Y-92799649D01*
X137887568Y-92799384D01*
X137606586Y-92683377D01*
X137163787Y-92500562D01*
X137157448Y-92494237D01*
X137157437Y-92494212D01*
X136858617Y-91770434D01*
X136858628Y-91761482D01*
X136864967Y-91755157D01*
X136865663Y-91754895D01*
X138213774Y-91298251D01*
X138222709Y-91298843D01*
G37*
%TD.AperFunction*%
%TD*%
%TA.AperFunction,Conductor*%
%TO.N,Net-(J1-Pin_4)*%
G36*
X146565983Y-83025428D02*
G01*
X146947762Y-83208813D01*
X146953736Y-83215484D01*
X146954396Y-83219359D01*
X146954396Y-83404640D01*
X146950969Y-83412913D01*
X146947762Y-83415186D01*
X146565983Y-83598571D01*
X146557375Y-83599176D01*
X145688497Y-83323151D01*
X145681649Y-83317380D01*
X145680888Y-83308458D01*
X145686659Y-83301610D01*
X145688497Y-83300849D01*
X146557376Y-83024823D01*
X146565983Y-83025428D01*
G37*
%TD.AperFunction*%
%TD*%
%TA.AperFunction,Conductor*%
%TO.N,Net-(A1-D8)*%
G36*
X126460779Y-96406166D02*
G01*
X126592948Y-96533666D01*
X126596523Y-96541877D01*
X126595526Y-96546818D01*
X126392770Y-97005386D01*
X126386290Y-97011567D01*
X126377625Y-97011478D01*
X126262817Y-96964338D01*
X126114827Y-96903575D01*
X126108476Y-96897263D01*
X126000365Y-96633990D01*
X126000392Y-96625038D01*
X126006064Y-96619030D01*
X126447534Y-96404067D01*
X126456472Y-96403527D01*
X126460779Y-96406166D01*
G37*
%TD.AperFunction*%
%TD*%
%TA.AperFunction,Conductor*%
%TO.N,GND*%
G36*
X140653102Y-84584934D02*
G01*
X140657160Y-84591714D01*
X140712266Y-84870827D01*
X140710507Y-84879607D01*
X140703363Y-84884506D01*
X139588137Y-85136152D01*
X139579313Y-85134630D01*
X139577289Y-85133012D01*
X139447260Y-85002983D01*
X139443833Y-84994710D01*
X139445844Y-84988151D01*
X139651320Y-84684689D01*
X139658795Y-84679762D01*
X139659845Y-84679609D01*
X140644532Y-84582337D01*
X140653102Y-84584934D01*
G37*
%TD.AperFunction*%
%TD*%
%TA.AperFunction,Conductor*%
%TO.N,Net-(Q1-B)*%
G36*
X150090090Y-82100430D02*
G01*
X150748392Y-82346316D01*
X150754942Y-82352420D01*
X150755257Y-82361369D01*
X150749152Y-82367920D01*
X150749081Y-82367952D01*
X150134689Y-82643253D01*
X150125738Y-82643509D01*
X150124454Y-82642928D01*
X149834803Y-82490408D01*
X149831981Y-82488329D01*
X149702131Y-82358479D01*
X149698704Y-82350206D01*
X149702131Y-82341933D01*
X149704122Y-82340335D01*
X150079718Y-82101516D01*
X150088537Y-82099970D01*
X150090090Y-82100430D01*
G37*
%TD.AperFunction*%
%TD*%
%TA.AperFunction,Conductor*%
%TO.N,GND*%
G36*
X150581765Y-109887038D02*
G01*
X150582585Y-109887784D01*
X150714683Y-110019882D01*
X150718110Y-110028155D01*
X150717294Y-110032449D01*
X150116361Y-111555745D01*
X150110137Y-111562183D01*
X150101183Y-111562335D01*
X150101012Y-111562265D01*
X149359792Y-111256216D01*
X149353453Y-111249892D01*
X149352694Y-111243619D01*
X149540521Y-110025310D01*
X149545810Y-109991000D01*
X149550457Y-109983347D01*
X149556262Y-109981137D01*
X150573206Y-109884410D01*
X150581765Y-109887038D01*
G37*
%TD.AperFunction*%
%TD*%
%TA.AperFunction,Conductor*%
%TO.N,Net-(J4-Pos)*%
G36*
X109699642Y-95437598D02*
G01*
X109706401Y-95443473D01*
X109706744Y-95444226D01*
X110051356Y-96278558D01*
X110051347Y-96287513D01*
X110045009Y-96293839D01*
X110044392Y-96294073D01*
X108435055Y-96854882D01*
X108426115Y-96854369D01*
X108422932Y-96852107D01*
X108291787Y-96720962D01*
X108288360Y-96712689D01*
X108288942Y-96709044D01*
X108800333Y-95149104D01*
X108806167Y-95142310D01*
X108815094Y-95141631D01*
X109699642Y-95437598D01*
G37*
%TD.AperFunction*%
%TD*%
%TA.AperFunction,Conductor*%
%TO.N,Net-(A1-+5V)*%
G36*
X146362495Y-86145295D02*
G01*
X146368823Y-86151629D01*
X146368818Y-86160584D01*
X146366284Y-86164374D01*
X146237238Y-86293421D01*
X146101779Y-86428879D01*
X146093506Y-86432306D01*
X146088275Y-86431071D01*
X145539851Y-86156859D01*
X145533984Y-86150095D01*
X145534262Y-86141948D01*
X145649228Y-85862148D01*
X145655541Y-85855800D01*
X145664494Y-85855775D01*
X146362495Y-86145295D01*
G37*
%TD.AperFunction*%
%TD*%
%TA.AperFunction,Conductor*%
%TO.N,Net-(U3-INA+)*%
G36*
X146101779Y-76385120D02*
G01*
X146366284Y-76649625D01*
X146369711Y-76657898D01*
X146366284Y-76666171D01*
X146362494Y-76668705D01*
X145664532Y-76958209D01*
X145655577Y-76958214D01*
X145649242Y-76951885D01*
X145534261Y-76672051D01*
X145534287Y-76663096D01*
X145539850Y-76657140D01*
X146088277Y-76382927D01*
X146097206Y-76382293D01*
X146101779Y-76385120D01*
G37*
%TD.AperFunction*%
%TD*%
%TA.AperFunction,Conductor*%
%TO.N,Net-(A1-+5V)*%
G36*
X140207087Y-86506427D02*
G01*
X140209493Y-86509920D01*
X140563428Y-87300694D01*
X140563680Y-87309645D01*
X140557529Y-87316153D01*
X140557246Y-87316275D01*
X140110893Y-87502127D01*
X140101939Y-87502144D01*
X140101899Y-87502127D01*
X139655545Y-87316275D01*
X139649224Y-87309931D01*
X139649241Y-87300977D01*
X139649363Y-87300694D01*
X140003299Y-86509920D01*
X140009807Y-86503769D01*
X140013978Y-86503000D01*
X140198814Y-86503000D01*
X140207087Y-86506427D01*
G37*
%TD.AperFunction*%
%TD*%
%TA.AperFunction,Conductor*%
%TO.N,Net-(Q1-B)*%
G36*
X146565983Y-84295428D02*
G01*
X146947762Y-84478813D01*
X146953736Y-84485484D01*
X146954396Y-84489359D01*
X146954396Y-84674640D01*
X146950969Y-84682913D01*
X146947762Y-84685186D01*
X146565983Y-84868571D01*
X146557375Y-84869176D01*
X145688497Y-84593151D01*
X145681649Y-84587380D01*
X145680888Y-84578458D01*
X145686659Y-84571610D01*
X145688497Y-84570849D01*
X146557376Y-84294823D01*
X146565983Y-84295428D01*
G37*
%TD.AperFunction*%
%TD*%
%TA.AperFunction,Conductor*%
%TO.N,Net-(A1-A6)*%
G36*
X136432414Y-97276608D02*
G01*
X137156212Y-97575437D01*
X137162551Y-97581762D01*
X137162562Y-97581787D01*
X137461382Y-98305562D01*
X137461371Y-98314517D01*
X137455032Y-98320842D01*
X137454321Y-98321109D01*
X137289669Y-98376882D01*
X137285915Y-98377500D01*
X137095292Y-98377500D01*
X137091575Y-98376894D01*
X137086601Y-98375227D01*
X137086599Y-98375227D01*
X137037556Y-98377494D01*
X137037286Y-98377500D01*
X137016518Y-98377500D01*
X137010051Y-98378708D01*
X137009246Y-98378802D01*
X136974376Y-98380414D01*
X136974369Y-98380416D01*
X136956118Y-98388474D01*
X136953544Y-98389272D01*
X136933931Y-98392939D01*
X136904251Y-98411314D01*
X136903534Y-98411692D01*
X136871601Y-98425793D01*
X136857491Y-98439902D01*
X136855378Y-98441575D01*
X136838415Y-98452079D01*
X136838411Y-98452082D01*
X136817373Y-98479940D01*
X136816841Y-98480552D01*
X136733346Y-98564045D01*
X136728827Y-98566854D01*
X136106226Y-98777748D01*
X136097290Y-98777156D01*
X136094199Y-98774939D01*
X135963060Y-98643800D01*
X135959633Y-98635527D01*
X135960251Y-98631773D01*
X135982241Y-98566854D01*
X136416890Y-97283677D01*
X136422790Y-97276942D01*
X136431726Y-97276350D01*
X136432414Y-97276608D01*
G37*
%TD.AperFunction*%
%TD*%
%TA.AperFunction,Conductor*%
%TO.N,Net-(U3-VBG)*%
G36*
X146565983Y-79215428D02*
G01*
X146947762Y-79398813D01*
X146953736Y-79405484D01*
X146954396Y-79409359D01*
X146954396Y-79594640D01*
X146950969Y-79602913D01*
X146947762Y-79605186D01*
X146565983Y-79788571D01*
X146557375Y-79789176D01*
X145688497Y-79513151D01*
X145681649Y-79507380D01*
X145680888Y-79498458D01*
X145686659Y-79491610D01*
X145688497Y-79490849D01*
X146557376Y-79214823D01*
X146565983Y-79215428D01*
G37*
%TD.AperFunction*%
%TD*%
%TA.AperFunction,Conductor*%
%TO.N,Net-(A1-D8)*%
G36*
X129585830Y-76202350D02*
G01*
X130355736Y-76644786D01*
X130361201Y-76651879D01*
X130360377Y-76660150D01*
X129683230Y-78018520D01*
X129676472Y-78024395D01*
X129672759Y-78025000D01*
X129487241Y-78025000D01*
X129478968Y-78021573D01*
X129476770Y-78018520D01*
X128799622Y-76660150D01*
X128798998Y-76651217D01*
X128804261Y-76644787D01*
X129574170Y-76202349D01*
X129583051Y-76201199D01*
X129585830Y-76202350D01*
G37*
%TD.AperFunction*%
%TD*%
%TA.AperFunction,Conductor*%
%TO.N,Net-(A1-A1)*%
G36*
X141622190Y-79722583D02*
G01*
X141629492Y-79727767D01*
X141631183Y-79735526D01*
X141604154Y-79939490D01*
X141600828Y-79946226D01*
X141467249Y-80079805D01*
X141458976Y-80083232D01*
X141455427Y-80082681D01*
X140584423Y-79805381D01*
X140577579Y-79799605D01*
X140576664Y-79791229D01*
X140650788Y-79512209D01*
X140656224Y-79505095D01*
X140664701Y-79503809D01*
X141622190Y-79722583D01*
G37*
%TD.AperFunction*%
%TD*%
%TA.AperFunction,Conductor*%
%TO.N,Net-(A1-D9)*%
G36*
X122982709Y-111618843D02*
G01*
X122985800Y-111621060D01*
X123116939Y-111752199D01*
X123120366Y-111760472D01*
X123119748Y-111764226D01*
X122663109Y-113112321D01*
X122657209Y-113119057D01*
X122648273Y-113119649D01*
X122647568Y-113119384D01*
X122366586Y-113003377D01*
X121923787Y-112820562D01*
X121917448Y-112814237D01*
X121917437Y-112814212D01*
X121618617Y-112090434D01*
X121618628Y-112081482D01*
X121624967Y-112075157D01*
X121625663Y-112074895D01*
X122973774Y-111618251D01*
X122982709Y-111618843D01*
G37*
%TD.AperFunction*%
%TD*%
%TA.AperFunction,Conductor*%
%TO.N,Net-(U3-VFB)*%
G36*
X143875499Y-104810427D02*
G01*
X143877651Y-104813389D01*
X144692536Y-106413050D01*
X144693238Y-106421978D01*
X144687422Y-106428786D01*
X144686598Y-106429166D01*
X143778883Y-106806136D01*
X143769929Y-106806145D01*
X143769909Y-106806136D01*
X142862193Y-106429166D01*
X142855866Y-106422828D01*
X142855875Y-106413874D01*
X142856249Y-106413061D01*
X143671141Y-104813388D01*
X143677949Y-104807573D01*
X143681566Y-104807000D01*
X143867226Y-104807000D01*
X143875499Y-104810427D01*
G37*
%TD.AperFunction*%
%TD*%
M02*
