%TF.GenerationSoftware,KiCad,Pcbnew,7.0.7*%
%TF.CreationDate,2023-12-14T17:45:07-06:00*%
%TF.ProjectId,test,74657374-2e6b-4696-9361-645f70636258,rev?*%
%TF.SameCoordinates,Original*%
%TF.FileFunction,Legend,Top*%
%TF.FilePolarity,Positive*%
%FSLAX46Y46*%
G04 Gerber Fmt 4.6, Leading zero omitted, Abs format (unit mm)*
G04 Created by KiCad (PCBNEW 7.0.7) date 2023-12-14 17:45:07*
%MOMM*%
%LPD*%
G01*
G04 APERTURE LIST*
%ADD10C,0.100000*%
%ADD11C,0.150000*%
%ADD12C,0.120000*%
%ADD13C,0.127000*%
%ADD14C,0.200000*%
G04 APERTURE END LIST*
D10*
X140716000Y-73533000D02*
X142179396Y-76347000D01*
X114937217Y-122284609D02*
X115080074Y-122332228D01*
X115080074Y-122332228D02*
X115127693Y-122379847D01*
X115127693Y-122379847D02*
X115175312Y-122475085D01*
X115175312Y-122475085D02*
X115175312Y-122617942D01*
X115175312Y-122617942D02*
X115127693Y-122713180D01*
X115127693Y-122713180D02*
X115080074Y-122760800D01*
X115080074Y-122760800D02*
X114984836Y-122808419D01*
X114984836Y-122808419D02*
X114603884Y-122808419D01*
X114603884Y-122808419D02*
X114603884Y-121808419D01*
X114603884Y-121808419D02*
X114937217Y-121808419D01*
X114937217Y-121808419D02*
X115032455Y-121856038D01*
X115032455Y-121856038D02*
X115080074Y-121903657D01*
X115080074Y-121903657D02*
X115127693Y-121998895D01*
X115127693Y-121998895D02*
X115127693Y-122094133D01*
X115127693Y-122094133D02*
X115080074Y-122189371D01*
X115080074Y-122189371D02*
X115032455Y-122236990D01*
X115032455Y-122236990D02*
X114937217Y-122284609D01*
X114937217Y-122284609D02*
X114603884Y-122284609D01*
X116032455Y-122141752D02*
X116032455Y-122808419D01*
X115603884Y-122141752D02*
X115603884Y-122665561D01*
X115603884Y-122665561D02*
X115651503Y-122760800D01*
X115651503Y-122760800D02*
X115746741Y-122808419D01*
X115746741Y-122808419D02*
X115889598Y-122808419D01*
X115889598Y-122808419D02*
X115984836Y-122760800D01*
X115984836Y-122760800D02*
X116032455Y-122713180D01*
X116365789Y-122141752D02*
X116746741Y-122141752D01*
X116508646Y-122808419D02*
X116508646Y-121951276D01*
X116508646Y-121951276D02*
X116556265Y-121856038D01*
X116556265Y-121856038D02*
X116651503Y-121808419D01*
X116651503Y-121808419D02*
X116746741Y-121808419D01*
X116937218Y-122141752D02*
X117318170Y-122141752D01*
X117080075Y-122808419D02*
X117080075Y-121951276D01*
X117080075Y-121951276D02*
X117127694Y-121856038D01*
X117127694Y-121856038D02*
X117222932Y-121808419D01*
X117222932Y-121808419D02*
X117318170Y-121808419D01*
X118032456Y-122760800D02*
X117937218Y-122808419D01*
X117937218Y-122808419D02*
X117746742Y-122808419D01*
X117746742Y-122808419D02*
X117651504Y-122760800D01*
X117651504Y-122760800D02*
X117603885Y-122665561D01*
X117603885Y-122665561D02*
X117603885Y-122284609D01*
X117603885Y-122284609D02*
X117651504Y-122189371D01*
X117651504Y-122189371D02*
X117746742Y-122141752D01*
X117746742Y-122141752D02*
X117937218Y-122141752D01*
X117937218Y-122141752D02*
X118032456Y-122189371D01*
X118032456Y-122189371D02*
X118080075Y-122284609D01*
X118080075Y-122284609D02*
X118080075Y-122379847D01*
X118080075Y-122379847D02*
X117603885Y-122475085D01*
X118508647Y-122808419D02*
X118508647Y-122141752D01*
X118508647Y-122332228D02*
X118556266Y-122236990D01*
X118556266Y-122236990D02*
X118603885Y-122189371D01*
X118603885Y-122189371D02*
X118699123Y-122141752D01*
X118699123Y-122141752D02*
X118794361Y-122141752D01*
X144909265Y-95487657D02*
X144956884Y-95440038D01*
X144956884Y-95440038D02*
X145052122Y-95392419D01*
X145052122Y-95392419D02*
X145290217Y-95392419D01*
X145290217Y-95392419D02*
X145385455Y-95440038D01*
X145385455Y-95440038D02*
X145433074Y-95487657D01*
X145433074Y-95487657D02*
X145480693Y-95582895D01*
X145480693Y-95582895D02*
X145480693Y-95678133D01*
X145480693Y-95678133D02*
X145433074Y-95820990D01*
X145433074Y-95820990D02*
X144861646Y-96392419D01*
X144861646Y-96392419D02*
X145480693Y-96392419D01*
X146099741Y-95392419D02*
X146194979Y-95392419D01*
X146194979Y-95392419D02*
X146290217Y-95440038D01*
X146290217Y-95440038D02*
X146337836Y-95487657D01*
X146337836Y-95487657D02*
X146385455Y-95582895D01*
X146385455Y-95582895D02*
X146433074Y-95773371D01*
X146433074Y-95773371D02*
X146433074Y-96011466D01*
X146433074Y-96011466D02*
X146385455Y-96201942D01*
X146385455Y-96201942D02*
X146337836Y-96297180D01*
X146337836Y-96297180D02*
X146290217Y-96344800D01*
X146290217Y-96344800D02*
X146194979Y-96392419D01*
X146194979Y-96392419D02*
X146099741Y-96392419D01*
X146099741Y-96392419D02*
X146004503Y-96344800D01*
X146004503Y-96344800D02*
X145956884Y-96297180D01*
X145956884Y-96297180D02*
X145909265Y-96201942D01*
X145909265Y-96201942D02*
X145861646Y-96011466D01*
X145861646Y-96011466D02*
X145861646Y-95773371D01*
X145861646Y-95773371D02*
X145909265Y-95582895D01*
X145909265Y-95582895D02*
X145956884Y-95487657D01*
X145956884Y-95487657D02*
X146004503Y-95440038D01*
X146004503Y-95440038D02*
X146099741Y-95392419D01*
X146861646Y-96392419D02*
X146861646Y-95392419D01*
X146956884Y-96011466D02*
X147242598Y-96392419D01*
X147242598Y-95725752D02*
X146861646Y-96106704D01*
X111476455Y-110632419D02*
X111285979Y-110632419D01*
X111285979Y-110632419D02*
X111190741Y-110680038D01*
X111190741Y-110680038D02*
X111143122Y-110727657D01*
X111143122Y-110727657D02*
X111047884Y-110870514D01*
X111047884Y-110870514D02*
X111000265Y-111060990D01*
X111000265Y-111060990D02*
X111000265Y-111441942D01*
X111000265Y-111441942D02*
X111047884Y-111537180D01*
X111047884Y-111537180D02*
X111095503Y-111584800D01*
X111095503Y-111584800D02*
X111190741Y-111632419D01*
X111190741Y-111632419D02*
X111381217Y-111632419D01*
X111381217Y-111632419D02*
X111476455Y-111584800D01*
X111476455Y-111584800D02*
X111524074Y-111537180D01*
X111524074Y-111537180D02*
X111571693Y-111441942D01*
X111571693Y-111441942D02*
X111571693Y-111203847D01*
X111571693Y-111203847D02*
X111524074Y-111108609D01*
X111524074Y-111108609D02*
X111476455Y-111060990D01*
X111476455Y-111060990D02*
X111381217Y-111013371D01*
X111381217Y-111013371D02*
X111190741Y-111013371D01*
X111190741Y-111013371D02*
X111095503Y-111060990D01*
X111095503Y-111060990D02*
X111047884Y-111108609D01*
X111047884Y-111108609D02*
X111000265Y-111203847D01*
X112000265Y-111632419D02*
X112000265Y-110632419D01*
X112095503Y-111251466D02*
X112381217Y-111632419D01*
X112381217Y-110965752D02*
X112000265Y-111346704D01*
X155339074Y-94868419D02*
X154862884Y-94868419D01*
X154862884Y-94868419D02*
X154862884Y-93868419D01*
X155815265Y-94868419D02*
X155720027Y-94820800D01*
X155720027Y-94820800D02*
X155672408Y-94773180D01*
X155672408Y-94773180D02*
X155624789Y-94677942D01*
X155624789Y-94677942D02*
X155624789Y-94392228D01*
X155624789Y-94392228D02*
X155672408Y-94296990D01*
X155672408Y-94296990D02*
X155720027Y-94249371D01*
X155720027Y-94249371D02*
X155815265Y-94201752D01*
X155815265Y-94201752D02*
X155958122Y-94201752D01*
X155958122Y-94201752D02*
X156053360Y-94249371D01*
X156053360Y-94249371D02*
X156100979Y-94296990D01*
X156100979Y-94296990D02*
X156148598Y-94392228D01*
X156148598Y-94392228D02*
X156148598Y-94677942D01*
X156148598Y-94677942D02*
X156100979Y-94773180D01*
X156100979Y-94773180D02*
X156053360Y-94820800D01*
X156053360Y-94820800D02*
X155958122Y-94868419D01*
X155958122Y-94868419D02*
X155815265Y-94868419D01*
X157005741Y-94868419D02*
X157005741Y-94344609D01*
X157005741Y-94344609D02*
X156958122Y-94249371D01*
X156958122Y-94249371D02*
X156862884Y-94201752D01*
X156862884Y-94201752D02*
X156672408Y-94201752D01*
X156672408Y-94201752D02*
X156577170Y-94249371D01*
X157005741Y-94820800D02*
X156910503Y-94868419D01*
X156910503Y-94868419D02*
X156672408Y-94868419D01*
X156672408Y-94868419D02*
X156577170Y-94820800D01*
X156577170Y-94820800D02*
X156529551Y-94725561D01*
X156529551Y-94725561D02*
X156529551Y-94630323D01*
X156529551Y-94630323D02*
X156577170Y-94535085D01*
X156577170Y-94535085D02*
X156672408Y-94487466D01*
X156672408Y-94487466D02*
X156910503Y-94487466D01*
X156910503Y-94487466D02*
X157005741Y-94439847D01*
X157910503Y-94868419D02*
X157910503Y-93868419D01*
X157910503Y-94820800D02*
X157815265Y-94868419D01*
X157815265Y-94868419D02*
X157624789Y-94868419D01*
X157624789Y-94868419D02*
X157529551Y-94820800D01*
X157529551Y-94820800D02*
X157481932Y-94773180D01*
X157481932Y-94773180D02*
X157434313Y-94677942D01*
X157434313Y-94677942D02*
X157434313Y-94392228D01*
X157434313Y-94392228D02*
X157481932Y-94296990D01*
X157481932Y-94296990D02*
X157529551Y-94249371D01*
X157529551Y-94249371D02*
X157624789Y-94201752D01*
X157624789Y-94201752D02*
X157815265Y-94201752D01*
X157815265Y-94201752D02*
X157910503Y-94249371D01*
X159577170Y-94820800D02*
X159481932Y-94868419D01*
X159481932Y-94868419D02*
X159291456Y-94868419D01*
X159291456Y-94868419D02*
X159196218Y-94820800D01*
X159196218Y-94820800D02*
X159148599Y-94773180D01*
X159148599Y-94773180D02*
X159100980Y-94677942D01*
X159100980Y-94677942D02*
X159100980Y-94392228D01*
X159100980Y-94392228D02*
X159148599Y-94296990D01*
X159148599Y-94296990D02*
X159196218Y-94249371D01*
X159196218Y-94249371D02*
X159291456Y-94201752D01*
X159291456Y-94201752D02*
X159481932Y-94201752D01*
X159481932Y-94201752D02*
X159577170Y-94249371D01*
X160386694Y-94820800D02*
X160291456Y-94868419D01*
X160291456Y-94868419D02*
X160100980Y-94868419D01*
X160100980Y-94868419D02*
X160005742Y-94820800D01*
X160005742Y-94820800D02*
X159958123Y-94725561D01*
X159958123Y-94725561D02*
X159958123Y-94344609D01*
X159958123Y-94344609D02*
X160005742Y-94249371D01*
X160005742Y-94249371D02*
X160100980Y-94201752D01*
X160100980Y-94201752D02*
X160291456Y-94201752D01*
X160291456Y-94201752D02*
X160386694Y-94249371D01*
X160386694Y-94249371D02*
X160434313Y-94344609D01*
X160434313Y-94344609D02*
X160434313Y-94439847D01*
X160434313Y-94439847D02*
X159958123Y-94535085D01*
X161005742Y-94868419D02*
X160910504Y-94820800D01*
X160910504Y-94820800D02*
X160862885Y-94725561D01*
X160862885Y-94725561D02*
X160862885Y-93868419D01*
X161529552Y-94868419D02*
X161434314Y-94820800D01*
X161434314Y-94820800D02*
X161386695Y-94725561D01*
X161386695Y-94725561D02*
X161386695Y-93868419D01*
X150083042Y-104179419D02*
X150749708Y-104179419D01*
X150749708Y-104179419D02*
X150321137Y-105179419D01*
X151606851Y-104179419D02*
X151130661Y-104179419D01*
X151130661Y-104179419D02*
X151083042Y-104655609D01*
X151083042Y-104655609D02*
X151130661Y-104607990D01*
X151130661Y-104607990D02*
X151225899Y-104560371D01*
X151225899Y-104560371D02*
X151463994Y-104560371D01*
X151463994Y-104560371D02*
X151559232Y-104607990D01*
X151559232Y-104607990D02*
X151606851Y-104655609D01*
X151606851Y-104655609D02*
X151654470Y-104750847D01*
X151654470Y-104750847D02*
X151654470Y-104988942D01*
X151654470Y-104988942D02*
X151606851Y-105084180D01*
X151606851Y-105084180D02*
X151559232Y-105131800D01*
X151559232Y-105131800D02*
X151463994Y-105179419D01*
X151463994Y-105179419D02*
X151225899Y-105179419D01*
X151225899Y-105179419D02*
X151130661Y-105131800D01*
X151130661Y-105131800D02*
X151083042Y-105084180D01*
X152273518Y-104179419D02*
X152368756Y-104179419D01*
X152368756Y-104179419D02*
X152463994Y-104227038D01*
X152463994Y-104227038D02*
X152511613Y-104274657D01*
X152511613Y-104274657D02*
X152559232Y-104369895D01*
X152559232Y-104369895D02*
X152606851Y-104560371D01*
X152606851Y-104560371D02*
X152606851Y-104798466D01*
X152606851Y-104798466D02*
X152559232Y-104988942D01*
X152559232Y-104988942D02*
X152511613Y-105084180D01*
X152511613Y-105084180D02*
X152463994Y-105131800D01*
X152463994Y-105131800D02*
X152368756Y-105179419D01*
X152368756Y-105179419D02*
X152273518Y-105179419D01*
X152273518Y-105179419D02*
X152178280Y-105131800D01*
X152178280Y-105131800D02*
X152130661Y-105084180D01*
X152130661Y-105084180D02*
X152083042Y-104988942D01*
X152083042Y-104988942D02*
X152035423Y-104798466D01*
X152035423Y-104798466D02*
X152035423Y-104560371D01*
X152035423Y-104560371D02*
X152083042Y-104369895D01*
X152083042Y-104369895D02*
X152130661Y-104274657D01*
X152130661Y-104274657D02*
X152178280Y-104227038D01*
X152178280Y-104227038D02*
X152273518Y-104179419D01*
X153225899Y-104179419D02*
X153321137Y-104179419D01*
X153321137Y-104179419D02*
X153416375Y-104227038D01*
X153416375Y-104227038D02*
X153463994Y-104274657D01*
X153463994Y-104274657D02*
X153511613Y-104369895D01*
X153511613Y-104369895D02*
X153559232Y-104560371D01*
X153559232Y-104560371D02*
X153559232Y-104798466D01*
X153559232Y-104798466D02*
X153511613Y-104988942D01*
X153511613Y-104988942D02*
X153463994Y-105084180D01*
X153463994Y-105084180D02*
X153416375Y-105131800D01*
X153416375Y-105131800D02*
X153321137Y-105179419D01*
X153321137Y-105179419D02*
X153225899Y-105179419D01*
X153225899Y-105179419D02*
X153130661Y-105131800D01*
X153130661Y-105131800D02*
X153083042Y-105084180D01*
X153083042Y-105084180D02*
X153035423Y-104988942D01*
X153035423Y-104988942D02*
X152987804Y-104798466D01*
X152987804Y-104798466D02*
X152987804Y-104560371D01*
X152987804Y-104560371D02*
X153035423Y-104369895D01*
X153035423Y-104369895D02*
X153083042Y-104274657D01*
X153083042Y-104274657D02*
X153130661Y-104227038D01*
X153130661Y-104227038D02*
X153225899Y-104179419D01*
X169213884Y-99980180D02*
X169261503Y-100027800D01*
X169261503Y-100027800D02*
X169213884Y-100075419D01*
X169213884Y-100075419D02*
X169166265Y-100027800D01*
X169166265Y-100027800D02*
X169213884Y-99980180D01*
X169213884Y-99980180D02*
X169213884Y-100075419D01*
X170213883Y-100075419D02*
X169642455Y-100075419D01*
X169928169Y-100075419D02*
X169928169Y-99075419D01*
X169928169Y-99075419D02*
X169832931Y-99218276D01*
X169832931Y-99218276D02*
X169737693Y-99313514D01*
X169737693Y-99313514D02*
X169642455Y-99361133D01*
X171071026Y-99408752D02*
X171071026Y-100075419D01*
X170642455Y-99408752D02*
X170642455Y-99932561D01*
X170642455Y-99932561D02*
X170690074Y-100027800D01*
X170690074Y-100027800D02*
X170785312Y-100075419D01*
X170785312Y-100075419D02*
X170928169Y-100075419D01*
X170928169Y-100075419D02*
X171023407Y-100027800D01*
X171023407Y-100027800D02*
X171071026Y-99980180D01*
X102647180Y-108217687D02*
X102694800Y-108265306D01*
X102694800Y-108265306D02*
X102742419Y-108408163D01*
X102742419Y-108408163D02*
X102742419Y-108503401D01*
X102742419Y-108503401D02*
X102694800Y-108646258D01*
X102694800Y-108646258D02*
X102599561Y-108741496D01*
X102599561Y-108741496D02*
X102504323Y-108789115D01*
X102504323Y-108789115D02*
X102313847Y-108836734D01*
X102313847Y-108836734D02*
X102170990Y-108836734D01*
X102170990Y-108836734D02*
X101980514Y-108789115D01*
X101980514Y-108789115D02*
X101885276Y-108741496D01*
X101885276Y-108741496D02*
X101790038Y-108646258D01*
X101790038Y-108646258D02*
X101742419Y-108503401D01*
X101742419Y-108503401D02*
X101742419Y-108408163D01*
X101742419Y-108408163D02*
X101790038Y-108265306D01*
X101790038Y-108265306D02*
X101837657Y-108217687D01*
X102075752Y-107360544D02*
X102742419Y-107360544D01*
X102075752Y-107789115D02*
X102599561Y-107789115D01*
X102599561Y-107789115D02*
X102694800Y-107741496D01*
X102694800Y-107741496D02*
X102742419Y-107646258D01*
X102742419Y-107646258D02*
X102742419Y-107503401D01*
X102742419Y-107503401D02*
X102694800Y-107408163D01*
X102694800Y-107408163D02*
X102647180Y-107360544D01*
X102742419Y-106884353D02*
X102075752Y-106884353D01*
X102266228Y-106884353D02*
X102170990Y-106836734D01*
X102170990Y-106836734D02*
X102123371Y-106789115D01*
X102123371Y-106789115D02*
X102075752Y-106693877D01*
X102075752Y-106693877D02*
X102075752Y-106598639D01*
X102742419Y-106265305D02*
X102075752Y-106265305D01*
X102266228Y-106265305D02*
X102170990Y-106217686D01*
X102170990Y-106217686D02*
X102123371Y-106170067D01*
X102123371Y-106170067D02*
X102075752Y-106074829D01*
X102075752Y-106074829D02*
X102075752Y-105979591D01*
X102694800Y-105265305D02*
X102742419Y-105360543D01*
X102742419Y-105360543D02*
X102742419Y-105551019D01*
X102742419Y-105551019D02*
X102694800Y-105646257D01*
X102694800Y-105646257D02*
X102599561Y-105693876D01*
X102599561Y-105693876D02*
X102218609Y-105693876D01*
X102218609Y-105693876D02*
X102123371Y-105646257D01*
X102123371Y-105646257D02*
X102075752Y-105551019D01*
X102075752Y-105551019D02*
X102075752Y-105360543D01*
X102075752Y-105360543D02*
X102123371Y-105265305D01*
X102123371Y-105265305D02*
X102218609Y-105217686D01*
X102218609Y-105217686D02*
X102313847Y-105217686D01*
X102313847Y-105217686D02*
X102409085Y-105693876D01*
X102075752Y-104789114D02*
X102742419Y-104789114D01*
X102170990Y-104789114D02*
X102123371Y-104741495D01*
X102123371Y-104741495D02*
X102075752Y-104646257D01*
X102075752Y-104646257D02*
X102075752Y-104503400D01*
X102075752Y-104503400D02*
X102123371Y-104408162D01*
X102123371Y-104408162D02*
X102218609Y-104360543D01*
X102218609Y-104360543D02*
X102742419Y-104360543D01*
X102075752Y-104027209D02*
X102075752Y-103646257D01*
X101742419Y-103884352D02*
X102599561Y-103884352D01*
X102599561Y-103884352D02*
X102694800Y-103836733D01*
X102694800Y-103836733D02*
X102742419Y-103741495D01*
X102742419Y-103741495D02*
X102742419Y-103646257D01*
X102694800Y-102598637D02*
X102742419Y-102455780D01*
X102742419Y-102455780D02*
X102742419Y-102217685D01*
X102742419Y-102217685D02*
X102694800Y-102122447D01*
X102694800Y-102122447D02*
X102647180Y-102074828D01*
X102647180Y-102074828D02*
X102551942Y-102027209D01*
X102551942Y-102027209D02*
X102456704Y-102027209D01*
X102456704Y-102027209D02*
X102361466Y-102074828D01*
X102361466Y-102074828D02*
X102313847Y-102122447D01*
X102313847Y-102122447D02*
X102266228Y-102217685D01*
X102266228Y-102217685D02*
X102218609Y-102408161D01*
X102218609Y-102408161D02*
X102170990Y-102503399D01*
X102170990Y-102503399D02*
X102123371Y-102551018D01*
X102123371Y-102551018D02*
X102028133Y-102598637D01*
X102028133Y-102598637D02*
X101932895Y-102598637D01*
X101932895Y-102598637D02*
X101837657Y-102551018D01*
X101837657Y-102551018D02*
X101790038Y-102503399D01*
X101790038Y-102503399D02*
X101742419Y-102408161D01*
X101742419Y-102408161D02*
X101742419Y-102170066D01*
X101742419Y-102170066D02*
X101790038Y-102027209D01*
X102694800Y-101217685D02*
X102742419Y-101312923D01*
X102742419Y-101312923D02*
X102742419Y-101503399D01*
X102742419Y-101503399D02*
X102694800Y-101598637D01*
X102694800Y-101598637D02*
X102599561Y-101646256D01*
X102599561Y-101646256D02*
X102218609Y-101646256D01*
X102218609Y-101646256D02*
X102123371Y-101598637D01*
X102123371Y-101598637D02*
X102075752Y-101503399D01*
X102075752Y-101503399D02*
X102075752Y-101312923D01*
X102075752Y-101312923D02*
X102123371Y-101217685D01*
X102123371Y-101217685D02*
X102218609Y-101170066D01*
X102218609Y-101170066D02*
X102313847Y-101170066D01*
X102313847Y-101170066D02*
X102409085Y-101646256D01*
X102075752Y-100741494D02*
X102742419Y-100741494D01*
X102170990Y-100741494D02*
X102123371Y-100693875D01*
X102123371Y-100693875D02*
X102075752Y-100598637D01*
X102075752Y-100598637D02*
X102075752Y-100455780D01*
X102075752Y-100455780D02*
X102123371Y-100360542D01*
X102123371Y-100360542D02*
X102218609Y-100312923D01*
X102218609Y-100312923D02*
X102742419Y-100312923D01*
X102694800Y-99884351D02*
X102742419Y-99789113D01*
X102742419Y-99789113D02*
X102742419Y-99598637D01*
X102742419Y-99598637D02*
X102694800Y-99503399D01*
X102694800Y-99503399D02*
X102599561Y-99455780D01*
X102599561Y-99455780D02*
X102551942Y-99455780D01*
X102551942Y-99455780D02*
X102456704Y-99503399D01*
X102456704Y-99503399D02*
X102409085Y-99598637D01*
X102409085Y-99598637D02*
X102409085Y-99741494D01*
X102409085Y-99741494D02*
X102361466Y-99836732D01*
X102361466Y-99836732D02*
X102266228Y-99884351D01*
X102266228Y-99884351D02*
X102218609Y-99884351D01*
X102218609Y-99884351D02*
X102123371Y-99836732D01*
X102123371Y-99836732D02*
X102075752Y-99741494D01*
X102075752Y-99741494D02*
X102075752Y-99598637D01*
X102075752Y-99598637D02*
X102123371Y-99503399D01*
X102742419Y-98884351D02*
X102694800Y-98979589D01*
X102694800Y-98979589D02*
X102647180Y-99027208D01*
X102647180Y-99027208D02*
X102551942Y-99074827D01*
X102551942Y-99074827D02*
X102266228Y-99074827D01*
X102266228Y-99074827D02*
X102170990Y-99027208D01*
X102170990Y-99027208D02*
X102123371Y-98979589D01*
X102123371Y-98979589D02*
X102075752Y-98884351D01*
X102075752Y-98884351D02*
X102075752Y-98741494D01*
X102075752Y-98741494D02*
X102123371Y-98646256D01*
X102123371Y-98646256D02*
X102170990Y-98598637D01*
X102170990Y-98598637D02*
X102266228Y-98551018D01*
X102266228Y-98551018D02*
X102551942Y-98551018D01*
X102551942Y-98551018D02*
X102647180Y-98598637D01*
X102647180Y-98598637D02*
X102694800Y-98646256D01*
X102694800Y-98646256D02*
X102742419Y-98741494D01*
X102742419Y-98741494D02*
X102742419Y-98884351D01*
X102742419Y-98122446D02*
X102075752Y-98122446D01*
X102266228Y-98122446D02*
X102170990Y-98074827D01*
X102170990Y-98074827D02*
X102123371Y-98027208D01*
X102123371Y-98027208D02*
X102075752Y-97931970D01*
X102075752Y-97931970D02*
X102075752Y-97836732D01*
X152703884Y-78771180D02*
X152751503Y-78818800D01*
X152751503Y-78818800D02*
X152703884Y-78866419D01*
X152703884Y-78866419D02*
X152656265Y-78818800D01*
X152656265Y-78818800D02*
X152703884Y-78771180D01*
X152703884Y-78771180D02*
X152703884Y-78866419D01*
X153703883Y-78866419D02*
X153132455Y-78866419D01*
X153418169Y-78866419D02*
X153418169Y-77866419D01*
X153418169Y-77866419D02*
X153322931Y-78009276D01*
X153322931Y-78009276D02*
X153227693Y-78104514D01*
X153227693Y-78104514D02*
X153132455Y-78152133D01*
X154561026Y-78199752D02*
X154561026Y-78866419D01*
X154132455Y-78199752D02*
X154132455Y-78723561D01*
X154132455Y-78723561D02*
X154180074Y-78818800D01*
X154180074Y-78818800D02*
X154275312Y-78866419D01*
X154275312Y-78866419D02*
X154418169Y-78866419D01*
X154418169Y-78866419D02*
X154513407Y-78818800D01*
X154513407Y-78818800D02*
X154561026Y-78771180D01*
X138270074Y-73462419D02*
X137793884Y-73462419D01*
X137793884Y-73462419D02*
X137793884Y-72462419D01*
X138746265Y-73462419D02*
X138651027Y-73414800D01*
X138651027Y-73414800D02*
X138603408Y-73367180D01*
X138603408Y-73367180D02*
X138555789Y-73271942D01*
X138555789Y-73271942D02*
X138555789Y-72986228D01*
X138555789Y-72986228D02*
X138603408Y-72890990D01*
X138603408Y-72890990D02*
X138651027Y-72843371D01*
X138651027Y-72843371D02*
X138746265Y-72795752D01*
X138746265Y-72795752D02*
X138889122Y-72795752D01*
X138889122Y-72795752D02*
X138984360Y-72843371D01*
X138984360Y-72843371D02*
X139031979Y-72890990D01*
X139031979Y-72890990D02*
X139079598Y-72986228D01*
X139079598Y-72986228D02*
X139079598Y-73271942D01*
X139079598Y-73271942D02*
X139031979Y-73367180D01*
X139031979Y-73367180D02*
X138984360Y-73414800D01*
X138984360Y-73414800D02*
X138889122Y-73462419D01*
X138889122Y-73462419D02*
X138746265Y-73462419D01*
X139936741Y-73462419D02*
X139936741Y-72938609D01*
X139936741Y-72938609D02*
X139889122Y-72843371D01*
X139889122Y-72843371D02*
X139793884Y-72795752D01*
X139793884Y-72795752D02*
X139603408Y-72795752D01*
X139603408Y-72795752D02*
X139508170Y-72843371D01*
X139936741Y-73414800D02*
X139841503Y-73462419D01*
X139841503Y-73462419D02*
X139603408Y-73462419D01*
X139603408Y-73462419D02*
X139508170Y-73414800D01*
X139508170Y-73414800D02*
X139460551Y-73319561D01*
X139460551Y-73319561D02*
X139460551Y-73224323D01*
X139460551Y-73224323D02*
X139508170Y-73129085D01*
X139508170Y-73129085D02*
X139603408Y-73081466D01*
X139603408Y-73081466D02*
X139841503Y-73081466D01*
X139841503Y-73081466D02*
X139936741Y-73033847D01*
X140841503Y-73462419D02*
X140841503Y-72462419D01*
X140841503Y-73414800D02*
X140746265Y-73462419D01*
X140746265Y-73462419D02*
X140555789Y-73462419D01*
X140555789Y-73462419D02*
X140460551Y-73414800D01*
X140460551Y-73414800D02*
X140412932Y-73367180D01*
X140412932Y-73367180D02*
X140365313Y-73271942D01*
X140365313Y-73271942D02*
X140365313Y-72986228D01*
X140365313Y-72986228D02*
X140412932Y-72890990D01*
X140412932Y-72890990D02*
X140460551Y-72843371D01*
X140460551Y-72843371D02*
X140555789Y-72795752D01*
X140555789Y-72795752D02*
X140746265Y-72795752D01*
X140746265Y-72795752D02*
X140841503Y-72843371D01*
X142651027Y-73367180D02*
X142603408Y-73414800D01*
X142603408Y-73414800D02*
X142460551Y-73462419D01*
X142460551Y-73462419D02*
X142365313Y-73462419D01*
X142365313Y-73462419D02*
X142222456Y-73414800D01*
X142222456Y-73414800D02*
X142127218Y-73319561D01*
X142127218Y-73319561D02*
X142079599Y-73224323D01*
X142079599Y-73224323D02*
X142031980Y-73033847D01*
X142031980Y-73033847D02*
X142031980Y-72890990D01*
X142031980Y-72890990D02*
X142079599Y-72700514D01*
X142079599Y-72700514D02*
X142127218Y-72605276D01*
X142127218Y-72605276D02*
X142222456Y-72510038D01*
X142222456Y-72510038D02*
X142365313Y-72462419D01*
X142365313Y-72462419D02*
X142460551Y-72462419D01*
X142460551Y-72462419D02*
X142603408Y-72510038D01*
X142603408Y-72510038D02*
X142651027Y-72557657D01*
X143460551Y-73414800D02*
X143365313Y-73462419D01*
X143365313Y-73462419D02*
X143174837Y-73462419D01*
X143174837Y-73462419D02*
X143079599Y-73414800D01*
X143079599Y-73414800D02*
X143031980Y-73319561D01*
X143031980Y-73319561D02*
X143031980Y-72938609D01*
X143031980Y-72938609D02*
X143079599Y-72843371D01*
X143079599Y-72843371D02*
X143174837Y-72795752D01*
X143174837Y-72795752D02*
X143365313Y-72795752D01*
X143365313Y-72795752D02*
X143460551Y-72843371D01*
X143460551Y-72843371D02*
X143508170Y-72938609D01*
X143508170Y-72938609D02*
X143508170Y-73033847D01*
X143508170Y-73033847D02*
X143031980Y-73129085D01*
X144079599Y-73462419D02*
X143984361Y-73414800D01*
X143984361Y-73414800D02*
X143936742Y-73319561D01*
X143936742Y-73319561D02*
X143936742Y-72462419D01*
X144603409Y-73462419D02*
X144508171Y-73414800D01*
X144508171Y-73414800D02*
X144460552Y-73319561D01*
X144460552Y-73319561D02*
X144460552Y-72462419D01*
X146317695Y-73367180D02*
X146270076Y-73414800D01*
X146270076Y-73414800D02*
X146127219Y-73462419D01*
X146127219Y-73462419D02*
X146031981Y-73462419D01*
X146031981Y-73462419D02*
X145889124Y-73414800D01*
X145889124Y-73414800D02*
X145793886Y-73319561D01*
X145793886Y-73319561D02*
X145746267Y-73224323D01*
X145746267Y-73224323D02*
X145698648Y-73033847D01*
X145698648Y-73033847D02*
X145698648Y-72890990D01*
X145698648Y-72890990D02*
X145746267Y-72700514D01*
X145746267Y-72700514D02*
X145793886Y-72605276D01*
X145793886Y-72605276D02*
X145889124Y-72510038D01*
X145889124Y-72510038D02*
X146031981Y-72462419D01*
X146031981Y-72462419D02*
X146127219Y-72462419D01*
X146127219Y-72462419D02*
X146270076Y-72510038D01*
X146270076Y-72510038D02*
X146317695Y-72557657D01*
X146889124Y-73462419D02*
X146793886Y-73414800D01*
X146793886Y-73414800D02*
X146746267Y-73367180D01*
X146746267Y-73367180D02*
X146698648Y-73271942D01*
X146698648Y-73271942D02*
X146698648Y-72986228D01*
X146698648Y-72986228D02*
X146746267Y-72890990D01*
X146746267Y-72890990D02*
X146793886Y-72843371D01*
X146793886Y-72843371D02*
X146889124Y-72795752D01*
X146889124Y-72795752D02*
X147031981Y-72795752D01*
X147031981Y-72795752D02*
X147127219Y-72843371D01*
X147127219Y-72843371D02*
X147174838Y-72890990D01*
X147174838Y-72890990D02*
X147222457Y-72986228D01*
X147222457Y-72986228D02*
X147222457Y-73271942D01*
X147222457Y-73271942D02*
X147174838Y-73367180D01*
X147174838Y-73367180D02*
X147127219Y-73414800D01*
X147127219Y-73414800D02*
X147031981Y-73462419D01*
X147031981Y-73462419D02*
X146889124Y-73462419D01*
X147651029Y-72795752D02*
X147651029Y-73462419D01*
X147651029Y-72890990D02*
X147698648Y-72843371D01*
X147698648Y-72843371D02*
X147793886Y-72795752D01*
X147793886Y-72795752D02*
X147936743Y-72795752D01*
X147936743Y-72795752D02*
X148031981Y-72843371D01*
X148031981Y-72843371D02*
X148079600Y-72938609D01*
X148079600Y-72938609D02*
X148079600Y-73462419D01*
X148412934Y-72795752D02*
X148793886Y-72795752D01*
X148555791Y-72462419D02*
X148555791Y-73319561D01*
X148555791Y-73319561D02*
X148603410Y-73414800D01*
X148603410Y-73414800D02*
X148698648Y-73462419D01*
X148698648Y-73462419D02*
X148793886Y-73462419D01*
X149127220Y-73462419D02*
X149127220Y-72795752D01*
X149127220Y-72986228D02*
X149174839Y-72890990D01*
X149174839Y-72890990D02*
X149222458Y-72843371D01*
X149222458Y-72843371D02*
X149317696Y-72795752D01*
X149317696Y-72795752D02*
X149412934Y-72795752D01*
X149889125Y-73462419D02*
X149793887Y-73414800D01*
X149793887Y-73414800D02*
X149746268Y-73367180D01*
X149746268Y-73367180D02*
X149698649Y-73271942D01*
X149698649Y-73271942D02*
X149698649Y-72986228D01*
X149698649Y-72986228D02*
X149746268Y-72890990D01*
X149746268Y-72890990D02*
X149793887Y-72843371D01*
X149793887Y-72843371D02*
X149889125Y-72795752D01*
X149889125Y-72795752D02*
X150031982Y-72795752D01*
X150031982Y-72795752D02*
X150127220Y-72843371D01*
X150127220Y-72843371D02*
X150174839Y-72890990D01*
X150174839Y-72890990D02*
X150222458Y-72986228D01*
X150222458Y-72986228D02*
X150222458Y-73271942D01*
X150222458Y-73271942D02*
X150174839Y-73367180D01*
X150174839Y-73367180D02*
X150127220Y-73414800D01*
X150127220Y-73414800D02*
X150031982Y-73462419D01*
X150031982Y-73462419D02*
X149889125Y-73462419D01*
X150793887Y-73462419D02*
X150698649Y-73414800D01*
X150698649Y-73414800D02*
X150651030Y-73319561D01*
X150651030Y-73319561D02*
X150651030Y-72462419D01*
X151317697Y-73462419D02*
X151222459Y-73414800D01*
X151222459Y-73414800D02*
X151174840Y-73319561D01*
X151174840Y-73319561D02*
X151174840Y-72462419D01*
X152079602Y-73414800D02*
X151984364Y-73462419D01*
X151984364Y-73462419D02*
X151793888Y-73462419D01*
X151793888Y-73462419D02*
X151698650Y-73414800D01*
X151698650Y-73414800D02*
X151651031Y-73319561D01*
X151651031Y-73319561D02*
X151651031Y-72938609D01*
X151651031Y-72938609D02*
X151698650Y-72843371D01*
X151698650Y-72843371D02*
X151793888Y-72795752D01*
X151793888Y-72795752D02*
X151984364Y-72795752D01*
X151984364Y-72795752D02*
X152079602Y-72843371D01*
X152079602Y-72843371D02*
X152127221Y-72938609D01*
X152127221Y-72938609D02*
X152127221Y-73033847D01*
X152127221Y-73033847D02*
X151651031Y-73129085D01*
X152555793Y-73462419D02*
X152555793Y-72795752D01*
X152555793Y-72986228D02*
X152603412Y-72890990D01*
X152603412Y-72890990D02*
X152651031Y-72843371D01*
X152651031Y-72843371D02*
X152746269Y-72795752D01*
X152746269Y-72795752D02*
X152841507Y-72795752D01*
X103412027Y-108346419D02*
X103745360Y-109346419D01*
X103745360Y-109346419D02*
X104078693Y-108346419D01*
X104554884Y-109346419D02*
X104459646Y-109298800D01*
X104459646Y-109298800D02*
X104412027Y-109251180D01*
X104412027Y-109251180D02*
X104364408Y-109155942D01*
X104364408Y-109155942D02*
X104364408Y-108870228D01*
X104364408Y-108870228D02*
X104412027Y-108774990D01*
X104412027Y-108774990D02*
X104459646Y-108727371D01*
X104459646Y-108727371D02*
X104554884Y-108679752D01*
X104554884Y-108679752D02*
X104697741Y-108679752D01*
X104697741Y-108679752D02*
X104792979Y-108727371D01*
X104792979Y-108727371D02*
X104840598Y-108774990D01*
X104840598Y-108774990D02*
X104888217Y-108870228D01*
X104888217Y-108870228D02*
X104888217Y-109155942D01*
X104888217Y-109155942D02*
X104840598Y-109251180D01*
X104840598Y-109251180D02*
X104792979Y-109298800D01*
X104792979Y-109298800D02*
X104697741Y-109346419D01*
X104697741Y-109346419D02*
X104554884Y-109346419D01*
X105459646Y-109346419D02*
X105364408Y-109298800D01*
X105364408Y-109298800D02*
X105316789Y-109203561D01*
X105316789Y-109203561D02*
X105316789Y-108346419D01*
X105697742Y-108679752D02*
X106078694Y-108679752D01*
X105840599Y-108346419D02*
X105840599Y-109203561D01*
X105840599Y-109203561D02*
X105888218Y-109298800D01*
X105888218Y-109298800D02*
X105983456Y-109346419D01*
X105983456Y-109346419D02*
X106078694Y-109346419D01*
X106840599Y-109346419D02*
X106840599Y-108822609D01*
X106840599Y-108822609D02*
X106792980Y-108727371D01*
X106792980Y-108727371D02*
X106697742Y-108679752D01*
X106697742Y-108679752D02*
X106507266Y-108679752D01*
X106507266Y-108679752D02*
X106412028Y-108727371D01*
X106840599Y-109298800D02*
X106745361Y-109346419D01*
X106745361Y-109346419D02*
X106507266Y-109346419D01*
X106507266Y-109346419D02*
X106412028Y-109298800D01*
X106412028Y-109298800D02*
X106364409Y-109203561D01*
X106364409Y-109203561D02*
X106364409Y-109108323D01*
X106364409Y-109108323D02*
X106412028Y-109013085D01*
X106412028Y-109013085D02*
X106507266Y-108965466D01*
X106507266Y-108965466D02*
X106745361Y-108965466D01*
X106745361Y-108965466D02*
X106840599Y-108917847D01*
X107745361Y-108679752D02*
X107745361Y-109489276D01*
X107745361Y-109489276D02*
X107697742Y-109584514D01*
X107697742Y-109584514D02*
X107650123Y-109632133D01*
X107650123Y-109632133D02*
X107554885Y-109679752D01*
X107554885Y-109679752D02*
X107412028Y-109679752D01*
X107412028Y-109679752D02*
X107316790Y-109632133D01*
X107745361Y-109298800D02*
X107650123Y-109346419D01*
X107650123Y-109346419D02*
X107459647Y-109346419D01*
X107459647Y-109346419D02*
X107364409Y-109298800D01*
X107364409Y-109298800D02*
X107316790Y-109251180D01*
X107316790Y-109251180D02*
X107269171Y-109155942D01*
X107269171Y-109155942D02*
X107269171Y-108870228D01*
X107269171Y-108870228D02*
X107316790Y-108774990D01*
X107316790Y-108774990D02*
X107364409Y-108727371D01*
X107364409Y-108727371D02*
X107459647Y-108679752D01*
X107459647Y-108679752D02*
X107650123Y-108679752D01*
X107650123Y-108679752D02*
X107745361Y-108727371D01*
X108602504Y-109298800D02*
X108507266Y-109346419D01*
X108507266Y-109346419D02*
X108316790Y-109346419D01*
X108316790Y-109346419D02*
X108221552Y-109298800D01*
X108221552Y-109298800D02*
X108173933Y-109203561D01*
X108173933Y-109203561D02*
X108173933Y-108822609D01*
X108173933Y-108822609D02*
X108221552Y-108727371D01*
X108221552Y-108727371D02*
X108316790Y-108679752D01*
X108316790Y-108679752D02*
X108507266Y-108679752D01*
X108507266Y-108679752D02*
X108602504Y-108727371D01*
X108602504Y-108727371D02*
X108650123Y-108822609D01*
X108650123Y-108822609D02*
X108650123Y-108917847D01*
X108650123Y-108917847D02*
X108173933Y-109013085D01*
X109840600Y-109346419D02*
X109840600Y-108346419D01*
X109840600Y-108346419D02*
X110078695Y-108346419D01*
X110078695Y-108346419D02*
X110221552Y-108394038D01*
X110221552Y-108394038D02*
X110316790Y-108489276D01*
X110316790Y-108489276D02*
X110364409Y-108584514D01*
X110364409Y-108584514D02*
X110412028Y-108774990D01*
X110412028Y-108774990D02*
X110412028Y-108917847D01*
X110412028Y-108917847D02*
X110364409Y-109108323D01*
X110364409Y-109108323D02*
X110316790Y-109203561D01*
X110316790Y-109203561D02*
X110221552Y-109298800D01*
X110221552Y-109298800D02*
X110078695Y-109346419D01*
X110078695Y-109346419D02*
X109840600Y-109346419D01*
X110840600Y-109346419D02*
X110840600Y-108679752D01*
X110840600Y-108346419D02*
X110792981Y-108394038D01*
X110792981Y-108394038D02*
X110840600Y-108441657D01*
X110840600Y-108441657D02*
X110888219Y-108394038D01*
X110888219Y-108394038D02*
X110840600Y-108346419D01*
X110840600Y-108346419D02*
X110840600Y-108441657D01*
X111221552Y-108679752D02*
X111459647Y-109346419D01*
X111459647Y-109346419D02*
X111697742Y-108679752D01*
X112078695Y-109346419D02*
X112078695Y-108679752D01*
X112078695Y-108346419D02*
X112031076Y-108394038D01*
X112031076Y-108394038D02*
X112078695Y-108441657D01*
X112078695Y-108441657D02*
X112126314Y-108394038D01*
X112126314Y-108394038D02*
X112078695Y-108346419D01*
X112078695Y-108346419D02*
X112078695Y-108441657D01*
X112983456Y-109346419D02*
X112983456Y-108346419D01*
X112983456Y-109298800D02*
X112888218Y-109346419D01*
X112888218Y-109346419D02*
X112697742Y-109346419D01*
X112697742Y-109346419D02*
X112602504Y-109298800D01*
X112602504Y-109298800D02*
X112554885Y-109251180D01*
X112554885Y-109251180D02*
X112507266Y-109155942D01*
X112507266Y-109155942D02*
X112507266Y-108870228D01*
X112507266Y-108870228D02*
X112554885Y-108774990D01*
X112554885Y-108774990D02*
X112602504Y-108727371D01*
X112602504Y-108727371D02*
X112697742Y-108679752D01*
X112697742Y-108679752D02*
X112888218Y-108679752D01*
X112888218Y-108679752D02*
X112983456Y-108727371D01*
X113840599Y-109298800D02*
X113745361Y-109346419D01*
X113745361Y-109346419D02*
X113554885Y-109346419D01*
X113554885Y-109346419D02*
X113459647Y-109298800D01*
X113459647Y-109298800D02*
X113412028Y-109203561D01*
X113412028Y-109203561D02*
X113412028Y-108822609D01*
X113412028Y-108822609D02*
X113459647Y-108727371D01*
X113459647Y-108727371D02*
X113554885Y-108679752D01*
X113554885Y-108679752D02*
X113745361Y-108679752D01*
X113745361Y-108679752D02*
X113840599Y-108727371D01*
X113840599Y-108727371D02*
X113888218Y-108822609D01*
X113888218Y-108822609D02*
X113888218Y-108917847D01*
X113888218Y-108917847D02*
X113412028Y-109013085D01*
X114316790Y-109346419D02*
X114316790Y-108679752D01*
X114316790Y-108870228D02*
X114364409Y-108774990D01*
X114364409Y-108774990D02*
X114412028Y-108727371D01*
X114412028Y-108727371D02*
X114507266Y-108679752D01*
X114507266Y-108679752D02*
X114602504Y-108679752D01*
X125478265Y-73230800D02*
X125621122Y-73278419D01*
X125621122Y-73278419D02*
X125859217Y-73278419D01*
X125859217Y-73278419D02*
X125954455Y-73230800D01*
X125954455Y-73230800D02*
X126002074Y-73183180D01*
X126002074Y-73183180D02*
X126049693Y-73087942D01*
X126049693Y-73087942D02*
X126049693Y-72992704D01*
X126049693Y-72992704D02*
X126002074Y-72897466D01*
X126002074Y-72897466D02*
X125954455Y-72849847D01*
X125954455Y-72849847D02*
X125859217Y-72802228D01*
X125859217Y-72802228D02*
X125668741Y-72754609D01*
X125668741Y-72754609D02*
X125573503Y-72706990D01*
X125573503Y-72706990D02*
X125525884Y-72659371D01*
X125525884Y-72659371D02*
X125478265Y-72564133D01*
X125478265Y-72564133D02*
X125478265Y-72468895D01*
X125478265Y-72468895D02*
X125525884Y-72373657D01*
X125525884Y-72373657D02*
X125573503Y-72326038D01*
X125573503Y-72326038D02*
X125668741Y-72278419D01*
X125668741Y-72278419D02*
X125906836Y-72278419D01*
X125906836Y-72278419D02*
X126049693Y-72326038D01*
X126478265Y-73278419D02*
X126478265Y-72278419D01*
X126478265Y-72278419D02*
X126716360Y-72278419D01*
X126716360Y-72278419D02*
X126859217Y-72326038D01*
X126859217Y-72326038D02*
X126954455Y-72421276D01*
X126954455Y-72421276D02*
X127002074Y-72516514D01*
X127002074Y-72516514D02*
X127049693Y-72706990D01*
X127049693Y-72706990D02*
X127049693Y-72849847D01*
X127049693Y-72849847D02*
X127002074Y-73040323D01*
X127002074Y-73040323D02*
X126954455Y-73135561D01*
X126954455Y-73135561D02*
X126859217Y-73230800D01*
X126859217Y-73230800D02*
X126716360Y-73278419D01*
X126716360Y-73278419D02*
X126478265Y-73278419D01*
X128811598Y-73183180D02*
X128763979Y-73230800D01*
X128763979Y-73230800D02*
X128621122Y-73278419D01*
X128621122Y-73278419D02*
X128525884Y-73278419D01*
X128525884Y-73278419D02*
X128383027Y-73230800D01*
X128383027Y-73230800D02*
X128287789Y-73135561D01*
X128287789Y-73135561D02*
X128240170Y-73040323D01*
X128240170Y-73040323D02*
X128192551Y-72849847D01*
X128192551Y-72849847D02*
X128192551Y-72706990D01*
X128192551Y-72706990D02*
X128240170Y-72516514D01*
X128240170Y-72516514D02*
X128287789Y-72421276D01*
X128287789Y-72421276D02*
X128383027Y-72326038D01*
X128383027Y-72326038D02*
X128525884Y-72278419D01*
X128525884Y-72278419D02*
X128621122Y-72278419D01*
X128621122Y-72278419D02*
X128763979Y-72326038D01*
X128763979Y-72326038D02*
X128811598Y-72373657D01*
X129668741Y-73278419D02*
X129668741Y-72754609D01*
X129668741Y-72754609D02*
X129621122Y-72659371D01*
X129621122Y-72659371D02*
X129525884Y-72611752D01*
X129525884Y-72611752D02*
X129335408Y-72611752D01*
X129335408Y-72611752D02*
X129240170Y-72659371D01*
X129668741Y-73230800D02*
X129573503Y-73278419D01*
X129573503Y-73278419D02*
X129335408Y-73278419D01*
X129335408Y-73278419D02*
X129240170Y-73230800D01*
X129240170Y-73230800D02*
X129192551Y-73135561D01*
X129192551Y-73135561D02*
X129192551Y-73040323D01*
X129192551Y-73040323D02*
X129240170Y-72945085D01*
X129240170Y-72945085D02*
X129335408Y-72897466D01*
X129335408Y-72897466D02*
X129573503Y-72897466D01*
X129573503Y-72897466D02*
X129668741Y-72849847D01*
X130144932Y-73278419D02*
X130144932Y-72611752D01*
X130144932Y-72802228D02*
X130192551Y-72706990D01*
X130192551Y-72706990D02*
X130240170Y-72659371D01*
X130240170Y-72659371D02*
X130335408Y-72611752D01*
X130335408Y-72611752D02*
X130430646Y-72611752D01*
X131192551Y-73278419D02*
X131192551Y-72278419D01*
X131192551Y-73230800D02*
X131097313Y-73278419D01*
X131097313Y-73278419D02*
X130906837Y-73278419D01*
X130906837Y-73278419D02*
X130811599Y-73230800D01*
X130811599Y-73230800D02*
X130763980Y-73183180D01*
X130763980Y-73183180D02*
X130716361Y-73087942D01*
X130716361Y-73087942D02*
X130716361Y-72802228D01*
X130716361Y-72802228D02*
X130763980Y-72706990D01*
X130763980Y-72706990D02*
X130811599Y-72659371D01*
X130811599Y-72659371D02*
X130906837Y-72611752D01*
X130906837Y-72611752D02*
X131097313Y-72611752D01*
X131097313Y-72611752D02*
X131192551Y-72659371D01*
X123446265Y-127856704D02*
X123922455Y-127856704D01*
X123351027Y-128142419D02*
X123684360Y-127142419D01*
X123684360Y-127142419D02*
X124017693Y-128142419D01*
X124351027Y-128142419D02*
X124351027Y-127475752D01*
X124351027Y-127666228D02*
X124398646Y-127570990D01*
X124398646Y-127570990D02*
X124446265Y-127523371D01*
X124446265Y-127523371D02*
X124541503Y-127475752D01*
X124541503Y-127475752D02*
X124636741Y-127475752D01*
X125398646Y-128142419D02*
X125398646Y-127142419D01*
X125398646Y-128094800D02*
X125303408Y-128142419D01*
X125303408Y-128142419D02*
X125112932Y-128142419D01*
X125112932Y-128142419D02*
X125017694Y-128094800D01*
X125017694Y-128094800D02*
X124970075Y-128047180D01*
X124970075Y-128047180D02*
X124922456Y-127951942D01*
X124922456Y-127951942D02*
X124922456Y-127666228D01*
X124922456Y-127666228D02*
X124970075Y-127570990D01*
X124970075Y-127570990D02*
X125017694Y-127523371D01*
X125017694Y-127523371D02*
X125112932Y-127475752D01*
X125112932Y-127475752D02*
X125303408Y-127475752D01*
X125303408Y-127475752D02*
X125398646Y-127523371D01*
X126303408Y-127475752D02*
X126303408Y-128142419D01*
X125874837Y-127475752D02*
X125874837Y-127999561D01*
X125874837Y-127999561D02*
X125922456Y-128094800D01*
X125922456Y-128094800D02*
X126017694Y-128142419D01*
X126017694Y-128142419D02*
X126160551Y-128142419D01*
X126160551Y-128142419D02*
X126255789Y-128094800D01*
X126255789Y-128094800D02*
X126303408Y-128047180D01*
X126779599Y-128142419D02*
X126779599Y-127475752D01*
X126779599Y-127142419D02*
X126731980Y-127190038D01*
X126731980Y-127190038D02*
X126779599Y-127237657D01*
X126779599Y-127237657D02*
X126827218Y-127190038D01*
X126827218Y-127190038D02*
X126779599Y-127142419D01*
X126779599Y-127142419D02*
X126779599Y-127237657D01*
X127255789Y-127475752D02*
X127255789Y-128142419D01*
X127255789Y-127570990D02*
X127303408Y-127523371D01*
X127303408Y-127523371D02*
X127398646Y-127475752D01*
X127398646Y-127475752D02*
X127541503Y-127475752D01*
X127541503Y-127475752D02*
X127636741Y-127523371D01*
X127636741Y-127523371D02*
X127684360Y-127618609D01*
X127684360Y-127618609D02*
X127684360Y-128142419D01*
X128303408Y-128142419D02*
X128208170Y-128094800D01*
X128208170Y-128094800D02*
X128160551Y-128047180D01*
X128160551Y-128047180D02*
X128112932Y-127951942D01*
X128112932Y-127951942D02*
X128112932Y-127666228D01*
X128112932Y-127666228D02*
X128160551Y-127570990D01*
X128160551Y-127570990D02*
X128208170Y-127523371D01*
X128208170Y-127523371D02*
X128303408Y-127475752D01*
X128303408Y-127475752D02*
X128446265Y-127475752D01*
X128446265Y-127475752D02*
X128541503Y-127523371D01*
X128541503Y-127523371D02*
X128589122Y-127570990D01*
X128589122Y-127570990D02*
X128636741Y-127666228D01*
X128636741Y-127666228D02*
X128636741Y-127951942D01*
X128636741Y-127951942D02*
X128589122Y-128047180D01*
X128589122Y-128047180D02*
X128541503Y-128094800D01*
X128541503Y-128094800D02*
X128446265Y-128142419D01*
X128446265Y-128142419D02*
X128303408Y-128142419D01*
X129827218Y-128142419D02*
X129827218Y-127142419D01*
X129827218Y-127142419D02*
X130398646Y-128142419D01*
X130398646Y-128142419D02*
X130398646Y-127142419D01*
X131303408Y-128142419D02*
X131303408Y-127618609D01*
X131303408Y-127618609D02*
X131255789Y-127523371D01*
X131255789Y-127523371D02*
X131160551Y-127475752D01*
X131160551Y-127475752D02*
X130970075Y-127475752D01*
X130970075Y-127475752D02*
X130874837Y-127523371D01*
X131303408Y-128094800D02*
X131208170Y-128142419D01*
X131208170Y-128142419D02*
X130970075Y-128142419D01*
X130970075Y-128142419D02*
X130874837Y-128094800D01*
X130874837Y-128094800D02*
X130827218Y-127999561D01*
X130827218Y-127999561D02*
X130827218Y-127904323D01*
X130827218Y-127904323D02*
X130874837Y-127809085D01*
X130874837Y-127809085D02*
X130970075Y-127761466D01*
X130970075Y-127761466D02*
X131208170Y-127761466D01*
X131208170Y-127761466D02*
X131303408Y-127713847D01*
X131779599Y-127475752D02*
X131779599Y-128142419D01*
X131779599Y-127570990D02*
X131827218Y-127523371D01*
X131827218Y-127523371D02*
X131922456Y-127475752D01*
X131922456Y-127475752D02*
X132065313Y-127475752D01*
X132065313Y-127475752D02*
X132160551Y-127523371D01*
X132160551Y-127523371D02*
X132208170Y-127618609D01*
X132208170Y-127618609D02*
X132208170Y-128142419D01*
X132827218Y-128142419D02*
X132731980Y-128094800D01*
X132731980Y-128094800D02*
X132684361Y-128047180D01*
X132684361Y-128047180D02*
X132636742Y-127951942D01*
X132636742Y-127951942D02*
X132636742Y-127666228D01*
X132636742Y-127666228D02*
X132684361Y-127570990D01*
X132684361Y-127570990D02*
X132731980Y-127523371D01*
X132731980Y-127523371D02*
X132827218Y-127475752D01*
X132827218Y-127475752D02*
X132970075Y-127475752D01*
X132970075Y-127475752D02*
X133065313Y-127523371D01*
X133065313Y-127523371D02*
X133112932Y-127570990D01*
X133112932Y-127570990D02*
X133160551Y-127666228D01*
X133160551Y-127666228D02*
X133160551Y-127951942D01*
X133160551Y-127951942D02*
X133112932Y-128047180D01*
X133112932Y-128047180D02*
X133065313Y-128094800D01*
X133065313Y-128094800D02*
X132970075Y-128142419D01*
X132970075Y-128142419D02*
X132827218Y-128142419D01*
X165292693Y-108838419D02*
X164721265Y-108838419D01*
X165006979Y-108838419D02*
X165006979Y-107838419D01*
X165006979Y-107838419D02*
X164911741Y-107981276D01*
X164911741Y-107981276D02*
X164816503Y-108076514D01*
X164816503Y-108076514D02*
X164721265Y-108124133D01*
X165911741Y-107838419D02*
X166006979Y-107838419D01*
X166006979Y-107838419D02*
X166102217Y-107886038D01*
X166102217Y-107886038D02*
X166149836Y-107933657D01*
X166149836Y-107933657D02*
X166197455Y-108028895D01*
X166197455Y-108028895D02*
X166245074Y-108219371D01*
X166245074Y-108219371D02*
X166245074Y-108457466D01*
X166245074Y-108457466D02*
X166197455Y-108647942D01*
X166197455Y-108647942D02*
X166149836Y-108743180D01*
X166149836Y-108743180D02*
X166102217Y-108790800D01*
X166102217Y-108790800D02*
X166006979Y-108838419D01*
X166006979Y-108838419D02*
X165911741Y-108838419D01*
X165911741Y-108838419D02*
X165816503Y-108790800D01*
X165816503Y-108790800D02*
X165768884Y-108743180D01*
X165768884Y-108743180D02*
X165721265Y-108647942D01*
X165721265Y-108647942D02*
X165673646Y-108457466D01*
X165673646Y-108457466D02*
X165673646Y-108219371D01*
X165673646Y-108219371D02*
X165721265Y-108028895D01*
X165721265Y-108028895D02*
X165768884Y-107933657D01*
X165768884Y-107933657D02*
X165816503Y-107886038D01*
X165816503Y-107886038D02*
X165911741Y-107838419D01*
X166864122Y-107838419D02*
X166959360Y-107838419D01*
X166959360Y-107838419D02*
X167054598Y-107886038D01*
X167054598Y-107886038D02*
X167102217Y-107933657D01*
X167102217Y-107933657D02*
X167149836Y-108028895D01*
X167149836Y-108028895D02*
X167197455Y-108219371D01*
X167197455Y-108219371D02*
X167197455Y-108457466D01*
X167197455Y-108457466D02*
X167149836Y-108647942D01*
X167149836Y-108647942D02*
X167102217Y-108743180D01*
X167102217Y-108743180D02*
X167054598Y-108790800D01*
X167054598Y-108790800D02*
X166959360Y-108838419D01*
X166959360Y-108838419D02*
X166864122Y-108838419D01*
X166864122Y-108838419D02*
X166768884Y-108790800D01*
X166768884Y-108790800D02*
X166721265Y-108743180D01*
X166721265Y-108743180D02*
X166673646Y-108647942D01*
X166673646Y-108647942D02*
X166626027Y-108457466D01*
X166626027Y-108457466D02*
X166626027Y-108219371D01*
X166626027Y-108219371D02*
X166673646Y-108028895D01*
X166673646Y-108028895D02*
X166721265Y-107933657D01*
X166721265Y-107933657D02*
X166768884Y-107886038D01*
X166768884Y-107886038D02*
X166864122Y-107838419D01*
X163895693Y-89280419D02*
X163324265Y-89280419D01*
X163609979Y-89280419D02*
X163609979Y-88280419D01*
X163609979Y-88280419D02*
X163514741Y-88423276D01*
X163514741Y-88423276D02*
X163419503Y-88518514D01*
X163419503Y-88518514D02*
X163324265Y-88566133D01*
X164514741Y-88280419D02*
X164609979Y-88280419D01*
X164609979Y-88280419D02*
X164705217Y-88328038D01*
X164705217Y-88328038D02*
X164752836Y-88375657D01*
X164752836Y-88375657D02*
X164800455Y-88470895D01*
X164800455Y-88470895D02*
X164848074Y-88661371D01*
X164848074Y-88661371D02*
X164848074Y-88899466D01*
X164848074Y-88899466D02*
X164800455Y-89089942D01*
X164800455Y-89089942D02*
X164752836Y-89185180D01*
X164752836Y-89185180D02*
X164705217Y-89232800D01*
X164705217Y-89232800D02*
X164609979Y-89280419D01*
X164609979Y-89280419D02*
X164514741Y-89280419D01*
X164514741Y-89280419D02*
X164419503Y-89232800D01*
X164419503Y-89232800D02*
X164371884Y-89185180D01*
X164371884Y-89185180D02*
X164324265Y-89089942D01*
X164324265Y-89089942D02*
X164276646Y-88899466D01*
X164276646Y-88899466D02*
X164276646Y-88661371D01*
X164276646Y-88661371D02*
X164324265Y-88470895D01*
X164324265Y-88470895D02*
X164371884Y-88375657D01*
X164371884Y-88375657D02*
X164419503Y-88328038D01*
X164419503Y-88328038D02*
X164514741Y-88280419D01*
X165467122Y-88280419D02*
X165562360Y-88280419D01*
X165562360Y-88280419D02*
X165657598Y-88328038D01*
X165657598Y-88328038D02*
X165705217Y-88375657D01*
X165705217Y-88375657D02*
X165752836Y-88470895D01*
X165752836Y-88470895D02*
X165800455Y-88661371D01*
X165800455Y-88661371D02*
X165800455Y-88899466D01*
X165800455Y-88899466D02*
X165752836Y-89089942D01*
X165752836Y-89089942D02*
X165705217Y-89185180D01*
X165705217Y-89185180D02*
X165657598Y-89232800D01*
X165657598Y-89232800D02*
X165562360Y-89280419D01*
X165562360Y-89280419D02*
X165467122Y-89280419D01*
X165467122Y-89280419D02*
X165371884Y-89232800D01*
X165371884Y-89232800D02*
X165324265Y-89185180D01*
X165324265Y-89185180D02*
X165276646Y-89089942D01*
X165276646Y-89089942D02*
X165229027Y-88899466D01*
X165229027Y-88899466D02*
X165229027Y-88661371D01*
X165229027Y-88661371D02*
X165276646Y-88470895D01*
X165276646Y-88470895D02*
X165324265Y-88375657D01*
X165324265Y-88375657D02*
X165371884Y-88328038D01*
X165371884Y-88328038D02*
X165467122Y-88280419D01*
X102857217Y-75628609D02*
X103000074Y-75676228D01*
X103000074Y-75676228D02*
X103047693Y-75723847D01*
X103047693Y-75723847D02*
X103095312Y-75819085D01*
X103095312Y-75819085D02*
X103095312Y-75961942D01*
X103095312Y-75961942D02*
X103047693Y-76057180D01*
X103047693Y-76057180D02*
X103000074Y-76104800D01*
X103000074Y-76104800D02*
X102904836Y-76152419D01*
X102904836Y-76152419D02*
X102523884Y-76152419D01*
X102523884Y-76152419D02*
X102523884Y-75152419D01*
X102523884Y-75152419D02*
X102857217Y-75152419D01*
X102857217Y-75152419D02*
X102952455Y-75200038D01*
X102952455Y-75200038D02*
X103000074Y-75247657D01*
X103000074Y-75247657D02*
X103047693Y-75342895D01*
X103047693Y-75342895D02*
X103047693Y-75438133D01*
X103047693Y-75438133D02*
X103000074Y-75533371D01*
X103000074Y-75533371D02*
X102952455Y-75580990D01*
X102952455Y-75580990D02*
X102857217Y-75628609D01*
X102857217Y-75628609D02*
X102523884Y-75628609D01*
X103952455Y-76152419D02*
X103952455Y-75628609D01*
X103952455Y-75628609D02*
X103904836Y-75533371D01*
X103904836Y-75533371D02*
X103809598Y-75485752D01*
X103809598Y-75485752D02*
X103619122Y-75485752D01*
X103619122Y-75485752D02*
X103523884Y-75533371D01*
X103952455Y-76104800D02*
X103857217Y-76152419D01*
X103857217Y-76152419D02*
X103619122Y-76152419D01*
X103619122Y-76152419D02*
X103523884Y-76104800D01*
X103523884Y-76104800D02*
X103476265Y-76009561D01*
X103476265Y-76009561D02*
X103476265Y-75914323D01*
X103476265Y-75914323D02*
X103523884Y-75819085D01*
X103523884Y-75819085D02*
X103619122Y-75771466D01*
X103619122Y-75771466D02*
X103857217Y-75771466D01*
X103857217Y-75771466D02*
X103952455Y-75723847D01*
X104285789Y-75485752D02*
X104666741Y-75485752D01*
X104428646Y-75152419D02*
X104428646Y-76009561D01*
X104428646Y-76009561D02*
X104476265Y-76104800D01*
X104476265Y-76104800D02*
X104571503Y-76152419D01*
X104571503Y-76152419D02*
X104666741Y-76152419D01*
X104857218Y-75485752D02*
X105238170Y-75485752D01*
X105000075Y-75152419D02*
X105000075Y-76009561D01*
X105000075Y-76009561D02*
X105047694Y-76104800D01*
X105047694Y-76104800D02*
X105142932Y-76152419D01*
X105142932Y-76152419D02*
X105238170Y-76152419D01*
X105952456Y-76104800D02*
X105857218Y-76152419D01*
X105857218Y-76152419D02*
X105666742Y-76152419D01*
X105666742Y-76152419D02*
X105571504Y-76104800D01*
X105571504Y-76104800D02*
X105523885Y-76009561D01*
X105523885Y-76009561D02*
X105523885Y-75628609D01*
X105523885Y-75628609D02*
X105571504Y-75533371D01*
X105571504Y-75533371D02*
X105666742Y-75485752D01*
X105666742Y-75485752D02*
X105857218Y-75485752D01*
X105857218Y-75485752D02*
X105952456Y-75533371D01*
X105952456Y-75533371D02*
X106000075Y-75628609D01*
X106000075Y-75628609D02*
X106000075Y-75723847D01*
X106000075Y-75723847D02*
X105523885Y-75819085D01*
X106428647Y-76152419D02*
X106428647Y-75485752D01*
X106428647Y-75676228D02*
X106476266Y-75580990D01*
X106476266Y-75580990D02*
X106523885Y-75533371D01*
X106523885Y-75533371D02*
X106619123Y-75485752D01*
X106619123Y-75485752D02*
X106714361Y-75485752D01*
X106952457Y-75485752D02*
X107190552Y-76152419D01*
X107428647Y-75485752D02*
X107190552Y-76152419D01*
X107190552Y-76152419D02*
X107095314Y-76390514D01*
X107095314Y-76390514D02*
X107047695Y-76438133D01*
X107047695Y-76438133D02*
X106952457Y-76485752D01*
X109000076Y-76152419D02*
X109000076Y-75628609D01*
X109000076Y-75628609D02*
X108952457Y-75533371D01*
X108952457Y-75533371D02*
X108857219Y-75485752D01*
X108857219Y-75485752D02*
X108666743Y-75485752D01*
X108666743Y-75485752D02*
X108571505Y-75533371D01*
X109000076Y-76104800D02*
X108904838Y-76152419D01*
X108904838Y-76152419D02*
X108666743Y-76152419D01*
X108666743Y-76152419D02*
X108571505Y-76104800D01*
X108571505Y-76104800D02*
X108523886Y-76009561D01*
X108523886Y-76009561D02*
X108523886Y-75914323D01*
X108523886Y-75914323D02*
X108571505Y-75819085D01*
X108571505Y-75819085D02*
X108666743Y-75771466D01*
X108666743Y-75771466D02*
X108904838Y-75771466D01*
X108904838Y-75771466D02*
X109000076Y-75723847D01*
X109476267Y-75485752D02*
X109476267Y-76152419D01*
X109476267Y-75580990D02*
X109523886Y-75533371D01*
X109523886Y-75533371D02*
X109619124Y-75485752D01*
X109619124Y-75485752D02*
X109761981Y-75485752D01*
X109761981Y-75485752D02*
X109857219Y-75533371D01*
X109857219Y-75533371D02*
X109904838Y-75628609D01*
X109904838Y-75628609D02*
X109904838Y-76152419D01*
X110809600Y-76152419D02*
X110809600Y-75152419D01*
X110809600Y-76104800D02*
X110714362Y-76152419D01*
X110714362Y-76152419D02*
X110523886Y-76152419D01*
X110523886Y-76152419D02*
X110428648Y-76104800D01*
X110428648Y-76104800D02*
X110381029Y-76057180D01*
X110381029Y-76057180D02*
X110333410Y-75961942D01*
X110333410Y-75961942D02*
X110333410Y-75676228D01*
X110333410Y-75676228D02*
X110381029Y-75580990D01*
X110381029Y-75580990D02*
X110428648Y-75533371D01*
X110428648Y-75533371D02*
X110523886Y-75485752D01*
X110523886Y-75485752D02*
X110714362Y-75485752D01*
X110714362Y-75485752D02*
X110809600Y-75533371D01*
X112047696Y-75628609D02*
X112381029Y-75628609D01*
X112523886Y-76152419D02*
X112047696Y-76152419D01*
X112047696Y-76152419D02*
X112047696Y-75152419D01*
X112047696Y-75152419D02*
X112523886Y-75152419D01*
X112904839Y-76104800D02*
X113047696Y-76152419D01*
X113047696Y-76152419D02*
X113285791Y-76152419D01*
X113285791Y-76152419D02*
X113381029Y-76104800D01*
X113381029Y-76104800D02*
X113428648Y-76057180D01*
X113428648Y-76057180D02*
X113476267Y-75961942D01*
X113476267Y-75961942D02*
X113476267Y-75866704D01*
X113476267Y-75866704D02*
X113428648Y-75771466D01*
X113428648Y-75771466D02*
X113381029Y-75723847D01*
X113381029Y-75723847D02*
X113285791Y-75676228D01*
X113285791Y-75676228D02*
X113095315Y-75628609D01*
X113095315Y-75628609D02*
X113000077Y-75580990D01*
X113000077Y-75580990D02*
X112952458Y-75533371D01*
X112952458Y-75533371D02*
X112904839Y-75438133D01*
X112904839Y-75438133D02*
X112904839Y-75342895D01*
X112904839Y-75342895D02*
X112952458Y-75247657D01*
X112952458Y-75247657D02*
X113000077Y-75200038D01*
X113000077Y-75200038D02*
X113095315Y-75152419D01*
X113095315Y-75152419D02*
X113333410Y-75152419D01*
X113333410Y-75152419D02*
X113476267Y-75200038D01*
X114476267Y-76057180D02*
X114428648Y-76104800D01*
X114428648Y-76104800D02*
X114285791Y-76152419D01*
X114285791Y-76152419D02*
X114190553Y-76152419D01*
X114190553Y-76152419D02*
X114047696Y-76104800D01*
X114047696Y-76104800D02*
X113952458Y-76009561D01*
X113952458Y-76009561D02*
X113904839Y-75914323D01*
X113904839Y-75914323D02*
X113857220Y-75723847D01*
X113857220Y-75723847D02*
X113857220Y-75580990D01*
X113857220Y-75580990D02*
X113904839Y-75390514D01*
X113904839Y-75390514D02*
X113952458Y-75295276D01*
X113952458Y-75295276D02*
X114047696Y-75200038D01*
X114047696Y-75200038D02*
X114190553Y-75152419D01*
X114190553Y-75152419D02*
X114285791Y-75152419D01*
X114285791Y-75152419D02*
X114428648Y-75200038D01*
X114428648Y-75200038D02*
X114476267Y-75247657D01*
X105999646Y-110759419D02*
X106618693Y-110759419D01*
X106618693Y-110759419D02*
X106285360Y-111140371D01*
X106285360Y-111140371D02*
X106428217Y-111140371D01*
X106428217Y-111140371D02*
X106523455Y-111187990D01*
X106523455Y-111187990D02*
X106571074Y-111235609D01*
X106571074Y-111235609D02*
X106618693Y-111330847D01*
X106618693Y-111330847D02*
X106618693Y-111568942D01*
X106618693Y-111568942D02*
X106571074Y-111664180D01*
X106571074Y-111664180D02*
X106523455Y-111711800D01*
X106523455Y-111711800D02*
X106428217Y-111759419D01*
X106428217Y-111759419D02*
X106142503Y-111759419D01*
X106142503Y-111759419D02*
X106047265Y-111711800D01*
X106047265Y-111711800D02*
X105999646Y-111664180D01*
X107237741Y-110759419D02*
X107332979Y-110759419D01*
X107332979Y-110759419D02*
X107428217Y-110807038D01*
X107428217Y-110807038D02*
X107475836Y-110854657D01*
X107475836Y-110854657D02*
X107523455Y-110949895D01*
X107523455Y-110949895D02*
X107571074Y-111140371D01*
X107571074Y-111140371D02*
X107571074Y-111378466D01*
X107571074Y-111378466D02*
X107523455Y-111568942D01*
X107523455Y-111568942D02*
X107475836Y-111664180D01*
X107475836Y-111664180D02*
X107428217Y-111711800D01*
X107428217Y-111711800D02*
X107332979Y-111759419D01*
X107332979Y-111759419D02*
X107237741Y-111759419D01*
X107237741Y-111759419D02*
X107142503Y-111711800D01*
X107142503Y-111711800D02*
X107094884Y-111664180D01*
X107094884Y-111664180D02*
X107047265Y-111568942D01*
X107047265Y-111568942D02*
X106999646Y-111378466D01*
X106999646Y-111378466D02*
X106999646Y-111140371D01*
X106999646Y-111140371D02*
X107047265Y-110949895D01*
X107047265Y-110949895D02*
X107094884Y-110854657D01*
X107094884Y-110854657D02*
X107142503Y-110807038D01*
X107142503Y-110807038D02*
X107237741Y-110759419D01*
X107999646Y-111759419D02*
X107999646Y-110759419D01*
X108094884Y-111378466D02*
X108380598Y-111759419D01*
X108380598Y-111092752D02*
X107999646Y-111473704D01*
X152322884Y-122554419D02*
X152322884Y-121554419D01*
X152322884Y-121554419D02*
X152703836Y-121554419D01*
X152703836Y-121554419D02*
X152799074Y-121602038D01*
X152799074Y-121602038D02*
X152846693Y-121649657D01*
X152846693Y-121649657D02*
X152894312Y-121744895D01*
X152894312Y-121744895D02*
X152894312Y-121887752D01*
X152894312Y-121887752D02*
X152846693Y-121982990D01*
X152846693Y-121982990D02*
X152799074Y-122030609D01*
X152799074Y-122030609D02*
X152703836Y-122078228D01*
X152703836Y-122078228D02*
X152322884Y-122078228D01*
X153322884Y-122554419D02*
X153322884Y-121887752D01*
X153322884Y-121554419D02*
X153275265Y-121602038D01*
X153275265Y-121602038D02*
X153322884Y-121649657D01*
X153322884Y-121649657D02*
X153370503Y-121602038D01*
X153370503Y-121602038D02*
X153322884Y-121554419D01*
X153322884Y-121554419D02*
X153322884Y-121649657D01*
X153656217Y-121887752D02*
X154037169Y-121887752D01*
X153799074Y-121554419D02*
X153799074Y-122411561D01*
X153799074Y-122411561D02*
X153846693Y-122506800D01*
X153846693Y-122506800D02*
X153941931Y-122554419D01*
X153941931Y-122554419D02*
X154037169Y-122554419D01*
X154513360Y-122554419D02*
X154418122Y-122506800D01*
X154418122Y-122506800D02*
X154370503Y-122459180D01*
X154370503Y-122459180D02*
X154322884Y-122363942D01*
X154322884Y-122363942D02*
X154322884Y-122078228D01*
X154322884Y-122078228D02*
X154370503Y-121982990D01*
X154370503Y-121982990D02*
X154418122Y-121935371D01*
X154418122Y-121935371D02*
X154513360Y-121887752D01*
X154513360Y-121887752D02*
X154656217Y-121887752D01*
X154656217Y-121887752D02*
X154751455Y-121935371D01*
X154751455Y-121935371D02*
X154799074Y-121982990D01*
X154799074Y-121982990D02*
X154846693Y-122078228D01*
X154846693Y-122078228D02*
X154846693Y-122363942D01*
X154846693Y-122363942D02*
X154799074Y-122459180D01*
X154799074Y-122459180D02*
X154751455Y-122506800D01*
X154751455Y-122506800D02*
X154656217Y-122554419D01*
X154656217Y-122554419D02*
X154513360Y-122554419D01*
X155132408Y-121887752D02*
X155513360Y-121887752D01*
X155275265Y-121554419D02*
X155275265Y-122411561D01*
X155275265Y-122411561D02*
X155322884Y-122506800D01*
X155322884Y-122506800D02*
X155418122Y-122554419D01*
X155418122Y-122554419D02*
X155513360Y-122554419D01*
X156465742Y-121554419D02*
X157037170Y-121554419D01*
X156751456Y-122554419D02*
X156751456Y-121554419D01*
X157799075Y-121887752D02*
X157799075Y-122554419D01*
X157370504Y-121887752D02*
X157370504Y-122411561D01*
X157370504Y-122411561D02*
X157418123Y-122506800D01*
X157418123Y-122506800D02*
X157513361Y-122554419D01*
X157513361Y-122554419D02*
X157656218Y-122554419D01*
X157656218Y-122554419D02*
X157751456Y-122506800D01*
X157751456Y-122506800D02*
X157799075Y-122459180D01*
X158275266Y-122554419D02*
X158275266Y-121554419D01*
X158275266Y-121935371D02*
X158370504Y-121887752D01*
X158370504Y-121887752D02*
X158560980Y-121887752D01*
X158560980Y-121887752D02*
X158656218Y-121935371D01*
X158656218Y-121935371D02*
X158703837Y-121982990D01*
X158703837Y-121982990D02*
X158751456Y-122078228D01*
X158751456Y-122078228D02*
X158751456Y-122363942D01*
X158751456Y-122363942D02*
X158703837Y-122459180D01*
X158703837Y-122459180D02*
X158656218Y-122506800D01*
X158656218Y-122506800D02*
X158560980Y-122554419D01*
X158560980Y-122554419D02*
X158370504Y-122554419D01*
X158370504Y-122554419D02*
X158275266Y-122506800D01*
X159560980Y-122506800D02*
X159465742Y-122554419D01*
X159465742Y-122554419D02*
X159275266Y-122554419D01*
X159275266Y-122554419D02*
X159180028Y-122506800D01*
X159180028Y-122506800D02*
X159132409Y-122411561D01*
X159132409Y-122411561D02*
X159132409Y-122030609D01*
X159132409Y-122030609D02*
X159180028Y-121935371D01*
X159180028Y-121935371D02*
X159275266Y-121887752D01*
X159275266Y-121887752D02*
X159465742Y-121887752D01*
X159465742Y-121887752D02*
X159560980Y-121935371D01*
X159560980Y-121935371D02*
X159608599Y-122030609D01*
X159608599Y-122030609D02*
X159608599Y-122125847D01*
X159608599Y-122125847D02*
X159132409Y-122221085D01*
X159831693Y-84327419D02*
X159260265Y-84327419D01*
X159545979Y-84327419D02*
X159545979Y-83327419D01*
X159545979Y-83327419D02*
X159450741Y-83470276D01*
X159450741Y-83470276D02*
X159355503Y-83565514D01*
X159355503Y-83565514D02*
X159260265Y-83613133D01*
X160450741Y-83327419D02*
X160545979Y-83327419D01*
X160545979Y-83327419D02*
X160641217Y-83375038D01*
X160641217Y-83375038D02*
X160688836Y-83422657D01*
X160688836Y-83422657D02*
X160736455Y-83517895D01*
X160736455Y-83517895D02*
X160784074Y-83708371D01*
X160784074Y-83708371D02*
X160784074Y-83946466D01*
X160784074Y-83946466D02*
X160736455Y-84136942D01*
X160736455Y-84136942D02*
X160688836Y-84232180D01*
X160688836Y-84232180D02*
X160641217Y-84279800D01*
X160641217Y-84279800D02*
X160545979Y-84327419D01*
X160545979Y-84327419D02*
X160450741Y-84327419D01*
X160450741Y-84327419D02*
X160355503Y-84279800D01*
X160355503Y-84279800D02*
X160307884Y-84232180D01*
X160307884Y-84232180D02*
X160260265Y-84136942D01*
X160260265Y-84136942D02*
X160212646Y-83946466D01*
X160212646Y-83946466D02*
X160212646Y-83708371D01*
X160212646Y-83708371D02*
X160260265Y-83517895D01*
X160260265Y-83517895D02*
X160307884Y-83422657D01*
X160307884Y-83422657D02*
X160355503Y-83375038D01*
X160355503Y-83375038D02*
X160450741Y-83327419D01*
X161641217Y-83660752D02*
X161641217Y-84327419D01*
X161212646Y-83660752D02*
X161212646Y-84184561D01*
X161212646Y-84184561D02*
X161260265Y-84279800D01*
X161260265Y-84279800D02*
X161355503Y-84327419D01*
X161355503Y-84327419D02*
X161498360Y-84327419D01*
X161498360Y-84327419D02*
X161593598Y-84279800D01*
X161593598Y-84279800D02*
X161641217Y-84232180D01*
X152973693Y-88772419D02*
X152402265Y-88772419D01*
X152687979Y-88772419D02*
X152687979Y-87772419D01*
X152687979Y-87772419D02*
X152592741Y-87915276D01*
X152592741Y-87915276D02*
X152497503Y-88010514D01*
X152497503Y-88010514D02*
X152402265Y-88058133D01*
X153592741Y-87772419D02*
X153687979Y-87772419D01*
X153687979Y-87772419D02*
X153783217Y-87820038D01*
X153783217Y-87820038D02*
X153830836Y-87867657D01*
X153830836Y-87867657D02*
X153878455Y-87962895D01*
X153878455Y-87962895D02*
X153926074Y-88153371D01*
X153926074Y-88153371D02*
X153926074Y-88391466D01*
X153926074Y-88391466D02*
X153878455Y-88581942D01*
X153878455Y-88581942D02*
X153830836Y-88677180D01*
X153830836Y-88677180D02*
X153783217Y-88724800D01*
X153783217Y-88724800D02*
X153687979Y-88772419D01*
X153687979Y-88772419D02*
X153592741Y-88772419D01*
X153592741Y-88772419D02*
X153497503Y-88724800D01*
X153497503Y-88724800D02*
X153449884Y-88677180D01*
X153449884Y-88677180D02*
X153402265Y-88581942D01*
X153402265Y-88581942D02*
X153354646Y-88391466D01*
X153354646Y-88391466D02*
X153354646Y-88153371D01*
X153354646Y-88153371D02*
X153402265Y-87962895D01*
X153402265Y-87962895D02*
X153449884Y-87867657D01*
X153449884Y-87867657D02*
X153497503Y-87820038D01*
X153497503Y-87820038D02*
X153592741Y-87772419D01*
X154783217Y-88105752D02*
X154783217Y-88772419D01*
X154354646Y-88105752D02*
X154354646Y-88629561D01*
X154354646Y-88629561D02*
X154402265Y-88724800D01*
X154402265Y-88724800D02*
X154497503Y-88772419D01*
X154497503Y-88772419D02*
X154640360Y-88772419D01*
X154640360Y-88772419D02*
X154735598Y-88724800D01*
X154735598Y-88724800D02*
X154783217Y-88677180D01*
X112222693Y-121705419D02*
X111651265Y-121705419D01*
X111936979Y-121705419D02*
X111936979Y-120705419D01*
X111936979Y-120705419D02*
X111841741Y-120848276D01*
X111841741Y-120848276D02*
X111746503Y-120943514D01*
X111746503Y-120943514D02*
X111651265Y-120991133D01*
X112841741Y-120705419D02*
X112936979Y-120705419D01*
X112936979Y-120705419D02*
X113032217Y-120753038D01*
X113032217Y-120753038D02*
X113079836Y-120800657D01*
X113079836Y-120800657D02*
X113127455Y-120895895D01*
X113127455Y-120895895D02*
X113175074Y-121086371D01*
X113175074Y-121086371D02*
X113175074Y-121324466D01*
X113175074Y-121324466D02*
X113127455Y-121514942D01*
X113127455Y-121514942D02*
X113079836Y-121610180D01*
X113079836Y-121610180D02*
X113032217Y-121657800D01*
X113032217Y-121657800D02*
X112936979Y-121705419D01*
X112936979Y-121705419D02*
X112841741Y-121705419D01*
X112841741Y-121705419D02*
X112746503Y-121657800D01*
X112746503Y-121657800D02*
X112698884Y-121610180D01*
X112698884Y-121610180D02*
X112651265Y-121514942D01*
X112651265Y-121514942D02*
X112603646Y-121324466D01*
X112603646Y-121324466D02*
X112603646Y-121086371D01*
X112603646Y-121086371D02*
X112651265Y-120895895D01*
X112651265Y-120895895D02*
X112698884Y-120800657D01*
X112698884Y-120800657D02*
X112746503Y-120753038D01*
X112746503Y-120753038D02*
X112841741Y-120705419D01*
X113603646Y-121038752D02*
X113603646Y-121705419D01*
X113603646Y-121133990D02*
X113651265Y-121086371D01*
X113651265Y-121086371D02*
X113746503Y-121038752D01*
X113746503Y-121038752D02*
X113889360Y-121038752D01*
X113889360Y-121038752D02*
X113984598Y-121086371D01*
X113984598Y-121086371D02*
X114032217Y-121181609D01*
X114032217Y-121181609D02*
X114032217Y-121705419D01*
X162294180Y-100850666D02*
X162341800Y-100898285D01*
X162341800Y-100898285D02*
X162389419Y-101041142D01*
X162389419Y-101041142D02*
X162389419Y-101136380D01*
X162389419Y-101136380D02*
X162341800Y-101279237D01*
X162341800Y-101279237D02*
X162246561Y-101374475D01*
X162246561Y-101374475D02*
X162151323Y-101422094D01*
X162151323Y-101422094D02*
X161960847Y-101469713D01*
X161960847Y-101469713D02*
X161817990Y-101469713D01*
X161817990Y-101469713D02*
X161627514Y-101422094D01*
X161627514Y-101422094D02*
X161532276Y-101374475D01*
X161532276Y-101374475D02*
X161437038Y-101279237D01*
X161437038Y-101279237D02*
X161389419Y-101136380D01*
X161389419Y-101136380D02*
X161389419Y-101041142D01*
X161389419Y-101041142D02*
X161437038Y-100898285D01*
X161437038Y-100898285D02*
X161484657Y-100850666D01*
X161722752Y-99993523D02*
X162389419Y-99993523D01*
X161341800Y-100231618D02*
X162056085Y-100469713D01*
X162056085Y-100469713D02*
X162056085Y-99850666D01*
D11*
X128825714Y-79967104D02*
X129301904Y-79967104D01*
X128730476Y-80252819D02*
X129063809Y-79252819D01*
X129063809Y-79252819D02*
X129397142Y-80252819D01*
X130254285Y-80252819D02*
X129682857Y-80252819D01*
X129968571Y-80252819D02*
X129968571Y-79252819D01*
X129968571Y-79252819D02*
X129873333Y-79395676D01*
X129873333Y-79395676D02*
X129778095Y-79490914D01*
X129778095Y-79490914D02*
X129682857Y-79538533D01*
X128278095Y-119892819D02*
X128278095Y-120702342D01*
X128278095Y-120702342D02*
X128325714Y-120797580D01*
X128325714Y-120797580D02*
X128373333Y-120845200D01*
X128373333Y-120845200D02*
X128468571Y-120892819D01*
X128468571Y-120892819D02*
X128659047Y-120892819D01*
X128659047Y-120892819D02*
X128754285Y-120845200D01*
X128754285Y-120845200D02*
X128801904Y-120797580D01*
X128801904Y-120797580D02*
X128849523Y-120702342D01*
X128849523Y-120702342D02*
X128849523Y-119892819D01*
X129278095Y-120845200D02*
X129420952Y-120892819D01*
X129420952Y-120892819D02*
X129659047Y-120892819D01*
X129659047Y-120892819D02*
X129754285Y-120845200D01*
X129754285Y-120845200D02*
X129801904Y-120797580D01*
X129801904Y-120797580D02*
X129849523Y-120702342D01*
X129849523Y-120702342D02*
X129849523Y-120607104D01*
X129849523Y-120607104D02*
X129801904Y-120511866D01*
X129801904Y-120511866D02*
X129754285Y-120464247D01*
X129754285Y-120464247D02*
X129659047Y-120416628D01*
X129659047Y-120416628D02*
X129468571Y-120369009D01*
X129468571Y-120369009D02*
X129373333Y-120321390D01*
X129373333Y-120321390D02*
X129325714Y-120273771D01*
X129325714Y-120273771D02*
X129278095Y-120178533D01*
X129278095Y-120178533D02*
X129278095Y-120083295D01*
X129278095Y-120083295D02*
X129325714Y-119988057D01*
X129325714Y-119988057D02*
X129373333Y-119940438D01*
X129373333Y-119940438D02*
X129468571Y-119892819D01*
X129468571Y-119892819D02*
X129706666Y-119892819D01*
X129706666Y-119892819D02*
X129849523Y-119940438D01*
X130611428Y-120369009D02*
X130754285Y-120416628D01*
X130754285Y-120416628D02*
X130801904Y-120464247D01*
X130801904Y-120464247D02*
X130849523Y-120559485D01*
X130849523Y-120559485D02*
X130849523Y-120702342D01*
X130849523Y-120702342D02*
X130801904Y-120797580D01*
X130801904Y-120797580D02*
X130754285Y-120845200D01*
X130754285Y-120845200D02*
X130659047Y-120892819D01*
X130659047Y-120892819D02*
X130278095Y-120892819D01*
X130278095Y-120892819D02*
X130278095Y-119892819D01*
X130278095Y-119892819D02*
X130611428Y-119892819D01*
X130611428Y-119892819D02*
X130706666Y-119940438D01*
X130706666Y-119940438D02*
X130754285Y-119988057D01*
X130754285Y-119988057D02*
X130801904Y-120083295D01*
X130801904Y-120083295D02*
X130801904Y-120178533D01*
X130801904Y-120178533D02*
X130754285Y-120273771D01*
X130754285Y-120273771D02*
X130706666Y-120321390D01*
X130706666Y-120321390D02*
X130611428Y-120369009D01*
X130611428Y-120369009D02*
X130278095Y-120369009D01*
X116060315Y-121922279D02*
X116060315Y-122731802D01*
X116060315Y-122731802D02*
X116107934Y-122827040D01*
X116107934Y-122827040D02*
X116155553Y-122874660D01*
X116155553Y-122874660D02*
X116250791Y-122922279D01*
X116250791Y-122922279D02*
X116441267Y-122922279D01*
X116441267Y-122922279D02*
X116536505Y-122874660D01*
X116536505Y-122874660D02*
X116584124Y-122827040D01*
X116584124Y-122827040D02*
X116631743Y-122731802D01*
X116631743Y-122731802D02*
X116631743Y-121922279D01*
X117631743Y-122922279D02*
X117060315Y-122922279D01*
X117346029Y-122922279D02*
X117346029Y-121922279D01*
X117346029Y-121922279D02*
X117250791Y-122065136D01*
X117250791Y-122065136D02*
X117155553Y-122160374D01*
X117155553Y-122160374D02*
X117060315Y-122207993D01*
D10*
X101966666Y-95477419D02*
X101966666Y-96191704D01*
X101966666Y-96191704D02*
X101919047Y-96334561D01*
X101919047Y-96334561D02*
X101823809Y-96429800D01*
X101823809Y-96429800D02*
X101680952Y-96477419D01*
X101680952Y-96477419D02*
X101585714Y-96477419D01*
X102347619Y-95477419D02*
X102966666Y-95477419D01*
X102966666Y-95477419D02*
X102633333Y-95858371D01*
X102633333Y-95858371D02*
X102776190Y-95858371D01*
X102776190Y-95858371D02*
X102871428Y-95905990D01*
X102871428Y-95905990D02*
X102919047Y-95953609D01*
X102919047Y-95953609D02*
X102966666Y-96048847D01*
X102966666Y-96048847D02*
X102966666Y-96286942D01*
X102966666Y-96286942D02*
X102919047Y-96382180D01*
X102919047Y-96382180D02*
X102871428Y-96429800D01*
X102871428Y-96429800D02*
X102776190Y-96477419D01*
X102776190Y-96477419D02*
X102490476Y-96477419D01*
X102490476Y-96477419D02*
X102395238Y-96429800D01*
X102395238Y-96429800D02*
X102347619Y-96382180D01*
D11*
X142711819Y-117568904D02*
X143521342Y-117568904D01*
X143521342Y-117568904D02*
X143616580Y-117521285D01*
X143616580Y-117521285D02*
X143664200Y-117473666D01*
X143664200Y-117473666D02*
X143711819Y-117378428D01*
X143711819Y-117378428D02*
X143711819Y-117187952D01*
X143711819Y-117187952D02*
X143664200Y-117092714D01*
X143664200Y-117092714D02*
X143616580Y-117045095D01*
X143616580Y-117045095D02*
X143521342Y-116997476D01*
X143521342Y-116997476D02*
X142711819Y-116997476D01*
X143045152Y-116092714D02*
X143711819Y-116092714D01*
X142664200Y-116330809D02*
X143378485Y-116568904D01*
X143378485Y-116568904D02*
X143378485Y-115949857D01*
X157654666Y-100090819D02*
X157654666Y-100805104D01*
X157654666Y-100805104D02*
X157607047Y-100947961D01*
X157607047Y-100947961D02*
X157511809Y-101043200D01*
X157511809Y-101043200D02*
X157368952Y-101090819D01*
X157368952Y-101090819D02*
X157273714Y-101090819D01*
X158654666Y-101090819D02*
X158083238Y-101090819D01*
X158368952Y-101090819D02*
X158368952Y-100090819D01*
X158368952Y-100090819D02*
X158273714Y-100233676D01*
X158273714Y-100233676D02*
X158178476Y-100328914D01*
X158178476Y-100328914D02*
X158083238Y-100376533D01*
D10*
X153556576Y-86213666D02*
X153604196Y-86261285D01*
X153604196Y-86261285D02*
X153651815Y-86404142D01*
X153651815Y-86404142D02*
X153651815Y-86499380D01*
X153651815Y-86499380D02*
X153604196Y-86642237D01*
X153604196Y-86642237D02*
X153508957Y-86737475D01*
X153508957Y-86737475D02*
X153413719Y-86785094D01*
X153413719Y-86785094D02*
X153223243Y-86832713D01*
X153223243Y-86832713D02*
X153080386Y-86832713D01*
X153080386Y-86832713D02*
X152889910Y-86785094D01*
X152889910Y-86785094D02*
X152794672Y-86737475D01*
X152794672Y-86737475D02*
X152699434Y-86642237D01*
X152699434Y-86642237D02*
X152651815Y-86499380D01*
X152651815Y-86499380D02*
X152651815Y-86404142D01*
X152651815Y-86404142D02*
X152699434Y-86261285D01*
X152699434Y-86261285D02*
X152747053Y-86213666D01*
X153651815Y-85261285D02*
X153651815Y-85832713D01*
X153651815Y-85546999D02*
X152651815Y-85546999D01*
X152651815Y-85546999D02*
X152794672Y-85642237D01*
X152794672Y-85642237D02*
X152889910Y-85737475D01*
X152889910Y-85737475D02*
X152937529Y-85832713D01*
X102042095Y-99047419D02*
X102042095Y-99856942D01*
X102042095Y-99856942D02*
X102089714Y-99952180D01*
X102089714Y-99952180D02*
X102137333Y-99999800D01*
X102137333Y-99999800D02*
X102232571Y-100047419D01*
X102232571Y-100047419D02*
X102423047Y-100047419D01*
X102423047Y-100047419D02*
X102518285Y-99999800D01*
X102518285Y-99999800D02*
X102565904Y-99952180D01*
X102565904Y-99952180D02*
X102613523Y-99856942D01*
X102613523Y-99856942D02*
X102613523Y-99047419D01*
X103042095Y-99142657D02*
X103089714Y-99095038D01*
X103089714Y-99095038D02*
X103184952Y-99047419D01*
X103184952Y-99047419D02*
X103423047Y-99047419D01*
X103423047Y-99047419D02*
X103518285Y-99095038D01*
X103518285Y-99095038D02*
X103565904Y-99142657D01*
X103565904Y-99142657D02*
X103613523Y-99237895D01*
X103613523Y-99237895D02*
X103613523Y-99333133D01*
X103613523Y-99333133D02*
X103565904Y-99475990D01*
X103565904Y-99475990D02*
X102994476Y-100047419D01*
X102994476Y-100047419D02*
X103613523Y-100047419D01*
D11*
X151616657Y-79557057D02*
X151521419Y-79509438D01*
X151521419Y-79509438D02*
X151426181Y-79414200D01*
X151426181Y-79414200D02*
X151283324Y-79271342D01*
X151283324Y-79271342D02*
X151188086Y-79223723D01*
X151188086Y-79223723D02*
X151092848Y-79223723D01*
X151140467Y-79461819D02*
X151045229Y-79414200D01*
X151045229Y-79414200D02*
X150949991Y-79318961D01*
X150949991Y-79318961D02*
X150902372Y-79128485D01*
X150902372Y-79128485D02*
X150902372Y-78795152D01*
X150902372Y-78795152D02*
X150949991Y-78604676D01*
X150949991Y-78604676D02*
X151045229Y-78509438D01*
X151045229Y-78509438D02*
X151140467Y-78461819D01*
X151140467Y-78461819D02*
X151330943Y-78461819D01*
X151330943Y-78461819D02*
X151426181Y-78509438D01*
X151426181Y-78509438D02*
X151521419Y-78604676D01*
X151521419Y-78604676D02*
X151569038Y-78795152D01*
X151569038Y-78795152D02*
X151569038Y-79128485D01*
X151569038Y-79128485D02*
X151521419Y-79318961D01*
X151521419Y-79318961D02*
X151426181Y-79414200D01*
X151426181Y-79414200D02*
X151330943Y-79461819D01*
X151330943Y-79461819D02*
X151140467Y-79461819D01*
X152521419Y-79461819D02*
X151949991Y-79461819D01*
X152235705Y-79461819D02*
X152235705Y-78461819D01*
X152235705Y-78461819D02*
X152140467Y-78604676D01*
X152140467Y-78604676D02*
X152045229Y-78699914D01*
X152045229Y-78699914D02*
X151949991Y-78747533D01*
D10*
X114032819Y-119466333D02*
X113985200Y-119418714D01*
X113985200Y-119418714D02*
X113937580Y-119275857D01*
X113937580Y-119275857D02*
X113937580Y-119180619D01*
X113937580Y-119180619D02*
X113985200Y-119037762D01*
X113985200Y-119037762D02*
X114080438Y-118942524D01*
X114080438Y-118942524D02*
X114175676Y-118894905D01*
X114175676Y-118894905D02*
X114366152Y-118847286D01*
X114366152Y-118847286D02*
X114509009Y-118847286D01*
X114509009Y-118847286D02*
X114699485Y-118894905D01*
X114699485Y-118894905D02*
X114794723Y-118942524D01*
X114794723Y-118942524D02*
X114889961Y-119037762D01*
X114889961Y-119037762D02*
X114937580Y-119180619D01*
X114937580Y-119180619D02*
X114937580Y-119275857D01*
X114937580Y-119275857D02*
X114889961Y-119418714D01*
X114889961Y-119418714D02*
X114842342Y-119466333D01*
X114937580Y-120371095D02*
X114937580Y-119894905D01*
X114937580Y-119894905D02*
X114461390Y-119847286D01*
X114461390Y-119847286D02*
X114509009Y-119894905D01*
X114509009Y-119894905D02*
X114556628Y-119990143D01*
X114556628Y-119990143D02*
X114556628Y-120228238D01*
X114556628Y-120228238D02*
X114509009Y-120323476D01*
X114509009Y-120323476D02*
X114461390Y-120371095D01*
X114461390Y-120371095D02*
X114366152Y-120418714D01*
X114366152Y-120418714D02*
X114128057Y-120418714D01*
X114128057Y-120418714D02*
X114032819Y-120371095D01*
X114032819Y-120371095D02*
X113985200Y-120323476D01*
X113985200Y-120323476D02*
X113937580Y-120228238D01*
X113937580Y-120228238D02*
X113937580Y-119990143D01*
X113937580Y-119990143D02*
X113985200Y-119894905D01*
X113985200Y-119894905D02*
X114032819Y-119847286D01*
D11*
X142392491Y-86761819D02*
X142392491Y-87571342D01*
X142392491Y-87571342D02*
X142440110Y-87666580D01*
X142440110Y-87666580D02*
X142487729Y-87714200D01*
X142487729Y-87714200D02*
X142582967Y-87761819D01*
X142582967Y-87761819D02*
X142773443Y-87761819D01*
X142773443Y-87761819D02*
X142868681Y-87714200D01*
X142868681Y-87714200D02*
X142916300Y-87666580D01*
X142916300Y-87666580D02*
X142963919Y-87571342D01*
X142963919Y-87571342D02*
X142963919Y-86761819D01*
X143344872Y-86761819D02*
X143963919Y-86761819D01*
X143963919Y-86761819D02*
X143630586Y-87142771D01*
X143630586Y-87142771D02*
X143773443Y-87142771D01*
X143773443Y-87142771D02*
X143868681Y-87190390D01*
X143868681Y-87190390D02*
X143916300Y-87238009D01*
X143916300Y-87238009D02*
X143963919Y-87333247D01*
X143963919Y-87333247D02*
X143963919Y-87571342D01*
X143963919Y-87571342D02*
X143916300Y-87666580D01*
X143916300Y-87666580D02*
X143868681Y-87714200D01*
X143868681Y-87714200D02*
X143773443Y-87761819D01*
X143773443Y-87761819D02*
X143487729Y-87761819D01*
X143487729Y-87761819D02*
X143392491Y-87714200D01*
X143392491Y-87714200D02*
X143344872Y-87666580D01*
D10*
X113966666Y-95477419D02*
X113966666Y-96191704D01*
X113966666Y-96191704D02*
X113919047Y-96334561D01*
X113919047Y-96334561D02*
X113823809Y-96429800D01*
X113823809Y-96429800D02*
X113680952Y-96477419D01*
X113680952Y-96477419D02*
X113585714Y-96477419D01*
X114871428Y-95810752D02*
X114871428Y-96477419D01*
X114633333Y-95429800D02*
X114395238Y-96144085D01*
X114395238Y-96144085D02*
X115014285Y-96144085D01*
X155581062Y-81164819D02*
X155628681Y-81117200D01*
X155628681Y-81117200D02*
X155771538Y-81069580D01*
X155771538Y-81069580D02*
X155866776Y-81069580D01*
X155866776Y-81069580D02*
X156009633Y-81117200D01*
X156009633Y-81117200D02*
X156104871Y-81212438D01*
X156104871Y-81212438D02*
X156152490Y-81307676D01*
X156152490Y-81307676D02*
X156200109Y-81498152D01*
X156200109Y-81498152D02*
X156200109Y-81641009D01*
X156200109Y-81641009D02*
X156152490Y-81831485D01*
X156152490Y-81831485D02*
X156104871Y-81926723D01*
X156104871Y-81926723D02*
X156009633Y-82021961D01*
X156009633Y-82021961D02*
X155866776Y-82069580D01*
X155866776Y-82069580D02*
X155771538Y-82069580D01*
X155771538Y-82069580D02*
X155628681Y-82021961D01*
X155628681Y-82021961D02*
X155581062Y-81974342D01*
X155247728Y-82069580D02*
X154628681Y-82069580D01*
X154628681Y-82069580D02*
X154962014Y-81688628D01*
X154962014Y-81688628D02*
X154819157Y-81688628D01*
X154819157Y-81688628D02*
X154723919Y-81641009D01*
X154723919Y-81641009D02*
X154676300Y-81593390D01*
X154676300Y-81593390D02*
X154628681Y-81498152D01*
X154628681Y-81498152D02*
X154628681Y-81260057D01*
X154628681Y-81260057D02*
X154676300Y-81164819D01*
X154676300Y-81164819D02*
X154723919Y-81117200D01*
X154723919Y-81117200D02*
X154819157Y-81069580D01*
X154819157Y-81069580D02*
X155104871Y-81069580D01*
X155104871Y-81069580D02*
X155200109Y-81117200D01*
X155200109Y-81117200D02*
X155247728Y-81164819D01*
D11*
X127996666Y-78454819D02*
X127996666Y-79169104D01*
X127996666Y-79169104D02*
X127949047Y-79311961D01*
X127949047Y-79311961D02*
X127853809Y-79407200D01*
X127853809Y-79407200D02*
X127710952Y-79454819D01*
X127710952Y-79454819D02*
X127615714Y-79454819D01*
X128425238Y-78550057D02*
X128472857Y-78502438D01*
X128472857Y-78502438D02*
X128568095Y-78454819D01*
X128568095Y-78454819D02*
X128806190Y-78454819D01*
X128806190Y-78454819D02*
X128901428Y-78502438D01*
X128901428Y-78502438D02*
X128949047Y-78550057D01*
X128949047Y-78550057D02*
X128996666Y-78645295D01*
X128996666Y-78645295D02*
X128996666Y-78740533D01*
X128996666Y-78740533D02*
X128949047Y-78883390D01*
X128949047Y-78883390D02*
X128377619Y-79454819D01*
X128377619Y-79454819D02*
X128996666Y-79454819D01*
D10*
X155612215Y-86220333D02*
X155564596Y-86172714D01*
X155564596Y-86172714D02*
X155516976Y-86029857D01*
X155516976Y-86029857D02*
X155516976Y-85934619D01*
X155516976Y-85934619D02*
X155564596Y-85791762D01*
X155564596Y-85791762D02*
X155659834Y-85696524D01*
X155659834Y-85696524D02*
X155755072Y-85648905D01*
X155755072Y-85648905D02*
X155945548Y-85601286D01*
X155945548Y-85601286D02*
X156088405Y-85601286D01*
X156088405Y-85601286D02*
X156278881Y-85648905D01*
X156278881Y-85648905D02*
X156374119Y-85696524D01*
X156374119Y-85696524D02*
X156469357Y-85791762D01*
X156469357Y-85791762D02*
X156516976Y-85934619D01*
X156516976Y-85934619D02*
X156516976Y-86029857D01*
X156516976Y-86029857D02*
X156469357Y-86172714D01*
X156469357Y-86172714D02*
X156421738Y-86220333D01*
X156516976Y-87077476D02*
X156516976Y-86887000D01*
X156516976Y-86887000D02*
X156469357Y-86791762D01*
X156469357Y-86791762D02*
X156421738Y-86744143D01*
X156421738Y-86744143D02*
X156278881Y-86648905D01*
X156278881Y-86648905D02*
X156088405Y-86601286D01*
X156088405Y-86601286D02*
X155707453Y-86601286D01*
X155707453Y-86601286D02*
X155612215Y-86648905D01*
X155612215Y-86648905D02*
X155564596Y-86696524D01*
X155564596Y-86696524D02*
X155516976Y-86791762D01*
X155516976Y-86791762D02*
X155516976Y-86982238D01*
X155516976Y-86982238D02*
X155564596Y-87077476D01*
X155564596Y-87077476D02*
X155612215Y-87125095D01*
X155612215Y-87125095D02*
X155707453Y-87172714D01*
X155707453Y-87172714D02*
X155945548Y-87172714D01*
X155945548Y-87172714D02*
X156040786Y-87125095D01*
X156040786Y-87125095D02*
X156088405Y-87077476D01*
X156088405Y-87077476D02*
X156136024Y-86982238D01*
X156136024Y-86982238D02*
X156136024Y-86791762D01*
X156136024Y-86791762D02*
X156088405Y-86696524D01*
X156088405Y-86696524D02*
X156040786Y-86648905D01*
X156040786Y-86648905D02*
X155945548Y-86601286D01*
%TO.C,C4*%
X164932000Y-102184000D02*
X169232000Y-102184000D01*
X169232000Y-102184000D02*
X169232000Y-94784000D01*
X169232000Y-94784000D02*
X164932000Y-94784000D01*
X164932000Y-94784000D02*
X164932000Y-102184000D01*
D12*
%TO.C,A1*%
X120520000Y-80938000D02*
X120520000Y-83608000D01*
X120520000Y-86148000D02*
X120520000Y-124378000D01*
X120520000Y-124378000D02*
X125600000Y-124378000D01*
X123190000Y-83608000D02*
X120520000Y-83608000D01*
X123190000Y-86148000D02*
X120520000Y-86148000D01*
X123190000Y-86148000D02*
X123190000Y-83608000D01*
X123190000Y-86148000D02*
X123190000Y-121708000D01*
X123190000Y-121708000D02*
X120520000Y-121708000D01*
X125600000Y-116498000D02*
X133480000Y-116498000D01*
X125600000Y-126918000D02*
X125600000Y-116498000D01*
X133480000Y-116498000D02*
X133480000Y-126918000D01*
X133480000Y-126918000D02*
X125600000Y-126918000D01*
X135890000Y-83608000D02*
X135890000Y-121708000D01*
X135890000Y-83608000D02*
X138560000Y-83608000D01*
X135890000Y-121708000D02*
X138560000Y-121708000D01*
X138560000Y-80938000D02*
X120520000Y-80938000D01*
X138560000Y-124378000D02*
X133480000Y-124378000D01*
X138560000Y-124378000D02*
X138560000Y-80938000D01*
D10*
%TO.C,U1*%
X119440000Y-119998000D02*
X119440000Y-119698000D01*
X119440000Y-116698000D02*
X119440000Y-116298000D01*
X119440000Y-116298000D02*
X119140000Y-115998000D01*
X119140000Y-119998000D02*
X119440000Y-119998000D01*
X119140000Y-115998000D02*
X119140000Y-115198000D01*
X114540000Y-119998000D02*
X114240000Y-119998000D01*
X114540000Y-115798000D02*
X114240000Y-115798000D01*
X114240000Y-119998000D02*
X114240000Y-119698000D01*
X114240000Y-115798000D02*
X114240000Y-116098000D01*
%TO.C,J3*%
X97220000Y-81280000D02*
X99720000Y-76280000D01*
X97220000Y-97280000D02*
X97220000Y-81280000D01*
X97982000Y-96647000D02*
X97980077Y-92075000D01*
X98142000Y-81186000D02*
X97980077Y-92075000D01*
X98142000Y-81186000D02*
X100141000Y-77216000D01*
X99720000Y-76280000D02*
X104720000Y-76280000D01*
X100141000Y-77216000D02*
X104586000Y-77216000D01*
X104586000Y-77216000D02*
X106204000Y-81186000D01*
X104720000Y-76280000D02*
X107220000Y-81280000D01*
X106204000Y-81186000D02*
X106365923Y-92075000D01*
X106364000Y-96647000D02*
X97982000Y-96647000D01*
X106365923Y-92075000D02*
X106364000Y-96647000D01*
X107220000Y-81280000D02*
X107220000Y-97280000D01*
X107220000Y-97280000D02*
X97220000Y-97280000D01*
X106365923Y-92075000D02*
G75*
G03*
X97980077Y-92075000I-4192923J0D01*
G01*
X98142000Y-81186000D02*
G75*
G03*
X106204000Y-81186000I4031000J0D01*
G01*
%TO.C,R6*%
X157274396Y-108407000D02*
X142474396Y-108407000D01*
X142474396Y-108407000D02*
X142474396Y-105307000D01*
X142474396Y-105307000D02*
X157274396Y-105307000D01*
X157274396Y-105307000D02*
X157274396Y-108407000D01*
D13*
%TO.C,U4*%
X156654500Y-113599500D02*
X156654500Y-125664500D01*
X144589500Y-113599500D02*
X144589500Y-125664500D01*
X155512000Y-113602000D02*
X156654500Y-113599500D01*
X145732000Y-113602000D02*
X144589500Y-113599500D01*
X156654500Y-125664500D02*
X155512000Y-125662000D01*
X144589500Y-125664500D02*
X145732000Y-125662000D01*
D14*
X154532000Y-109382000D02*
G75*
G03*
X154532000Y-109382000I-100000J0D01*
G01*
D12*
%TO.C,J1*%
X164648000Y-97726000D02*
X164648000Y-95226000D01*
X164648000Y-95226000D02*
X162148000Y-95226000D01*
X164348000Y-99546000D02*
X164348000Y-95526000D01*
X164348000Y-97836000D02*
X163848000Y-97836000D01*
X164348000Y-97026000D02*
X163348000Y-97026000D01*
X164348000Y-95526000D02*
X151628000Y-95526000D01*
X163848000Y-99046000D02*
X152128000Y-99046000D01*
X163848000Y-97836000D02*
X163848000Y-99046000D01*
X163348000Y-97026000D02*
X163348000Y-95526000D01*
X152628000Y-97026000D02*
X152628000Y-95526000D01*
X152128000Y-99046000D02*
X152128000Y-97836000D01*
X152128000Y-97836000D02*
X151628000Y-97836000D01*
X151628000Y-99546000D02*
X164348000Y-99546000D01*
X151628000Y-97026000D02*
X152628000Y-97026000D01*
X151628000Y-95526000D02*
X151628000Y-99546000D01*
D10*
%TO.C,C1*%
X156194396Y-87547000D02*
X160494396Y-87547000D01*
X160494396Y-87547000D02*
X160494396Y-80147000D01*
X160494396Y-80147000D02*
X156194396Y-80147000D01*
X156194396Y-80147000D02*
X156194396Y-87547000D01*
%TO.C,U2*%
X105004000Y-100090000D02*
X111404000Y-100090000D01*
X111404000Y-100090000D02*
X111404000Y-95290000D01*
X111404000Y-95290000D02*
X105004000Y-95290000D01*
X105004000Y-95290000D02*
X105004000Y-100090000D01*
X105004000Y-100090000D02*
X111404000Y-100090000D01*
X111404000Y-100090000D02*
X111404000Y-95290000D01*
X111404000Y-95290000D02*
X105004000Y-95290000D01*
X105004000Y-95290000D02*
X105004000Y-100090000D01*
%TO.C,R5*%
X144094396Y-103147000D02*
X147194396Y-103147000D01*
X147194396Y-103147000D02*
X147194396Y-88347000D01*
X147194396Y-88347000D02*
X144094396Y-88347000D01*
X144094396Y-88347000D02*
X144094396Y-103147000D01*
D12*
%TO.C,Q1*%
X151711896Y-79847000D02*
X150036896Y-79847000D01*
X151711896Y-79847000D02*
X152361896Y-79847000D01*
X151711896Y-82967000D02*
X151061896Y-82967000D01*
X151711896Y-82967000D02*
X152361896Y-82967000D01*
D10*
%TO.C,R2*%
X105613000Y-117255000D02*
X108713000Y-117255000D01*
X108713000Y-117255000D02*
X108713000Y-102455000D01*
X108713000Y-102455000D02*
X105613000Y-102455000D01*
X105613000Y-102455000D02*
X105613000Y-117255000D01*
%TO.C,C5*%
X111395000Y-118133000D02*
X107095000Y-118133000D01*
X107095000Y-118133000D02*
X107095000Y-125533000D01*
X107095000Y-125533000D02*
X111395000Y-125533000D01*
X111395000Y-125533000D02*
X111395000Y-118133000D01*
D12*
%TO.C,U3*%
X143154396Y-86467000D02*
X146654396Y-86467000D01*
X143154396Y-86467000D02*
X141204396Y-86467000D01*
X143154396Y-76347000D02*
X145104396Y-76347000D01*
X143154396Y-76347000D02*
X141204396Y-76347000D01*
D10*
%TO.C,J4*%
X109220000Y-81280000D02*
X111720000Y-76280000D01*
X109220000Y-97280000D02*
X109220000Y-81280000D01*
X109982000Y-96647000D02*
X109980077Y-92075000D01*
X110142000Y-81186000D02*
X109980077Y-92075000D01*
X110142000Y-81186000D02*
X112141000Y-77216000D01*
X111720000Y-76280000D02*
X116720000Y-76280000D01*
X112141000Y-77216000D02*
X116586000Y-77216000D01*
X116586000Y-77216000D02*
X118204000Y-81186000D01*
X116720000Y-76280000D02*
X119220000Y-81280000D01*
X118204000Y-81186000D02*
X118365923Y-92075000D01*
X118364000Y-96647000D02*
X109982000Y-96647000D01*
X118365923Y-92075000D02*
X118364000Y-96647000D01*
X119220000Y-81280000D02*
X119220000Y-97280000D01*
X119220000Y-97280000D02*
X109220000Y-97280000D01*
X118365923Y-92075000D02*
G75*
G03*
X109980077Y-92075000I-4192923J0D01*
G01*
X110142000Y-81186000D02*
G75*
G03*
X118204000Y-81186000I4031000J0D01*
G01*
%TO.C,C3*%
X156914396Y-78527000D02*
X149514396Y-78527000D01*
X149514396Y-78527000D02*
X149514396Y-74227000D01*
X149514396Y-74227000D02*
X156914396Y-74227000D01*
X156914396Y-74227000D02*
X156914396Y-78527000D01*
%TO.C,R1*%
X166700000Y-102339000D02*
X163600000Y-102339000D01*
X163600000Y-102339000D02*
X163600000Y-117139000D01*
X163600000Y-117139000D02*
X166700000Y-117139000D01*
X166700000Y-117139000D02*
X166700000Y-102339000D01*
D12*
%TO.C,J2*%
X137490000Y-76090000D02*
X137490000Y-73590000D01*
X137490000Y-73590000D02*
X134990000Y-73590000D01*
X137190000Y-77910000D02*
X137190000Y-73890000D01*
X137190000Y-76200000D02*
X136690000Y-76200000D01*
X137190000Y-75390000D02*
X136190000Y-75390000D01*
X137190000Y-73890000D02*
X119470000Y-73890000D01*
X136690000Y-77410000D02*
X119970000Y-77410000D01*
X136690000Y-76200000D02*
X136690000Y-77410000D01*
X136190000Y-75390000D02*
X136190000Y-73890000D01*
X120470000Y-75390000D02*
X120470000Y-73890000D01*
X119970000Y-77410000D02*
X119970000Y-76200000D01*
X119970000Y-76200000D02*
X119470000Y-76200000D01*
X119470000Y-77910000D02*
X137190000Y-77910000D01*
X119470000Y-75390000D02*
X120470000Y-75390000D01*
X119470000Y-73890000D02*
X119470000Y-77910000D01*
D10*
%TO.C,R4*%
X162484000Y-94384000D02*
X165584000Y-94384000D01*
X165584000Y-94384000D02*
X165584000Y-79584000D01*
X165584000Y-79584000D02*
X162484000Y-79584000D01*
X162484000Y-79584000D02*
X162484000Y-94384000D01*
%TO.C,C6*%
X152974396Y-84887000D02*
X148674396Y-84887000D01*
X148674396Y-84887000D02*
X148674396Y-92287000D01*
X148674396Y-92287000D02*
X152974396Y-92287000D01*
X152974396Y-92287000D02*
X152974396Y-84887000D01*
%TO.C,R3*%
X112827000Y-102582000D02*
X109727000Y-102582000D01*
X109727000Y-102582000D02*
X109727000Y-117382000D01*
X109727000Y-117382000D02*
X112827000Y-117382000D01*
X112827000Y-117382000D02*
X112827000Y-102582000D01*
%TD*%
M02*
