%TF.GenerationSoftware,KiCad,Pcbnew,7.0.7*%
%TF.CreationDate,2023-12-14T17:45:07-06:00*%
%TF.ProjectId,test,74657374-2e6b-4696-9361-645f70636258,rev?*%
%TF.SameCoordinates,Original*%
%TF.FileFunction,Legend,Bot*%
%TF.FilePolarity,Positive*%
%FSLAX46Y46*%
G04 Gerber Fmt 4.6, Leading zero omitted, Abs format (unit mm)*
G04 Created by KiCad (PCBNEW 7.0.7) date 2023-12-14 17:45:07*
%MOMM*%
%LPD*%
G01*
G04 APERTURE LIST*
%ADD10C,0.200000*%
G04 APERTURE END LIST*
D10*
X166016469Y-127289790D02*
X166016469Y-117289790D01*
X166016469Y-117289790D02*
X163635517Y-117289790D01*
X163635517Y-117289790D02*
X162206945Y-117765980D01*
X162206945Y-117765980D02*
X161254564Y-118718361D01*
X161254564Y-118718361D02*
X160778374Y-119670742D01*
X160778374Y-119670742D02*
X160302183Y-121575504D01*
X160302183Y-121575504D02*
X160302183Y-123004076D01*
X160302183Y-123004076D02*
X160778374Y-124908838D01*
X160778374Y-124908838D02*
X161254564Y-125861219D01*
X161254564Y-125861219D02*
X162206945Y-126813600D01*
X162206945Y-126813600D02*
X163635517Y-127289790D01*
X163635517Y-127289790D02*
X166016469Y-127289790D01*
X152683136Y-122051695D02*
X151254564Y-122527885D01*
X151254564Y-122527885D02*
X150778374Y-123004076D01*
X150778374Y-123004076D02*
X150302183Y-123956457D01*
X150302183Y-123956457D02*
X150302183Y-125385028D01*
X150302183Y-125385028D02*
X150778374Y-126337409D01*
X150778374Y-126337409D02*
X151254564Y-126813600D01*
X151254564Y-126813600D02*
X152206945Y-127289790D01*
X152206945Y-127289790D02*
X156016469Y-127289790D01*
X156016469Y-127289790D02*
X156016469Y-117289790D01*
X156016469Y-117289790D02*
X152683136Y-117289790D01*
X152683136Y-117289790D02*
X151730755Y-117765980D01*
X151730755Y-117765980D02*
X151254564Y-118242171D01*
X151254564Y-118242171D02*
X150778374Y-119194552D01*
X150778374Y-119194552D02*
X150778374Y-120146933D01*
X150778374Y-120146933D02*
X151254564Y-121099314D01*
X151254564Y-121099314D02*
X151730755Y-121575504D01*
X151730755Y-121575504D02*
X152683136Y-122051695D01*
X152683136Y-122051695D02*
X156016469Y-122051695D01*
X142683136Y-122051695D02*
X146016469Y-122051695D01*
X146016469Y-127289790D02*
X146016469Y-117289790D01*
X146016469Y-117289790D02*
X141254564Y-117289790D01*
X129825992Y-117289790D02*
X129825992Y-125385028D01*
X129825992Y-125385028D02*
X129349802Y-126337409D01*
X129349802Y-126337409D02*
X128873611Y-126813600D01*
X128873611Y-126813600D02*
X127921230Y-127289790D01*
X127921230Y-127289790D02*
X126016468Y-127289790D01*
X126016468Y-127289790D02*
X125064087Y-126813600D01*
X125064087Y-126813600D02*
X124587897Y-126337409D01*
X124587897Y-126337409D02*
X124111706Y-125385028D01*
X124111706Y-125385028D02*
X124111706Y-117289790D01*
X120778374Y-117289790D02*
X115064088Y-117289790D01*
X117921231Y-127289790D02*
X117921231Y-117289790D01*
X111730754Y-127289790D02*
X111730754Y-117289790D01*
X111730754Y-117289790D02*
X109349802Y-117289790D01*
X109349802Y-117289790D02*
X107921230Y-117765980D01*
X107921230Y-117765980D02*
X106968849Y-118718361D01*
X106968849Y-118718361D02*
X106492659Y-119670742D01*
X106492659Y-119670742D02*
X106016468Y-121575504D01*
X106016468Y-121575504D02*
X106016468Y-123004076D01*
X106016468Y-123004076D02*
X106492659Y-124908838D01*
X106492659Y-124908838D02*
X106968849Y-125861219D01*
X106968849Y-125861219D02*
X107921230Y-126813600D01*
X107921230Y-126813600D02*
X109349802Y-127289790D01*
X109349802Y-127289790D02*
X111730754Y-127289790D01*
M02*
