M48
; DRILL file {KiCad 7.0.7} date Thu Dec 14 17:45:00 2023
; FORMAT={-:-/ absolute / inch / decimal}
; #@! TF.CreationDate,2023-12-14T17:45:00-06:00
; #@! TF.GenerationSoftware,Kicad,Pcbnew,7.0.7
; #@! TF.FileFunction,Plated,1,2,PTH
FMAT,2
INCH
; #@! TA.AperFunction,Plated,PTH,ViaDrill
T1C0.0118
; #@! TA.AperFunction,Plated,PTH,ComponentDrill
T2C0.0236
; #@! TA.AperFunction,Plated,PTH,ViaDrill
T3C0.0276
; #@! TA.AperFunction,Plated,PTH,ComponentDrill
T4C0.0354
; #@! TA.AperFunction,Plated,PTH,ComponentDrill
T5C0.0374
; #@! TA.AperFunction,Plated,PTH,ComponentDrill
T6C0.0394
; #@! TA.AperFunction,Plated,PTH,ViaDrill
T7C0.1260
; #@! TA.AperFunction,Plated,PTH,ComponentDrill
T8C0.1772
%
G90
G05
T1
X4.425Y-3.855
X4.87Y-3.87
X4.905Y-4.15
X4.965Y-3.815
T2
X4.299Y-4.7139
X4.299Y-4.8714
X5.936Y-3.405
X5.936Y-3.5625
X5.9573Y-3.005
X6.1147Y-3.005
X6.236Y-3.2263
X6.236Y-3.3837
X6.58Y-3.8025
X6.58Y-3.96
T3
X5.516Y-3.445
X5.736Y-3.445
X6.0Y-4.5
T4
X4.221Y-4.0848
X4.221Y-4.5652
X4.379Y-4.0898
X4.379Y-4.5702
X5.6604Y-4.205
X5.736Y-3.5294
X5.736Y-4.0097
X6.1407Y-4.205
X6.46Y-3.1844
X6.46Y-3.6647
X6.5Y-4.0803
X6.5Y-4.5606
T5
X4.8063Y-3.0
X4.9047Y-3.0
X5.0031Y-3.0
X5.1016Y-3.0
X5.2Y-3.0
X5.2984Y-3.0
X6.0724Y-3.8518
X6.1708Y-3.8518
X6.2692Y-3.8518
X6.3676Y-3.8518
T6
X4.8Y-3.3417
X4.8Y-3.4417
X4.8Y-3.5417
X4.8Y-3.6417
X4.8Y-3.7417
X4.8Y-3.8417
X4.8Y-3.9417
X4.8Y-4.0417
X4.8Y-4.1417
X4.8Y-4.2417
X4.8Y-4.3417
X4.8Y-4.4417
X4.8Y-4.5417
X4.8Y-4.6417
X4.8Y-4.7417
X5.4Y-3.3417
X5.4Y-3.4417
X5.4Y-3.5417
X5.4Y-3.6417
X5.4Y-3.7417
X5.4Y-3.8417
X5.4Y-3.9417
X5.4Y-4.0417
X5.4Y-4.1417
X5.4Y-4.2417
X5.4Y-4.3417
X5.4Y-4.4417
X5.4Y-4.5417
X5.4Y-4.6417
X5.4Y-4.7417
T7
X3.875Y-2.93
X3.92Y-5.06
X6.59Y-5.07
X6.5914Y-2.9771
T8
X4.0244Y-3.1587
X4.0244Y-3.6299
X4.4969Y-3.1587
X4.4969Y-3.6299
T0
M30
